<svg xmlns="http://www.w3.org/2000/svg" xmlns:xlink="http://www.w3.org/1999/xlink" width="512" height="467" viewBox="0 0 253 231"><style>.st1{fill:#d19d09}</style><path d="M195.3 189.9H58.7c-6 0-10.9 4.9-10.9 10.9s4.9 10.9 10.9 10.9h136.7c6.1 0 10.9-4.9 10.9-10.9s-4.9-10.9-11-10.9zm0 0" style="fill:#bfbfbf"/><path class="st1" d="M45 107.9v27.3c0 4.5 3.7 8.2 8.2 8.2s8.2-3.7 8.2-8.2v-27.3c0-4.5-3.7-8.2-8.2-8.2-4.5 0-8.2 3.7-8.2 8.2zM72.3 97v38.3c0 4.5 3.7 8.2 8.2 8.2 4.5 0 8.2-3.7 8.2-8.2V97c0-4.5-3.7-8.2-8.2-8.2-4.5 0-8.2 3.7-8.2 8.2zm0 0"/><defs><path id="SVGID_1_" d="M6.7 21.4h242.6v190.9H6.7z"/></defs><clipPath id="SVGID_2_"><use xlink:href="#SVGID_1_" style="overflow:visible"/></clipPath><path d="M99.7 86.1v49.2c0 4.5 3.7 8.2 8.2 8.2s8.2-3.7 8.2-8.2V86.1c0-4.5-3.7-8.2-8.2-8.2s-8.2 3.6-8.2 8.2zm0 0" style="clip-path:url(#SVGID_2_);fill:#d19d09"/><path d="M236.3 20.5H16c-5.1 0-9.3 4.2-9.3 9.3v138.3c0 6 4.9 10.9 10.9 10.9h208.6c-.3-.3-.7-.5-1-.8l-15-15.2c-8.7 4.9-18.6 7.6-28.7 7.6-13.8 0-26.9-4.8-37.4-13.5H35.7c-3.9 0-7.1-3.2-7.1-7.1V48.8c0-3.6 2.9-6.5 6.5-6.5h184.5c3.2 0 5.8 2.6 5.8 5.8v25.1c9.5 10.7 14.8 24.3 14.8 38.8 0 10.1-2.6 20-7.5 28.7l14.6 14.7v-124c0-6-4.9-10.9-11-10.9zm0 0" style="clip-path:url(#SVGID_2_);fill:#393939"/><path d="M223.6 147.1c-1.1-1.1-2.6-1.5-4-1.4l-2.3-2.3c7.7-8.7 11.9-19.8 11.9-31.5 0-12.7-4.9-24.7-14-33.7-9-9-21-14-33.8-14-12.7 0-24.7 5-33.7 14-9 9-14 21-14 33.7 0 12.7 5 24.7 14 33.8 9 9 21 14 33.7 14 11.7 0 22.8-4.2 31.5-11.9l2.3 2.3c-.2 1.4.3 2.9 1.4 4l16.4 16.4c.9 1 2.2 1.4 3.4 1.4 1.2 0 2.5-.5 3.5-1.4 1.9-1.9 1.9-5 0-6.9l-16.3-16.5zm-15.3-8.3c-7.2 7.2-16.7 11.1-26.8 11.1-10.1 0-19.6-3.9-26.8-11.1-7.2-7.2-11.1-16.7-11.1-26.8 0-10.1 3.9-19.7 11.1-26.8C161.8 78 171.3 74 181.5 74c10.1 0 19.7 4 26.8 11.1 7.2 7.1 11.1 16.7 11.1 26.8 0 10.2-3.9 19.7-11.1 26.9zm0 0" style="fill:#acabb1"/></svg>