<svg xmlns="http://www.w3.org/2000/svg" width="512" height="467" viewBox="0 0 253 231"><style>.st0{fill:#ecf0f1}.st3{fill:#848484}</style><path class="st0" d="M23.3 125.2h49.5v3.5H23.3zM27.3 132.8h41.5v2.7H27.3z"/><path d="M41.6 22.5c-2.3 0-4.5.9-6.1 2.5-1.6 1.6-2.6 3.8-2.6 6.2v130.3c0 4.8 3.9 8.7 8.7 8.7 20.2 0 54.1 4.3 77.5 28.7V62.5c0-1.6-.4-3.1-1.2-4.4-19.1-30.9-56-35.6-76.3-35.6zm0 0" style="fill:#0da6c9"/><path d="M218.9 161.5V31.2c0-2.3-.9-4.5-2.6-6.2-1.6-1.6-3.8-2.5-6.1-2.5-20.3 0-57.1 4.7-76.3 35.6-.8 1.3-1.2 2.8-1.2 4.4v136.4c23.4-24.5 57.3-28.7 77.5-28.7 4.8 0 8.7-3.9 8.7-8.7zm0 0" style="fill:#393939"/><path class="st3" d="M238.7 52.6h-6.3v109c0 12.2-9.9 22.1-22.2 22.2-17.2 0-45.4 3.4-65.5 22.4 34.7-8.5 71.2-3 92 1.8 2.6.6 5.3 0 7.4-1.7 2.1-1.7 3.3-4.1 3.3-6.8V61.2c0-4.8-3.9-8.6-8.7-8.6zM19.5 161.5v-109h-6.3c-4.8 0-8.7 3.9-8.7 8.7v138.1c0 2.7 1.2 5.1 3.3 6.8 2.1 1.7 4.8 2.3 7.4 1.7 20.8-4.7 57.4-10.3 92-1.8-20-19-48.3-22.3-65.5-22.4-12.3 0-22.2-9.9-22.2-22.1zm0 0"/></svg>