<svg xmlns="http://www.w3.org/2000/svg" width="512" height="467" viewBox="0 0 253 231"><style>.st2{fill:#aa6455}</style><path d="m181.9 124.5-54.7-2.3.5-49.8-67.3 7.9v88.4s68.4 17.4 98.1 6.3l23.4-40.7" style="fill:#393939"/><path style="fill:#848484" d="M189.8 122.2V83.5l-18.6-14.2-44-5.7v58.6z"/><path class="st2" d="M21.4 22.4H229c5.7 0 10.3 4.8 10.3 10.6v2.2c0 5.9-4.6 10.6-10.3 10.6H21.4c-5.7 0-10.3-4.8-10.3-10.6V33c.1-5.8 4.7-10.6 10.3-10.6zM149.8 207.7l3.3 9.8c1.5 4.6 5.8 7.7 10.6 7.7 7.6 0 13.1-7.5 10.6-14.7l-3.3-9.8c-1.5-4.6-5.8-7.7-10.6-7.7-7.6-.1-13 7.4-10.6 14.7zM91.7 225.1c4.8 0 9.1-3.1 10.6-7.7l3.3-9.8c2.4-7.3-3-14.7-10.6-14.7-4.8 0-9.1 3.1-10.6 7.7l-3.3 9.8c-2.5 7.2 3 14.7 10.6 14.7zm-15.5 0"/><path d="M44.2 186.4h167c8.5 0 15.5-6.9 15.5-15.5V72c0-8.5-6.9-15.5-15.5-15.5h-167c-8.5 0-15.5 6.9-15.5 15.5v99c0 8.5 7 15.4 15.5 15.4zm91.4-111.9c21.6 0 39 17.6 39 39.2h-39V74.5zm-54.7 55c0-21.6 17.4-39.2 39-39.2v39h39c0 21.6-17.4 39-39 39-21.6.1-39-17.3-39-38.8zm0 0" style="fill:#bfbfbf"/><path class="st2" d="M127.9 34.2H125c-4 0-7.2-3.3-7.2-7.2V12.2c0-4 3.3-7.2 7.2-7.2h2.9c4 0 7.2 3.3 7.2 7.2v14.7c0 4-3.3 7.3-7.2 7.3z"/></svg>