<svg xmlns="http://www.w3.org/2000/svg" width="512" height="467" viewBox="0 0 253 231"><style>.st0{fill:#a3a3a3}.st4{fill:#848484}</style><path class="st0" d="M166.9 171.7v-56.5c4.6-1.6 7.9-6 7.9-11.1v-3.9h-39.3v3.9c0 5.1 3.3 9.4 7.9 11.1v56.5c-4.6 1.6-7.9 6-7.9 11.1v3.6h39.3v-3.6c0-5.2-3.3-9.5-7.9-11.1zM64.6 182.8c0-5.1-3.3-9.4-7.9-11.1v-56.5c4.6-1.6 7.9-6 7.9-11.1v-3.9H25.3v3.9c0 5.1 3.3 9.4 7.9 11.1v56.5c-4.6 1.6-7.9 6-7.9 11.1v3.6h39.3v-3.6zM119.7 182.8c0-5.1-3.3-9.4-7.9-11.1v-56.5c4.6-1.6 7.9-6 7.9-11.1v-3.9H80.4v3.9c0 5.1 3.3 9.4 7.9 11.1v56.5c-4.6 1.6-7.9 6-7.9 11.1v3.6h39.3v-3.6zM222 171.7v-56.5c4.6-1.6 7.9-6 7.9-11.1v-3.9h-39.3v3.9c0 5.1 3.3 9.4 7.9 11.1v56.5c-4.6 1.6-7.9 6-7.9 11.1v3.6h39.3v-3.6c-.1-5.2-3.4-9.5-7.9-11.1z"/><path d="m245.8 80.5-116-55.1c-1.3-.8-2.9-.8-4.2 0L9.5 80.5c-1.5.9-2.1 2.7-1.7 4.4.5 1.7 2 2.8 3.8 2.8h3.9v11.8c0 1.4.7 2.6 1.8 3.3H238c1.1-.7 1.8-1.9 1.8-3.3V87.7h3.9c1.7 0 3.3-1.2 3.8-2.8.5-1.7-.2-3.5-1.7-4.4z" style="fill:#bfbfbf"/><path d="m22.3 183.1-3.9.4c-6.5 0-11.8 5.3-11.8 11.8v7.9c0 2.2 1.8 3.9 3.9 3.9h232.8c2.2 0 3.9-1.8 3.9-3.9v-7.9c0-6.5-5.3-11.8-11.8-11.8h-3.9l-209.2-.4z" style="fill:#464646"/><path d="M15.6 87.9v11.6c0 1.4.7 2.6 1.8 3.3H238c1.1-.7 1.8-1.9 1.8-3.3V87.9H15.6z" style="fill:#d87395"/><path class="st4" d="M33.2 115.2h23.6c6.4-2.1 7.9-7 7.9-11.1v-3.9H25.3v3.9c-.5 4 3.2 8.7 7.9 11.1zM56.8 171.7H33.2c-4.6 1.6-7.9 6-7.9 11.1v3.6h39.3v-3.6c0-5.2-3.3-9.5-7.8-11.1zM88.3 115.2h23.6c6.4-2.1 7.9-7 7.9-11.1v-3.9H80.4v3.9c-.5 4 3.2 8.7 7.9 11.1zM111.9 171.7H88.2c-4.6 1.6-7.9 6-7.9 11.1v3.6h39.3v-3.6c.1-5.2-3.2-9.5-7.7-11.1zM143.3 115.2h23.6c6.4-2.1 7.9-7 7.9-11.1v-3.9h-39.3v3.9c-.5 4 3.2 8.7 7.8 11.1zM166.9 171.7h-23.6c-4.6 1.6-7.9 6-7.9 11.1v3.6h39.3v-3.6c.1-5.2-3.2-9.5-7.8-11.1zM198.4 115.2H222c6.4-2.1 7.9-7 7.9-11.1v-3.9h-39.3v3.9c-.5 4 3.1 8.7 7.8 11.1zM222 171.7h-23.6c-4.6 1.6-7.9 6-7.9 11.1v3.6h39.3v-3.6c.1-5.2-3.2-9.5-7.8-11.1zM163.2 69.9c-.5 1.7-2 2.8-3.8 2.8H95.9c-1.7 0-3.3-1.1-3.8-2.8-.5-1.7.1-3.5 1.6-4.4l31.8-15.7c1.3-.9 3-.9 4.4 0l31.8 15.7c1.4 1 2 2.8 1.5 4.4z"/></svg>