<svg xmlns="http://www.w3.org/2000/svg" xmlns:xlink="http://www.w3.org/1999/xlink" width="512" height="467" viewBox="0 0 253 231"><style>.st0{fill:#6abda0}.st2{fill:#848484}</style><path class="st0" d="M37.8 44.2h16.8v170.9H37.8zM196.2 44.2H214v170.9h-17.8z"/><defs><path id="SVGID_1_" d="M63.4 8h128.9v36.8H63.4z"/></defs><clipPath id="SVGID_2_"><use xlink:href="#SVGID_1_" style="overflow:visible"/></clipPath><path d="M178.1 27c0-3.6-1.2-6.6-3.7-9.1s-5.5-3.7-9.1-3.7H88.5c-3.6 0-6.6 1.2-9.1 3.7s-3.7 5.5-3.7 9.1v18.6H54.4v170.7h145.1V45.6h-21.3V27zM102 28.6h50.1c5 0 9 4 9 9v8.1H92.8v-7.8c0-5.2 4.1-9.3 9.2-9.3zm76.1 115.2" style="clip-path:url(#SVGID_2_);fill:#393939"/><path class="st2" d="M16.7 53.2c-5.9 5.9-8.8 12.9-8.8 21.1v111c0 8.2 2.9 15.2 8.8 21.1 5.9 5.9 12.9 8.8 21.1 8.8h4.3V44.4h-4.3c-8.2 0-15.2 2.9-21.1 8.8zM238.2 53.2c-5.9-5.9-12.9-8.8-21.1-8.8h-4.3v170.7h4.3c8.2 0 15.2-2.9 21.1-8.8 5.9-5.9 8.8-12.9 8.8-21.1v-111c0-8.1-3-15.1-8.8-21zm0 0"/><defs><path id="SVGID_3_" d="M2 44.4h281.7v177.2H2z"/></defs><clipPath id="SVGID_4_"><use xlink:href="#SVGID_3_" style="overflow:visible"/></clipPath><path d="M178.7 25.8c0-3.6-1.2-6.6-3.7-9.1s-5.5-3.7-9.1-3.7H89c-3.6 0-6.6 1.2-9.1 3.7s-3.7 5.5-3.7 9.1v18.6H54.9v170.7H200V44.4h-21.3V25.8zm-76.2 1.5h50.1c5 0 9 4 9 9v8.1H93.3v-7.8c0-5.1 4.1-9.3 9.2-9.3zm76.2 115.3" style="clip-path:url(#SVGID_4_);fill:#bfbfbf"/><defs><path id="SVGID_5_" d="M64.6 68.7h125.6v204.5H64.6z"/></defs><clipPath id="SVGID_6_"><use xlink:href="#SVGID_5_" style="overflow:visible"/></clipPath><path d="M124.7 79.3c28.2-1.2 51.9 20.6 53.1 48.5 1.2 28.1-20.6 51.9-48.5 53.1-28.2 1.2-51.9-20.6-53.1-48.7-1.3-28 20.5-51.9 48.5-52.9z" style="fill:#fff"/><path class="st0" d="M127 93.8c-6.9 0-12.5 5.6-12.5 12.5v11.3h-11.3c-6.9 0-12.5 5.6-12.5 12.5s5.6 12.5 12.5 12.5h11.3V154c0 6.9 5.6 12.5 12.5 12.5s12.5-5.6 12.5-12.5v-11.4h11.3c6.9 0 12.5-5.6 12.5-12.5s-5.6-12.5-12.5-12.5h-11.3v-11.3c0-6.9-5.6-12.5-12.5-12.5zm0 0"/></svg>