<svg xmlns="http://www.w3.org/2000/svg" width="512" height="467" viewBox="0 0 253 231"><style>.st0{fill:#393939}.st1{fill:#ff016a}.st2{fill:#858585}</style><path class="st0" d="M98.5 225.9c-16.9 0-33.8.2-50.7-.1-8.5-.1-16.8-1.4-23.7-7.3-5.3-4.4-9-10-9.5-16.7-1.7-19.7 0-39.1 9.4-57 5.5-10.4 14-16.9 25.8-19 4.9-.9 8.8.6 12.6 3.4 8.7 6.4 18.3 10.8 29.2 12.4 13.5 1.9 25.8-1.1 37.2-7.9 7.5-4.5 14.1-10.6 24.2-7 11.3 4 18.8 11.7 23.2 22.3 6.9 16.4 9.2 33.6 7.5 51.3-1.2 12.8-11.3 23.3-24.2 24.4-13.8 1.1-27.7.9-41.6 1.2-6.6.1-13 0-19.4 0z"/><path class="st0" d="M98.5 132.7c-26.1-.5-46.5-21.6-45.9-47.8.5-23 19-44.7 46.6-44.8C125.1 40 145.5 61.7 145 88c-.5 24.6-21.8 45.2-46.5 44.7z"/><path class="st1" d="M170.8 77.4c-14.7-.3-26.2-12.2-25.9-27 .3-13 10.8-25.3 26.3-25.3 14.6-.1 26.1 12.2 25.9 27-.3 13.9-12.3 25.5-26.3 25.3zM209.7 93.6c-.7-6.5-3.2-13.4-8.2-15.6-5.6-2.4-8.1.4-12.4 2.9-6.4 3.9-9.5 4.7-19 4.7-3.1 0-9.3-.6-12-1.7 1 7.1 0 17.8-8.7 31.2 5.2.4 13.7 1.7 18.3 5.3 0 0 5.4 3.3 9.6 7.9 7.1-.1 9 .6 16.5 0 7.3-.6 13.4-3.2 15-9.5 2.5-9.6 1.7-18.1.9-25.2z"/><path class="st2" d="M212.6 42.9c-10.6-.2-19-8.8-18.7-19.6.2-9.4 7.8-18.3 19.1-18.3 10.6 0 18.9 8.8 18.7 19.6-.3 10-9 18.5-19.1 18.3zM240.7 54.6c-.5-4.7-2.3-9.7-5.9-11.3-4-1.7-5.9.3-9 2.1-4.7 2.8-6.9 3.4-13.7 3.4-2.3 0-6.7-.4-8.7-1.3.7 5.1 0 12.9-6.3 22.6 3.8.3 9.9 1.2 13.3 3.8 0 0 3.9 2.4 7 5.7 5.1-.1 6.5.4 11.9 0 5.3-.4 9.7-2.3 10.9-6.9 1.7-6.8 1.1-13 .5-18.1z"/></svg>