<svg xmlns="http://www.w3.org/2000/svg" width="512" height="467" viewBox="0 0 253 231"><style>.st3{fill:#ff7058}</style><path d="M226.6 36.2c-13.4 0-24.4 10.9-24.4 24.4 0 1.2.1 2.5.3 3.6l-56.9 33.2c-4.4-4.6-10.7-7.5-17.6-7.5-8.6 0-16.2 4.5-20.5 11.2L50.7 78.9c.1-.7.1-1.5.1-2.2 0-13.4-10.9-24.4-24.4-24.4-13.4 0-24.3 11-24.3 24.4 0 13.4 10.9 24.4 24.4 24.4 6.7 0 12.9-2.8 17.3-7.2l60.1 23.5c1.5 12 11.8 21.2 24.2 21.2 13.4 0 24.4-10.9 24.4-24.4 0-.6 0-1.2-.1-1.7l58-33.9c4.3 3.9 10 6.2 16.3 6.2 13.4 0 24.4-10.9 24.4-24.4-.1-13.3-11-24.2-24.5-24.2zM26.5 84.6c-4.4 0-7.9-3.6-7.9-7.9 0-4.4 3.6-7.9 7.9-7.9s7.9 3.6 7.9 7.9c0 4.4-3.5 7.9-7.9 7.9zM128 122.2c-4.4 0-7.9-3.6-7.9-7.9 0-4.4 3.5-7.9 7.9-7.9s7.9 3.6 7.9 7.9c.1 4.3-3.5 7.9-7.9 7.9zm98.6-53.7c-4.4 0-7.9-3.6-7.9-7.9 0-4.4 3.6-7.9 7.9-7.9 4.4 0 7.9 3.6 7.9 7.9 0 4.3-3.5 7.9-7.9 7.9zm0 0" style="fill:#393939"/><path d="m209.9 94.1-48.5 28.3c-1.7 15.7-14.2 28.2-29.9 29.8v42.9h90.3c11.9 0 21.6-9.7 21.6-21.6V94.2c-4.9 2.8-10.6 4.5-16.7 4.5-6-.1-11.8-1.6-16.8-4.6zm0 0" style="fill:#848484"/><path d="m96 128.7-50.6-19.8a33.3 33.3 0 0 1-18.9 5.9c-6.1 0-11.8-1.6-16.7-4.5v61.8c0 12.7 10.3 23 23 23h88.9v-43.3c-12.1-2.4-22-11.3-25.7-23.1zm0 0" style="fill:#bfbfbf"/><circle class="st3" cx="227.2" cy="61" r="12.2"/><circle class="st3" cx="128.3" cy="113.9" r="12.2"/><circle class="st3" cx="26.6" cy="76.9" r="12.2"/></svg>