<svg xmlns="http://www.w3.org/2000/svg" xmlns:xlink="http://www.w3.org/1999/xlink" width="512" height="467" viewBox="0 0 253 231"><style>.st0{clip-path:url(#SVGID_2_);fill:#393939}</style><defs><path id="SVGID_1_" d="M17.3 3.4h219.5l.5 220.9H17.8z"/></defs><clipPath id="SVGID_2_"><use xlink:href="#SVGID_1_" style="overflow:visible"/></clipPath><path class="st0" d="m112.5 143.4-33.2-40c-2.2-2.6-5.2-4.2-8.6-4.4-3.4-.2-5.4.4-7.1 1.7-4.8 3.6-1.3 8.9 1.4 14.3l18.8 25.9s2.3 3.1 2 5.4c0 0-.1 1.2-2 2-4.2 1.1-5.7.5-8 0s-9.3-4.6-9.3-4.6-11.1-6.2-16-21.8c-3.6-11.3-6.6-53.1-6.6-53.1-.6-6-3.4-10.8-8.8-11.5-3.7-.5-6.3-.1-9.1 2.3s-4.5 5.8-4.7 9.5l-3.9 57.2c-.5 6.7 1.5 13.3 5.5 18.6l25.8 34.3c4.1 7.4 8.4 18.6 8.8 31.9.3 7 .3 8.6.3 8.6-.1 1.1.3 2.1 1 2.9.7.8 1.8 1.3 2.8 1.3l54.8-.1c2.1 0 3.8-1.7 3.9-3.8l.5-53.1c.2-8.6-2.8-16.9-8.3-23.5z"/><path class="st0" d="M70.7 99c-3.4-.2-5.2.7-7.1 1.7-2.9 2.5-.8 9.5 1.8 15.2"/><path d="M85.9 146.2s-.2 1-2 2c-3.7 1.4-5.6.1-6.8-.1" style="clip-path:url(#SVGID_2_);fill:#fff"/><path d="m142.1 143.8 33.2-40c2.2-2.6 5.2-4.2 8.6-4.4 3.4-.2 5.4.4 7.1 1.7 4.8 3.6 1.3 8.9-1.4 14.3l-18.8 25.9s-2.3 3.1-2 5.4c0 0 .1 1.2 2 2 4.2 1.1 5.7.5 8 0s9.3-4.6 9.3-4.6 11.1-6.2 16-21.8c3.6-11.3 6.6-53.1 6.6-53.1.6-6 3.4-10.8 8.8-11.5 3.7-.5 6.3-.1 9.1 2.3s4.5 5.8 4.7 9.5l3.9 57.2c.5 6.7-1.5 13.3-5.5 18.6l-25.8 34.3c-4.1 7.4-8.4 18.6-8.8 31.9-.3 7-.3 8.6-.3 8.6.1 1.1-.3 2.1-1 2.9-.7.8-1.8 1.3-2.8 1.3l-54.8-.1c-2.1 0-3.8-1.7-3.9-3.8l-.5-53.1c-.2-8.6 2.8-16.9 8.3-23.5z" style="clip-path:url(#SVGID_2_);fill:#848484"/><path d="M195 46.9c0-9.5-3.7-18.5-10.5-25.3-6.8-6.8-15.7-10.5-25.3-10.5-9.5 0-18.5 3.7-25.3 10.5l-4.2 4.2c-.7.7-1.7 1.1-2.7 1.1-1 0-2-.4-2.7-1.1l-4.2-4.2c-6.8-6.8-15.7-10.5-25.3-10.5-9.5 0-18.5 3.7-25.3 10.5-13.9 13.9-13.9 36.6 0 50.6l40.4 40.4c1.9 2 5.2 5.4 8.6 8 3.2 2.4 3.7 3.7 9.6 3.7 0 0 3 .2 6.9-3.1 3.5-3.8 10.9-10.3 19.8-19.3 1-1 1.8-1.9 2.5-2.8l27.2-26.9c6.8-6.8 10.5-15.7 10.5-25.3z" style="fill:#657c48"/></svg>