<svg xmlns="http://www.w3.org/2000/svg" xmlns:xlink="http://www.w3.org/1999/xlink" width="512" height="467" viewBox="0 0 253 231"><style>.st3{fill:#393939}</style><defs><path id="SVGID_1_" d="M36 9h179.3v215.3H36z"/></defs><clipPath id="SVGID_2_"><use xlink:href="#SVGID_1_" style="overflow:visible"/></clipPath><path d="M147.3 31.2c27.3 0 46.3 26.2 43.1 52.2-2.7 21.4-21.7 38.3-43.3 38.3h-25.6v24.9h25.6c30.1 0 56.9-20.4 65.4-49.2 2.6-8.9 3.5-18.4 2.3-27.7-.8-6.2-2.4-12.2-4.8-18-7.8-18.9-23.8-34.3-44-39.9-15.1-4.2-31.6-3.5-46.3 2.3-7.6 3-14.8 7.3-20.9 12.8-3.8 3.3-6.7 7.2-9.3 11.4H124c6.6-4.4 14.8-7.1 23.3-7.1zm0 0" style="clip-path:url(#SVGID_2_);fill:#7878d1"/><path d="M93.4 113.3V151c5.6 1.4 12.7 3.3 20.4 5.9v-43.6c30.3-4.5 54-29.1 57.4-59.7.5-4-2.7-7.5-6.7-7.5H42.8c-4.1 0-7.2 3.5-6.7 7.5 3.3 30.6 27 55.1 57.3 59.7zm0 0" style="clip-path:url(#SVGID_2_);fill:#bfbfbf"/><path d="M103.9 113.9c-4-.1-10.4-.6-10.5-.6.1 0-.1 0 0 0V151c5.6 1.4 12.7 3.3 20.4 5.9v-43.6c-3.4.2-6.5.6-9.9.6z" style="clip-path:url(#SVGID_2_);fill:#393939"/><path class="st3" d="M93.3 202.9c1.4 1.8 6.7 1.6 8.8 1.6 3.2 0 8.8.1 12-1.6-.1-.1-.3-.1-.4-.2V198c-7.2-3-14.3-4.6-20.4-6.3v11c-.1 0-.1.1-.2.1.1 0 .2.1.2.1z"/><path d="M85.5 146.7v-25c-16.3.7-26 14.1-26 30.6 0 10.5 5.6 20.6 14.6 26.1 4.3 2.7 9.3 3.7 14.1 5 22.1 5.5 44.6 14.9 62.1 29.8 2.4 2 5.2 3 8.1 3 3.5 0 7-1.5 9.5-4.3.3-.3.5-.7.8-1 .4-.6.7-1.2 1-1.8l.3-.6c.2-.5.4-1 .5-1.5 1.1-4.4-.2-9.3-4-12.5-15.4-13.2-33.7-22.6-52.7-29.2-5.9-2.1-11.9-3.9-18-5.5-2.2-.6-4.5-1.1-6.7-1.6-10.1-2.4-10.1-10.1-3.6-11.5zm0 0" style="fill:#7878d1"/><path d="M127 220.2c-1-5.9-4.2-11.1-8.7-14.7-.7-.6-1.5-1.1-2.3-1.6-.5-.3-1.7-1-2.3-1.2-7.3.2-13 0-20.4 0-.4.2-1.9.9-2.2 1.1-.8.5-1.6 1.1-2.3 1.7-4.5 3.6-7.7 8.8-8.7 14.7-.3 2.1 1.2 4 3.3 4h40.2c2.1-.1 3.7-2 3.4-4z" style="fill:#bfbfbf"/></svg>