<svg xmlns="http://www.w3.org/2000/svg" width="512" height="467" viewBox="0 0 253 231"><style>.st0{fill:#962a2a}</style><path class="st0" d="M230.5 57.4V17c0-4.6-3.6-7.3-8-5.9l-65.8 22.4c-3.5 1.1-6.4 5-6.4 8.7v14.3c26.8-.6 53.5-.2 80.2.9z"/><path d="M244 53.3H92.6c-4.9 0-7.7 3.8-6.3 8.5l23.9 70.1c1.2 3.8 5.4 6.8 9.3 6.8h99.3c4 0 8.1-3.1 9.3-6.8L249 60.1c1.3-3.8-1-6.8-5-6.8zm0 0" style="fill:#848484"/><path class="st0" d="M132.8 205.4c0 11.7-9.5 21.2-21.2 21.2s-21.2-9.5-21.2-21.2 9.5-21.2 21.2-21.2 21.2 9.5 21.2 21.2zM222.6 205.7c0 11.7-9.5 21.2-21.2 21.2s-21.2-9.5-21.2-21.2 9.5-21.2 21.2-21.2 21.2 9.5 21.2 21.2zm0 0"/><path d="M226.9 151.3H102.7L53 8.3H14.3c-6.6 0-12 5.4-12 12s5.4 12 12 12h21.6l49.7 143h141.3c6.6 0 12-5.4 12-12s-5.4-12-12-12zm0 0" style="fill:#393939"/></svg>