<svg xmlns="http://www.w3.org/2000/svg" width="512" height="467" viewBox="0 0 253 231"><circle cx="129.8" cy="118.7" r="62" style="fill:#0c4384"/><path d="M127.2 45.7c-38.6 0-70.1 31.6-70.1 70.1 0 38.6 31.6 70.1 70.1 70.1 38.6 0 70.1-31.6 70.1-70.1 0-38.5-31.5-70.1-70.1-70.1zm48.4 42.1h-20.3c-2.1-9.1-5.6-16.9-9.8-25.2 12.6 4.8 23.8 13.2 30.1 25.2zm-48.4-28.1c5.6 8.4 10.5 17.5 13.3 28h-26.7c2.9-9.8 7.8-19.6 13.4-28zm-54 70.2c-1.4-4.2-2.1-9.1-2.1-14s.7-9.8 2.1-14H97c-.7 4.9-.7 9.1-.7 14s.7 9.1.7 14H73.2zm5.6 14h20.3c2.1 9.1 5.6 16.9 9.8 25.2-12.6-4.9-23.8-13.3-30.1-25.2zm20.4-56.1H78.8c7-11.9 17.5-20.3 30.2-25.2-4.2 8.3-7.8 16.1-9.8 25.2zm28 84.1c-5.6-8.4-10.5-17.5-13.3-28h26.7c-2.9 9.8-7.8 19.6-13.4 28zm16.1-42H111c-.7-4.9-1.4-9.1-1.4-14s.7-9.1 1.4-14h33c.7 4.9 1.4 9.1 1.4 14 0 4.8-1.4 9-2.1 14zm2.1 39.2c4.2-7.7 7.7-16.1 9.8-25.2h20.3c-6.2 11.9-17.4 20.3-30.1 25.2zm12.7-39.2c.7-4.9.7-9.1.7-14s-.7-9.1-.7-14h23.8c1.4 4.2 2.1 9.1 2.1 14s-.7 9.8-2.1 14h-23.8zm0 0" style="fill:#bfbfbf"/><path d="M200 182.1c0-.2-.1-.4-.1-.7v-.1c0-.2-.1-.3-.1-.5l-.1-.2c-.1-.2-.1-.3-.2-.5 0 0 0-.1-.1-.2-.1-.2-.2-.3-.3-.5l-.1-.1c-.1-.2-.3-.4-.4-.6l-.2-.2c-.1-.1-.2-.2-.2-.3l-.1-.1-.1-.1c-.1-.1-.2-.2-.4-.3l-.2-.1c-.2-.1-.3-.2-.5-.3l-.2-.1c-.4-.2-.8-.4-1.3-.5h-.2c-.2 0-.3-.1-.6-.1H193c-.5.1-3 .3-16 1.8-1.6.2-3.1 1-4.1 2.3-1 1.3-1.5 2.9-1.3 4.5.2 1.6 1 3.1 2.3 4.1.4.3.7.5 1.1.7-35.1 23-81.9 18.6-112.1-11.6-16.9-16.9-26.2-39.3-26.2-63.2 0-3.4-2.8-6.2-6.2-6.2-3.4 0-6.2 2.8-6.2 6.2 0 27.2 10.6 52.7 29.8 71.9s44.8 29.8 71.9 29.8c20.7 0 40.3-6 57.1-17.5.5 2.1 2 4 4.3 4.6.6.2 1.1.2 1.7.2 2.7 0 5.1-1.8 5.9-4.4l4.5-15.3v-.1c.1-.2.1-.4.2-.7v-.2c0-.2 0-.3.1-.5v-.8l.2-.1zm-2.9 1zm0-.2z" style="fill:#848484"/><path d="M198.2 43.2C179 24 153.5 13.4 126.3 13.4c-20.7 0-40.3 6-57.1 17.5-.5-2.1-2-4-4.3-4.6-3.3-1-6.7.9-7.6 4.2l-4.5 15.4v.1c-.1.2-.1.4-.1.6V48.2c0 .2.1.5.1.7v.1c0 .2.1.3.2.5l.1.1c.1.2.1.3.2.5l.1.2c.1.2.2.3.3.5l.1.2c.1.2.3.4.4.5.1.1.1.2.2.2l.2.2.1.1.1.1.3.3c.1 0 .1.1.2.1.1.1.2.2.4.2.1 0 .1.1.2.1.1.1.2.1.4.2.1 0 .1.1.2.1.1.1.3.1.4.2.1 0 .1 0 .2.1.1 0 .3.1.4.1.1 0 .1 0 .2.1.1 0 .3.1.4.1h1.5c.4 0 2.7-.3 16-1.8 3.4-.4 5.8-3.4 5.4-6.8-.2-2.2-1.6-3.9-3.4-4.8 35.1-23 81.9-18.6 112.1 11.6 16.9 16.9 26.2 39.3 26.2 63.2 0 3.4 2.8 6.2 6.2 6.2 3.4 0 6.2-2.8 6.2-6.2-.3-27.2-10.9-52.7-30.1-71.9zM57.6 50.6z" style="fill:#393939"/></svg>