<svg xmlns="http://www.w3.org/2000/svg" xmlns:xlink="http://www.w3.org/1999/xlink" width="512" height="467" viewBox="0 0 253 231"><style>.st2{clip-path:url(#SVGID_4_);fill:#848484}</style><defs><path id="SVGID_1_" d="M18.7 10.4h220.8v215.1H18.7z"/></defs><clipPath id="SVGID_2_"><use xlink:href="#SVGID_1_" style="overflow:visible"/></clipPath><path d="M234.1 202.1 215 124.2c-1.4-5.3-6.7-8.6-11.9-7.6 0 0-38.2 7.6-39.2 7.6-7.2 13.4-14.8 26.3-22 38.2-3.4 5.3-9.1 8.6-15.3 8.6-6.2 0-11.9-3.3-15.3-8.6-11-18.2-22.9-39.2-32-58.8l-34.9 13.9c-2.9 1.4-5.3 3.8-6.2 7.2l-19.1 76.9c-1 3.3 0 7.2 2.9 10 2.4 2.4 6.2 3.3 10 2.4l54-14.3c1.9-.5 3.8-.5 5.7 0l69.3 22.5c1.4.5 2.9.5 4.8.5l59.7-7.7c2.9-.5 5.7-1.9 7.2-4.3 1.4-2.4 2.4-5.8 1.4-8.6zm0 0" style="clip-path:url(#SVGID_2_);fill:#393939"/><path d="M126.6 157.1c1.4 0 2.4-1 3.4-1.9 11-17.7 44.4-75 44.4-97 0-26.3-21.5-47.8-47.8-47.8-26.3 0-47.8 21.5-47.8 47.8 0 22 33.5 79.3 44.5 97 .9 1 2.3 1.9 3.3 1.9zm-23.4-99.4c0-12.4 10-23 22.9-23 12.4 0 22.9 10.1 22.9 23 0 12.4-10 22.9-22.9 22.9-12.9.1-22.9-10-22.9-22.9zm0 0" style="fill:#98bc00"/><defs><path id="SVGID_3_" d="M18.7 10.4h220.8v215.1H18.7z"/></defs><clipPath id="SVGID_4_"><use xlink:href="#SVGID_3_" style="overflow:visible"/></clipPath><path class="st2" d="M234.1 202.1 215 124.2c-1.4-5.3-6.7-8.6-11.9-7.6 0 0-13.7 2.7-25 4.9 7.2 32.3 13.9 64.6 21.4 96.8l26-3.3c2.9-.5 5.7-1.9 7.2-4.3 1.4-2.4 2.4-5.8 1.4-8.6z"/></svg>