<svg xmlns="http://www.w3.org/2000/svg" width="512" height="467" viewBox="0 0 253 231"><style>.st0{fill:#848484}.st1{fill:#393939}.st2{fill:#805a8e}</style><path class="st0" d="M105.2 204.5c-2-13.9-3.9-28.4-9.4-41.4l-.2.1-.1-.8c-.5-1.1-1-2.3-1.6-3.4-.8-1.6-.6-3.1.2-4.3L84.5 102c0-1.6-3.8-2.9-1-2.9l-34.5.3c-2.9.2-2.9 1.9-2.9 2.7v118.3c0 1.6 1.3 2.8 2.8 2.8h59.4c-1.3-6.2-2.2-12.4-3.1-18.7z"/><path class="st2" d="M203 132.3c-2.5-1.3-5.4-1.2-7.8.4l-40.8 27.2V139c0-2.8-1.6-5.4-4-6.7-2.5-1.3-5.5-1.2-7.8.4l-46.5 28.7C92 181.9 93.6 201 91 221.7c-.1.6-.2 1.1-.5 1.5h113.7c1.6 0 2.8-1.3 2.8-2.8V139c0-2.8-1.5-5.4-4-6.7zm-66.3 55.9c0 1.1-.9 2-2 2h-13.8c-1.1 0-2-.9-2-2v-13.8c0-1.1.9-2 2-2h13.8c1.1 0 2 .9 2 2v13.8zm51.7 0c0 1.1-.9 2-2 2h-13.8c-1.1 0-2-.9-2-2v-13.8c0-1.1.9-2 2-2h13.8c1.1 0 2 .9 2 2v13.8zM48.2 92h36c1.2 0 2.1-.8 2.1-2l-2.6-16.8c-.1-2.4-1.2-3.2-2.8-3.2H48.4c-1.7 0-2.3 1.3-2.3 3.1V90c0 1.2 1 2 2.1 2zm0 0"/><path class="st1" d="m97.3 161.6-10.2-59.5c0-1.6-1.2-2.9-2.7-2.9l-20.1.1 11.1 124h32.2l-10.3-61.7z"/><path class="st1" d="M97.3 161.6c0-.6-10.2-59.5-10.2-59.5"/><path class="st0" d="M65.4 21.2c-2.2-1.1-4.6-1.7-7.1-1.7-8.5 0-15.4 6.9-15.4 15.4s6.9 15.4 15.4 15.4H84c11.3 0 20.6-9.2 20.6-20.6S95.4 9.2 84.1 9.2c-8.2 0-15.4 4.9-18.7 12z"/><path d="M149.1 71.2c-2.2-1.1-4.6-1.7-7.1-1.7-8.5 0-15.4 6.9-15.4 15.4s6.9 15.4 15.4 15.4h25.7c11.3 0 20.6-9.2 20.6-20.6s-9.2-20.6-20.6-20.6c-8.1.1-15.3 5-18.6 12.1z" style="fill:#bfbfbf"/></svg>