<?xml version="1.0" encoding="utf-8" standalone="no"?>
<!DOCTYPE svg PUBLIC "-//W3C//DTD SVG 1.1//EN" "http://www.w3.org/Graphics/SVG/1.1/DTD/svg11.dtd">
<svg xmlns="http://www.w3.org/2000/svg" xmlns:xlink="http://www.w3.org/1999/xlink" version="1.1" width="1024" height="1024" viewBox="0 0 3200 3200" preserveAspectRatio="xMidYMid meet">
	<path fill="#333333" d="M1634.78 461.953h-29.348l-11.74.42-7.965 1.258-2.516.84h-.418l-.42-.84-.84-.418h-5.449c-4.61.418-9.642.418-14.252.84l-7.127.418-3.774.42-4.192.418-7.13.842c-8.381.84-16.768 1.68-25.152 2.098l-15.515 2.098-14.671 1.678a1157.258 1157.258 0 0 0-119.487 23.93c-75.882 20.143-147.155 47.423-211.718 81.002-31.864 16.786-62.05 34.413-89.718 52.46-26.833 17.21-52.827 36.1-77.984 56.244l-5.029 4.196-3.774 2.938-4.19 3.36-4.196 3.774-5.449 4.2-11.738 10.491-.418.42c-5.45 4.618-10.483 9.234-15.515 13.852-5.03 4.614-10.479 9.232-15.93 14.27-2.515 2.516-6.708 6.293-8.806 8.391l-.418.42-3.77 3.78 1.254 4.616c20.545 78.906 37.314 121.718 37.734 123.397l4.193 10.912 8.804-7.555c5.03-4.196 10.479-8.394 15.93-13.01 3.353-2.938 7.13-5.458 10.48-8.394l3.358-2.518 7.126-5.458 7.127-5.454.418-.42c2.096-1.684 4.61-3.36 6.708-5.46l7.548-5.454c4.19-2.938 8.383-6.297 12.993-9.235l2.518-1.68 5.869-3.774c3.354-2.52 6.708-4.618 10.482-7.138l5.869-4.196 2.098-1.678 3.77-2.516 4.61-2.942c20.964-13.85 44.443-27.7 71.695-42.39a950.426 951.481 0 0 1 167.698-70.932c31.027-9.653 62.887-17.627 94.333-23.505 33.118-6.292 66.238-10.91 99.36-13.43l15.929-.84 9.644-.418h3.355l21.379-1.68 2.938-.838h3.354l7.127.84 6.29.418 7.962.42h4.61v-2.098 2.098l6.71.42 12.998.42c2.934 0 6.29.42 9.642.42 5.45.418 10.901.418 16.351.84l12.16 1.256 13.834 1.26 12.997 1.258 12.576 2.1 14.253 2.098 11.32 1.68c30.607 5.88 66.663 13.852 100.62 25.185l12.581 4.194 5.865 2.098 5.872 2.098 24.734 9.234 5.87 2.098 5.87 2.52 12.16 5.46 12.156 5.454c3.774 1.678 7.546 3.358 11.319 5.456l12.58 6.296c11.317 5.455 22.638 11.33 33.538 18.049l11.739 6.714c1.258.84 2.514 1.26 3.774 2.098 2.516 1.258 4.61 2.518 7.127 4.196l11.318 7.136 10.483 6.716c1.258.84 2.512 1.678 4.192 2.518 2.516 1.26 4.61 2.938 6.708 4.196l10.901 7.557 6.287 4.196 14.674 10.492 11.741 8.816 8.805 6.714 10.06 7.977 6.29 5.034c1.258.84 2.096 2.098 3.35 2.938 6.71 5.458 13 10.914 19.708 16.788 3.77 3.358 7.964 7.136 11.739 10.492 2.516 2.098 4.61 4.2 7.126 6.72 2.934 2.936 6.29 5.874 9.22 8.81l4.615 4.196 4.192 4.2 6.708 6.715 10.901 10.91c42.763 43.651 83.43 94.436 120.743 150.679 31.444 47.427 60.792 98.634 86.365 152.357 2.096 4.614 4.193 8.812 6.289 13.43 3.776 7.975 7.126 15.11 10.48 22.665l5.87 13.432c3.357 7.552 6.289 14.69 9.225 21.823a464.191 464.191 0 0 1 8.385 21.826c1.678 4.194 2.936 7.976 4.61 12.17 3.776 9.235 6.708 18.05 10.064 27.283l1.678 5.036c14.671 40.295 24.316 75.127 34.375 110.384l2.518 10.073.418.84.42 2.097c.84 2.94 1.256 5.88 2.096 8.815l4.192 16.37.84 2.516 1.676 6.716.418 1.678c.838 2.94 1.258 5.88 1.676 8.4l2.513 10.907.842 3.78c3.77 17.628 5.87 26.862 5.87 26.862l1.258 6.294h90.557l.84-7.134c0-.84 2.51-19.308 2.933-24.342.42-3.782.84-8.818 1.26-15.53l.416-6.297.42-9.234.42-6.716v-2.938c0-2.098.418-4.198.418-6.294v-6.716l.42-3.356c.42-15.951 0-31.901 0-47.85h-.42l-.84-15.11-.838-12.59-.418-3.356-.84-11.756c-.42-3.774-.84-7.554-.84-10.912 0-1.68-.416-3.356-.416-5.034l-2.098-17.21-1.676-15.95c-.84-6.293-1.678-12.59-2.517-18.048l-2.932-18.046c-.42-2.098-.84-4.616-1.26-6.716-.418-3.776-1.258-7.976-2.094-12.17l-2.518-12.591c-.42-2.098-.836-4.618-1.256-6.716l-4.193-19.728-2.098-9.65v-.84c-.836-3.361-1.254-6.72-2.512-10.494l-3.354-19.729-5.872-22.244c-2.934-10.913-6.287-21.405-10.06-32.319l-3.773-11.332-1.258-4.614c-.84-2.098-1.26-4.618-2.096-6.72-1.258-3.773-2.518-7.551-4.196-10.91-.837-2.515-1.675-5.039-2.93-7.555-1.68-5.034-3.775-10.074-5.451-15.108-4.196-11.335-8.807-22.667-13.837-33.579-1.678-4.194-3.352-7.974-5.032-12.17-.84-2.098-1.674-4.196-2.93-6.298-2.52-5.874-5.033-11.751-7.549-17.205l-11.319-23.506c-5.45-11.752-12.158-23.923-18.029-35.255a175.401 175.401 0 0 0-6.708-12.172 1265.527 1265.527 0 0 0-59.953-95.274c-3.773-5.036-7.547-10.492-11.317-15.532-2.098-2.517-4.196-5.454-5.87-7.973-2.097-2.518-4.195-5.456-5.87-7.976-3.775-5.034-7.965-10.49-11.74-15.528l-6.288-7.554c-4.192-5.038-8.386-10.494-12.997-15.53l-5.87-7.135-3.77-4.194c-2.1-2.52-4.614-5.038-6.71-7.558-1.259-1.258-2.517-2.516-3.357-3.778l-14.67-15.95-5.871-6.714-5.03-5.457-5.45-5.454-3.771-3.78-7.548-7.134-7.549-7.554c-4.61-4.618-9.642-9.652-14.67-14.27l-5.455-4.62c-5.87-5.455-12.158-10.911-18.447-16.369-1.258-1.258-2.516-2.098-3.774-3.356-2.516-2.52-5.45-4.62-8.385-7.136l-12.578-10.074-7.125-5.874-17.609-13.855c-6.29-4.614-12.997-9.232-19.285-13.846l-6.708-5.04-12.997-9.232c-3.354-2.518-6.708-4.618-10.06-6.717l-3.777-2.516-19.285-11.754-8.383-5.456c-3.356-2.098-6.708-4.194-10.064-5.876-1.26-.84-2.932-1.678-4.19-2.516l-14.257-7.976c-16.347-9.234-33.956-17.21-50.727-25.183l-8.387-4.194c-5.03-2.52-10.478-4.618-15.51-6.72l-15.093-6.29-15.095-6.3c-.84-.418-1.676-.84-2.93-1.258-1.68-.84-3.359-1.258-5.035-2.098l-7.966-2.52c-4.19-1.258-7.965-2.516-12.157-4.194-16.77-5.46-33.542-11.335-51.147-15.53-38.992-10.915-81.335-18.889-129.548-25.185l-13.834-.84-20.126-1.678-15.93-1.258-15.932-.84-23.479-.838-9.22-.422z" />
	<path fill="#333333" d="M723.754 720.498h-84.687l-.84 6.714c0 .84-2.094 17.63-2.512 22.663-.422 4.2-.84 9.654-1.26 16.79l-.42 4.616c-.42 5.038-.42 10.074-.84 15.95v2.938c0 2.098-.414 4.197-.414 6.717v9.232c-.422 15.95.836 31.9.836 47.849h-.42l1.26 28.118v5.456l.42 9.235c.416 3.776.416 7.556.836 10.912 0 1.68.42 3.356.42 5.038.84 9.232 2.096 18.886 2.934 28.54l.42 4.617c.84 6.296 1.678 12.592 2.515 18.048l2.936 18.047c.42 2.098.84 4.616 1.26 6.714.414 3.776 1.256 7.976 2.092 12.172l2.518 12.594c.418 2.098.84 4.614 1.258 6.714v.84l4.19 18.885 1.677 7.136.84 2.938v.42c.84 3.356 1.258 6.716 2.516 10.494 2.512 9.232 5.03 19.307 7.544 28.96l3.354 12.591c2.935 10.912 6.29 21.406 10.063 32.317l3.774 11.334.418 1.678 2.936 9.234 2.096 5.456 2.095 5.454 2.516 7.557c1.68 5.036 3.774 10.074 5.45 15.108a578.35 578.35 0 0 0 13.837 34c1.678 4.195 3.352 7.975 5.032 12.17l2.512 6.293c2.515 5.88 5.033 11.754 7.967 17.63l5.032 10.074 6.288 13.431c5.45 11.752 12.157 23.922 18.027 35.255a176.228 176.228 0 0 0 6.707 12.17 1265.55 1265.55 0 0 0 59.953 95.275c3.77 5.036 7.545 10.495 11.32 15.53 2.097 2.517 4.193 5.455 5.868 7.975 2.098 2.518 4.196 5.458 5.872 7.976 3.77 5.036 7.964 10.49 12.157 15.53l6.29 7.551c4.192 5.038 8.382 10.494 12.995 15.53l2.936 3.358 6.706 7.976c2.098 2.516 4.61 5.034 6.709 7.554l3.774 3.778 17.19 18.467 3.351 3.776 5.032 5.458 5.45 5.456 6.289 6.294 4.61 4.618c2.517 2.52 5.034 5.04 7.549 7.136 5.03 4.617 9.64 9.653 15.093 14.27l5.032 4.195c5.866 5.458 12.157 10.914 18.445 16.37 1.26 1.26 2.936 2.52 4.194 3.776 2.513 2.098 5.03 4.62 7.965 6.72l7.546 6.293 5.03 3.778 7.129 5.454c5.868 4.62 11.74 9.654 18.025 14.272 6.29 4.618 12.16 8.816 18.449 13.43l7.546 5.46 12.997 9.231c3.352 2.098 6.709 4.618 10.06 6.296l3.773 2.516c9.226 5.88 18.45 11.336 27.672 17.21 3.354 2.1 6.708 3.778 10.062 5.878 1.68.84 2.934 1.678 4.61 2.516l14.255 7.975c16.351 9.234 33.958 17.63 50.733 25.184l8.38 3.776c5.033 2.52 10.065 4.616 15.514 6.716l15.095 6.294 15.09 6.297 2.518 1.259c1.675.84 3.353 1.26 5.03 2.098l7.965 2.52c4.195 1.257 8.387 2.935 12.577 4.195 16.351 5.458 33.542 11.334 51.147 15.53 38.99 10.912 81.337 18.89 129.55 25.183l32.282 2.938 15.93 1.258 15.932.84 28.931 1.258h24.314c3.354 0 7.128.422 10.482.422h26.832l.416-.42.84-.42 1.68-.42 3.35-.418 7.967-.42 6.288-.42 7.128-.42 3.355-.418 4.192-.42 6.708-.42c8.385-.84 17.187-1.68 25.572-2.52l2.936-.42 27.67-3.356a1157.271 1157.271 0 0 0 119.487-23.925c75.882-20.148 147.152-47.427 211.718-81.004 31.862-16.788 62.05-34.416 89.72-52.465 26.831-17.206 52.823-36.096 77.98-56.24l5.03-3.777 3.774-2.938 5.45-4.618 3.353-2.936 9.643-8.396 7.128-5.88 9.643-8.39 6.708-5.877c5.03-4.618 10.48-9.232 15.93-14.27 2.519-2.098 6.291-6.294 8.804-8.392l.841-.84 3.353-3.36-1.26-4.616c0-.42-13.415-54.144-38.15-123.397l-4.19-11.752-9.225 7.978s-.84.84-1.26.84a252.066 252.066 0 0 1-14.671 12.17l-13.837 11.331c-4.61 3.776-9.643 7.136-14.253 10.914l-4.612 3.356-2.516 2.098-5.033 3.78-2.096 1.676c-4.192 2.94-8.38 5.88-12.575 9.238l-2.936 2.096-7.546 5.038-8.807 5.875-4.61 2.937-3.354 2.518-2.516 1.678c-2.094 1.261-3.77 2.52-5.867 3.78-20.961 13.85-44.44 27.7-71.692 42.389a950.426 951.481 0 0 1-167.7 70.932c-31.022 9.654-62.884 17.628-94.327 23.505-32.702 6.296-66.242 10.914-99.362 13.43l-9.227.42-16.35.84-18.026.418h-41.508v.84-.84l-5.447-.42-12.58-.418c-3.352 0-6.289-.42-9.22-.42-5.451-.42-10.903-.42-15.934-.84l-2.516-.418c-7.964-.84-15.51-1.68-23.479-2.518l-12.995-1.258-12.577-2.1-5.032-.84-20.541-2.94c-32.284-6.293-66.658-13.85-100.622-25.183l-12.575-4.196-5.87-2.096-5.869-2.098-24.737-9.236-5.87-2.098-5.869-2.52-12.157-5.457-12.16-5.454c-4.19-1.678-7.965-3.36-11.319-5.456l-12.577-6.296c-11.318-5.456-23.059-11.332-33.541-18.05l-11.737-6.715c-1.258-.84-2.516-1.259-3.773-2.097-2.52-1.26-5.032-2.938-7.13-4.196l-6.706-4.196-15.513-9.655c-1.258-.84-2.514-1.68-4.192-2.518-2.515-1.26-4.61-2.938-6.709-4.198l-10.899-7.556-20.96-14.69-10.901-8.392-9.225-7.137-10.062-7.976c-1.68-1.676-3.77-3.356-5.869-5.034-1.26-1.258-2.518-2.098-3.774-3.36l-5.868-5.036-13.837-11.75c-3.774-3.36-7.967-7.135-11.737-10.492-2.098-2.098-4.61-4.2-7.13-6.297l-9.22-8.814-4.615-4.196-4.192-4.2-5.45-5.454-12.157-12.17c-42.763-43.655-83.431-94.438-120.743-150.679-29.346-44.49-58.696-95.695-84.27-149.42l-6.29-13.85c-3.77-7.976-7.124-15.11-10.478-22.664l-10.901-25.601-4.192-9.654c-2.936-7.136-5.87-14.27-8.387-21.407-1.678-4.194-3.354-8.392-4.61-12.59-3.772-9.232-6.708-18.05-10.06-26.863l-1.68-5.454c-14.672-40.294-24.314-75.129-34.379-110.386-1.256-3.776-2.096-7.134-2.514-10.074v-.836l-1.678-7.556-.84-2.938-2.094-8.396-2.516-10.491-.838-3.776-1.258-4.618-1.258-6.298-.42-2.098-1.677-7.134-1.678-7.556c-3.77-17.207-5.03-24.343-5.03-24.343l-1.258-5.874h-8.385z" />
	<path fill="#DD0047" d="M1906.032 1270.74c16.35-39.034 25.157-81.844 25.157-126.75 0-45.334-9.224-88.563-25.575-128.016l-220.103 128.851zm-264.126-197.685 221.363-129.692c-52.825-68.832-132.481-115.84-223.039-126.753Zm-345.04-53.303c-15.51 38.193-24.317 80.164-24.317 124.235 0 46.167 9.646 89.818 26.419 129.688l218.423-128.01zm345.882 197.266 1.258 253.925c89.72-11.332 167.698-58.76 220.103-127.592zm-83.849 1.678-217.172 127.171c52.407 67.155 129.967 113.744 218.428 125.076zm-.84-146.48-1.258-254.764c-89.297 12.17-166.86 60.435-218.427 129.27z" />
	<path fill="#333333" d="M521.169 2676.93v-99h-273v-586h-111v685zM598.778 2676.93h109v-500h-109zm0-585h109v-115h-109zM948.013 2676.93v-388s55-26 113-26c76 0 89 49 89 149v265h108v-268c0-164-34-243-173-243-65 0-138 42-138 42v-31h-108v500zM1572.888 2165.93c-149 0-209 75-209 254 0 192 53 268 207 268 51 0 152-18 152-18l-3-87s-79 8-117 8c-108 0-129-43-129-171 0-115 24-157 128-157 38 0 117 8 117 8l4-86s-97-19-150-19zM2021.434 2592.93c-83 0-113-40-114-120h310l7-78c0-156-70-229-210-229-138 0-217 83-217 266 0 176 58 256 208 256 88 0 202-23 202-23l-2-81s-105 9-184 9zm-115-204c1-96 34-133 108-133 73 0 103 33 103 133zM2342.247 1991.93v685h268c133 0 218-54 218-194 0-94-39-136-98-159 55-30 81-71 81-154 0-127-73-178-209-178zm260 386c54 0 112 21 112 99 0 82-41 104-110 104h-151v-203zm-6-290c68 0 102 29 102 95 0 67-30 101-98 101h-147v-196zM2953.575 2676.93h111v-685h-111z" />
</svg>
