<?xml version="1.0" encoding="utf-8" standalone="no"?>
<!DOCTYPE svg PUBLIC "-//W3C//DTD SVG 1.1//EN" "http://www.w3.org/Graphics/SVG/1.1/DTD/svg11.dtd">
<svg xmlns="http://www.w3.org/2000/svg" xmlns:xlink="http://www.w3.org/1999/xlink" version="1.1"
	width="1468" height="384" viewBox="0 0 4590 1200" preserveAspectRatio="xMidYMid meet">
	<title>LinceBI logo</title>
	<g id="logo">
		<path fill="#333333" d="M719.167 234.113h-15.723l-6.29.225-4.267.674-1.348.45h-.224l-.225-.45-.45-.224h-2.919c-2.47.224-5.166.224-7.636.45l-3.818.224-2.022.225-2.246.224-3.82.451c-4.49.45-8.983.9-13.475 1.124l-8.312 1.124-7.86.899a620 620 0 0 0-64.015 12.82c-40.654 10.792-78.838 25.407-113.428 43.397-17.071 8.993-33.243 18.437-48.066 28.106-14.376 9.22-28.302 19.34-41.78 30.132l-2.694 2.248-2.022 1.574-2.245 1.8-2.248 2.022-2.919 2.25-6.289 5.621-.224.225c-2.92 2.474-5.616 4.947-8.312 7.421-2.695 2.472-5.614 4.946-8.534 7.645-1.348 1.348-3.594 3.372-4.718 4.496l-.224.225-2.02 2.025.672 2.473c11.007 42.274 19.991 65.21 20.216 66.11l2.246 5.846 4.717-4.048c2.695-2.248 5.614-4.497 8.534-6.97 1.797-1.574 3.82-2.924 5.615-4.497l1.799-1.349 3.818-2.924 3.818-2.922.224-.225c1.123-.902 2.47-1.8 3.594-2.925l4.044-2.922c2.245-1.574 4.491-3.374 6.961-4.948l1.349-.9 3.144-2.022c1.797-1.35 3.594-2.474 5.616-3.824l3.144-2.248 1.124-.899 2.02-1.348 2.47-1.576c11.231-7.42 23.81-14.84 38.41-22.71a509.19 509.755 0 0 1 89.844-38.002c16.623-5.172 33.692-9.444 50.539-12.593 17.743-3.371 35.487-5.845 53.232-7.195l8.534-.45 5.167-.224h1.797l11.454-.9 1.574-.449h1.797l3.818.45 3.37.224 4.266.225h2.47v-1.124 1.124l3.594.225 6.964.225c1.572 0 3.37.225 5.166.225 2.92.224 5.84.224 8.76.45l6.514.673 7.412.675 6.963.674 6.738 1.125 7.636 1.124 6.064.9c16.398 3.15 35.715 7.421 53.908 13.493l6.74 2.247 3.142 1.124 3.146 1.124 13.251 4.947 3.145 1.124 3.145 1.35 6.514 2.925 6.513 2.922c2.022.899 4.043 1.799 6.064 2.923l6.74 3.373c6.063 2.923 12.128 6.07 17.968 9.67l6.289 3.597c.674.45 1.347.675 2.022 1.124 1.348.674 2.47 1.349 3.818 2.248l6.064 3.823 5.616 3.598c.674.45 1.346.899 2.246 1.349 1.348.675 2.47 1.574 3.594 2.248l5.84 4.049 3.368 2.248 7.862 5.621 6.29 4.723 4.717 3.597 5.39 4.274 3.37 2.697c.674.45 1.123 1.124 1.795 1.574 3.594 2.924 6.964 5.847 10.558 8.994 2.02 1.799 4.267 3.823 6.289 5.621 1.348 1.124 2.47 2.25 3.818 3.6 1.572 1.573 3.37 3.147 4.94 4.72l2.472 2.248 2.246 2.25 3.594 3.598 5.84 5.845c22.91 23.386 44.697 50.594 64.688 80.726 16.846 25.409 32.569 52.843 46.27 81.625 1.123 2.472 2.246 4.721 3.369 7.195 2.023 4.273 3.818 8.095 5.615 12.143l3.145 7.196c1.798 4.046 3.369 7.87 4.942 11.692a248.69 248.69 0 0 1 4.492 11.693c.899 2.247 1.573 4.273 2.47 6.52 2.023 4.948 3.594 9.67 5.392 14.617l.899 2.698c7.86 21.588 13.027 40.249 18.416 59.138l1.349 5.397.224.45.225 1.123c.45 1.575.673 3.15 1.123 4.723l2.246 8.77.45 1.348.898 3.598.224.899c.449 1.575.674 3.15.898 4.5l1.346 5.844.451 2.025c2.02 9.444 3.145 14.391 3.145 14.391l.674 3.372h48.516l.45-3.822c0-.45 1.345-10.344 1.571-13.041.225-2.026.45-4.724.675-8.32l.223-3.374.225-4.947.225-3.598v-1.574c0-1.124.224-2.249.224-3.372v-3.598l.225-1.798c.225-8.546 0-17.091 0-25.636h-.225l-.45-8.095-.449-6.745-.224-1.798-.45-6.298c-.225-2.022-.45-4.047-.45-5.846 0-.9-.223-1.798-.223-2.697l-1.124-9.22-.898-8.546c-.45-3.371-.899-6.745-1.348-9.669l-1.571-9.668c-.225-1.124-.45-2.473-.675-3.598-.224-2.023-.674-4.273-1.122-6.52l-1.349-6.746c-.225-1.124-.448-2.474-.673-3.598l-2.246-10.569-1.124-5.17v-.45c-.448-1.801-.672-3.6-1.346-5.622l-1.797-10.57-3.146-11.917c-1.572-5.847-3.368-11.468-5.39-17.315l-2.021-6.071-.674-2.472c-.45-1.124-.675-2.474-1.123-3.6-.674-2.022-1.349-4.046-2.248-5.845-.448-1.348-.897-2.7-1.57-4.048-.9-2.697-2.022-5.397-2.92-8.094-2.248-6.073-4.718-12.144-7.413-17.99-.899-2.247-1.796-4.272-2.696-6.52-.45-1.124-.897-2.248-1.57-3.374-1.35-3.147-2.696-6.296-4.044-9.218l-6.064-12.593c-2.92-6.296-6.514-12.817-9.659-18.888a93.971 93.971 0 0 0-3.594-6.521 678.005 678.005 0 0 0-32.12-51.043c-2.021-2.698-4.043-5.621-6.063-8.321-1.124-1.349-2.248-2.922-3.145-4.272-1.123-1.349-2.247-2.923-3.145-4.273-2.022-2.697-4.267-5.62-6.289-8.319l-3.369-4.047c-2.246-2.699-4.493-5.622-6.963-8.32l-3.145-3.823-2.02-2.247c-1.125-1.35-2.472-2.699-3.595-4.049-.674-.674-1.348-1.348-1.798-2.024l-7.86-8.545-3.145-3.597-2.695-2.924-2.92-2.922-2.02-2.025-4.044-3.822-4.044-4.047c-2.47-2.474-5.166-5.171-7.86-7.645l-2.922-2.475c-3.145-2.923-6.514-5.846-9.883-8.77-.674-.674-1.348-1.124-2.022-1.798-1.348-1.35-2.92-2.475-4.492-3.823l-6.739-5.397-3.817-3.147-9.434-7.423c-3.37-2.472-6.963-4.946-10.332-7.418l-3.594-2.7-6.963-4.946c-1.797-1.349-3.594-2.474-5.39-3.599l-2.023-1.348-10.332-6.297-4.491-2.923c-1.798-1.124-3.594-2.247-5.392-3.148-.675-.45-1.571-.899-2.245-1.348l-7.638-4.273c-8.758-4.947-18.192-9.22-27.177-13.492l-4.493-2.247c-2.695-1.35-5.614-2.474-8.31-3.6l-8.086-3.37-8.087-3.375c-.45-.224-.898-.45-1.57-.674-.9-.45-1.799-.674-2.697-1.124l-4.268-1.35c-2.245-.674-4.267-1.348-6.513-2.247-8.985-2.925-17.97-6.073-27.402-8.32-20.89-5.848-43.575-10.12-69.405-13.493l-7.412-.45-10.782-.899-8.535-.674-8.535-.45-12.579-.449-4.94-.226z" />
		<path fill="#333333" d="M231.086 372.628h-45.371l-.45 3.597c0 .45-1.122 9.445-1.346 12.142-.226 2.25-.45 5.172-.675 8.995l-.225 2.473c-.225 2.699-.225 5.397-.45 8.545v1.574c0 1.124-.222 2.249-.222 3.599v4.946c-.226 8.545.448 17.09.448 25.635h-.225l.675 15.064v2.923l.225 4.948c.223 2.023.223 4.048.448 5.846 0 .9.225 1.798.225 2.699.45 4.946 1.123 10.118 1.572 15.29l.225 2.474c.45 3.373.899 6.746 1.347 9.669l1.573 9.669c.225 1.124.45 2.473.675 3.597.222 2.023.673 4.273 1.121 6.521l1.349 6.747c.224 1.124.45 2.472.674 3.597v.45l2.245 10.118.898 3.823.45 1.574v.225c.45 1.798.674 3.598 1.348 5.622 1.346 4.946 2.695 10.344 4.042 15.515l1.797 6.746c1.572 5.846 3.37 11.468 5.391 17.314l2.022 6.072.224.899 1.573 4.947 1.123 2.923 1.122 2.922 1.348 4.049c.9 2.698 2.022 5.397 2.92 8.094a309.85 309.85 0 0 0 7.413 18.215c.899 2.248 1.796 4.273 2.696 6.52l1.346 3.372c1.347 3.15 2.696 6.297 4.268 9.445l2.696 5.397 3.369 7.196c2.92 6.296 6.513 12.816 9.658 18.888a94.414 94.414 0 0 0 3.593 6.52 678.017 678.017 0 0 0 32.12 51.043c2.02 2.698 4.042 5.623 6.064 8.32 1.124 1.349 2.247 2.923 3.144 4.273 1.124 1.349 2.248 2.924 3.146 4.273 2.02 2.698 4.267 5.62 6.513 8.32l3.37 4.046c2.246 2.699 4.491 5.622 6.962 8.32l1.573 1.799 3.593 4.273c1.124 1.348 2.47 2.697 3.594 4.047l2.022 2.024 9.21 9.894 1.795 2.023 2.696 2.924 2.92 2.923 3.369 3.372 2.47 2.474c1.348 1.35 2.697 2.7 4.044 3.823 2.695 2.474 5.165 5.172 8.086 7.645l2.696 2.248c3.143 2.924 6.513 5.847 9.882 8.77.675.675 1.573 1.35 2.247 2.023 1.346 1.124 2.695 2.475 4.267 3.6l4.043 3.372 2.695 2.024 3.819 2.922c3.144 2.475 6.29 5.172 9.657 7.646 3.37 2.474 6.515 4.723 9.884 7.195l4.043 2.925 6.963 4.946c1.796 1.124 3.594 2.474 5.39 3.373l2.021 1.348c4.943 3.15 9.884 6.073 14.825 9.22 1.797 1.125 3.594 2.024 5.391 3.149.9.45 1.572.899 2.47 1.348l7.637 4.273c8.76 4.947 18.193 9.445 27.18 13.492l4.49 2.023c2.696 1.35 5.392 2.473 8.311 3.598l8.087 3.372 8.085 3.374 1.349.674c.897.45 1.796.675 2.695 1.124l4.267 1.35c2.247.674 4.493 1.573 6.738 2.248 8.76 2.924 17.97 6.072 27.402 8.32 20.889 5.846 43.576 10.12 69.406 13.492l17.295 1.574 8.535.674 8.535.45 15.5.674h13.026c1.797 0 3.819.226 5.616.226h14.375l.223-.225.45-.225.9-.225 1.795-.224 4.268-.225 3.369-.225 3.819-.225 1.797-.224 2.246-.225 3.594-.225c4.492-.45 9.208-.9 13.7-1.35l1.573-.225 14.824-1.798a620.007 620.007 0 0 0 64.015-12.818c40.654-10.794 78.837-25.409 113.428-43.398 17.07-8.994 33.243-18.438 48.067-28.108 14.375-9.218 28.3-19.338 41.778-30.13l2.695-2.024 2.022-1.574 2.92-2.474 1.796-1.573 5.166-4.498 3.819-3.15 5.166-4.495 3.594-3.149c2.695-2.474 5.615-4.946 8.534-7.645 1.35-1.124 3.371-3.372 4.717-4.496l.451-.45 1.796-1.8-.675-2.473c0-.225-7.187-29.008-20.439-66.11l-2.245-6.296-4.942 4.274s-.45.45-.675.45a135.044 135.044 0 0 1-7.86 6.52l-7.413 6.071c-2.47 2.023-5.166 3.823-7.636 5.847l-2.471 1.798-1.348 1.124-2.696 2.025-1.123.898c-2.246 1.575-4.49 3.15-6.737 4.949l-1.573 1.123-4.043 2.699-4.718 3.148-2.47 1.573-1.797 1.349-1.348.899c-1.122.676-2.02 1.35-3.143 2.025-11.23 7.42-23.809 14.841-38.409 22.71a509.19 509.755 0 0 1-89.845 38.002c-16.62 5.172-33.69 9.444-50.536 12.593-17.52 3.373-35.489 5.847-53.233 7.195l-4.943.225-8.76.45-9.657.224h-22.238v.45-.45l-2.918-.225-6.74-.224c-1.796 0-3.369-.225-4.94-.225-2.92-.225-5.841-.225-8.536-.45l-1.348-.224c-4.267-.45-8.31-.9-12.579-1.349l-6.962-.674-6.738-1.125-2.696-.45-11.005-1.575c-17.296-3.372-35.712-7.42-53.908-13.492l-6.737-2.248-3.145-1.123-3.144-1.124-13.253-4.948-3.145-1.124-3.144-1.35-6.513-2.924-6.515-2.922c-2.245-.899-4.267-1.8-6.064-2.923l-6.738-3.373c-6.064-2.923-12.354-6.071-17.97-9.67l-6.288-3.598c-.674-.45-1.348-.674-2.021-1.123-1.35-.675-2.696-1.574-3.82-2.248l-3.593-2.248-8.311-5.173c-.674-.45-1.347-.9-2.246-1.349-1.347-.675-2.47-1.574-3.594-2.249l-5.839-4.048-11.23-7.87-5.84-4.496-4.942-3.824-5.391-4.273c-.9-.898-2.02-1.798-3.144-2.697-.675-.674-1.349-1.124-2.022-1.8l-3.144-2.698-7.413-6.295c-2.022-1.8-4.268-3.823-6.288-5.621-1.124-1.124-2.47-2.25-3.82-3.374l-4.94-4.722-2.472-2.248-2.246-2.25-2.92-2.922-6.513-6.52c-22.91-23.388-44.698-50.595-64.688-80.726-15.722-23.836-31.446-51.269-45.147-80.052l-3.37-7.42c-2.02-4.273-3.817-8.095-5.614-12.142l-5.84-13.716-2.246-5.172c-1.573-3.823-3.145-7.645-4.493-11.469-.899-2.247-1.797-4.496-2.47-6.745-2.021-4.946-3.594-9.67-5.39-14.392l-.9-2.922c-7.86-21.587-13.026-40.25-18.418-59.139-.673-2.023-1.123-3.822-1.347-5.397v-.448l-.899-4.048-.45-1.574-1.122-4.498-1.348-5.621-.449-2.023-.674-2.474-.674-3.374-.225-1.124-.898-3.822-.899-4.048c-2.02-9.219-2.695-13.042-2.695-13.042l-.674-3.147h-4.492z" />
		<path fill="#DD0047" d="M864.49 667.42c8.76-20.913 13.478-43.848 13.478-67.907 0-24.287-4.942-47.447-13.702-68.584l-117.92 69.032zM722.985 561.51l118.595-69.482c-28.301-36.877-70.977-62.061-119.493-67.908zM538.13 532.953c-8.31 20.462-13.028 42.948-13.028 66.559 0 24.734 5.168 48.12 14.154 69.48l117.02-68.581zm185.306 105.685l.674 136.04c48.067-6.071 89.844-31.48 117.92-68.357zm-44.922.899l-116.35 68.132c28.077 35.978 69.63 60.938 117.023 67.009zm-.45-78.476l-.674-136.49c-47.841 6.52-89.395 32.378-117.022 69.256z" />
	</g>
	<g id="text">
		<!--<text id="label" fill="#333333" font-family="Titillium" font-size="1000" font-weight="600" x="1400" y="950">LinceBI</text>-->
		<path fill="#333333" d="M 1863,950 V 851 H 1590 V 265 h -111 v 685 z" />
		<path fill="#333333" d="m 1940.6094,950 h 109 V 450 h -109 z m 0,-585 h 109 V 250 h -109 z" />
		<path fill="#333333" d="M 2289.8438,950 V 562 c 0,0 55,-26 113,-26 76,0 89,49 89,149 v 265 h 108 V 682 c 0,-164 -34,-243 -173,-243 -65,0 -138,42 -138,42 v -31 h -108 v 500 z" />
		<path fill="#333333" d="m 2914.7188,439 c -149,0 -209,75 -209,254 0,192 53,268 207,268 51,0 152,-18 152,-18 l -3,-87 c 0,0 -79,8 -117,8 -108,0 -129,-43 -129,-171 0,-115 24,-157 128,-157 38,0 117,8 117,8 l 4,-86 c 0,0 -97,-19 -150,-19 z" />
		<path fill="#333333" d="m 3363.2656,866 c -83,0 -113,-40 -114,-120 h 310 l 7,-78 c 0,-156 -70,-229 -210,-229 -138,0 -217,83 -217,266 0,176 58,256 208,256 88,0 202,-23 202,-23 l -2,-81 c 0,0 -105,9 -184,9 z m -115,-204 c 1,-96 34,-133 108,-133 73,0 103,33 103,133 z" />
		<path fill="#333333" d="m 3684.0781,265 v 685 h 268 c 133,0 218,-54 218,-194 0,-94 -39,-136 -98,-159 55,-30 81,-71 81,-154 0,-127 -73,-178 -209,-178 z m 260,386 c 54,0 112,21 112,99 0,82 -41,104 -110,104 h -151 V 651 Z m -6,-290 c 68,0 102,29 102,95 0,67 -30,101 -98,101 h -147 V 361 Z" />
		<path fill="#333333" d="m 4295.4062,950 h 111 V 265 h -111 z" />
	</g>
</svg>
