<?xml version="1.0" encoding="utf-8" standalone="no"?>
<!DOCTYPE svg PUBLIC "-//W3C//DTD SVG 1.1//EN" "http://www.w3.org/Graphics/SVG/1.1/DTD/svg11.dtd">
<svg xmlns="http://www.w3.org/2000/svg" xmlns:xlink="http://www.w3.org/1999/xlink" version="1.1"
	width="1127.53" height="384" viewBox="0 0 262.27 89.32" preserveAspectRatio="xMidYMid meet">
	<title>Stratebi logo (with tagline)</title>
	<g id="logo">
		<path fill="#7a9834" d="m 262.26,0.09 -1.1,-0.06 -0.65,0 -5.08,0 q -22.34,0 -44.68,0 a 13.73,13.73 0 0 0 -2.93,0.3 19.5,19.5 0 0 0 -11.07,6.62 19,19 0 0 0 -4.65,12.26 c 0,6.93 0,13.86 0,20.79 q 0,5.51 0,11 a 17.46,17.46 0 0 0 0.75,4.86 19.52,19.52 0 0 0 6.17,9.69 18.3,18.3 0 0 0 11.89,4.63 c 4.6,0 9.23,0 13.85,0 l 16.26,0 2.39,0 a 14.32,14.32 0 0 0 3,-0.3 19.59,19.59 0 0 0 10.69,-6.14 19.14,19.14 0 0 0 5.12,-13 q 0,-17.67 0,-35.34 z m -19.62,25.46 8.11,0 a 8.7,8.7 0 0 1 0.11,1 q 0,16.9 0,33.8 c 0,0.29 0,0.57 -0.05,1 -2.77,0.13 -5.48,0.05 -8.15,0 -0.33,-1.02 -0.29,-35.04 -0.02,-35.8 z m 4,-5.35 a 5.61,5.61 0 1 1 0,-11.22 5.61,5.61 0 0 1 0,11.22 z m -38.66,39.19 a 18.46,18.46 0 0 1 -5.92,-5.75 15.71,15.71 0 0 1 -2.48,-6.09 16.2,16.2 0 0 1 -0.35,-5.56 5.54,5.54 0 0 0 0,-1 l 0,-31.22 7.13,0 c 0.15,1.66 0,3.31 0.07,5 0.07,1.69 0,3.27 0,4.91 l 0,10 1.45,-0.93 a 18.4,18.4 0 0 1 21.45,1.73 17.21,17.21 0 0 1 5.56,8.52 17.79,17.79 0 0 1 0.54,7.86 17.41,17.41 0 0 1 -5.92,10.69 18.47,18.47 0 0 1 -21.53,1.87 z" />
		<path fill="#7a9834" d="m 228.75,44.46 a 14.7,14.7 0 0 1 -1.14,6.09 c -1.51,3.7 -4,6.39 -8.05,7.23 a 9.77,9.77 0 0 1 -9.91,-3.37 14.83,14.83 0 0 1 -3.4,-11.86 14.48,14.48 0 0 1 3,-7.62 10.23,10.23 0 0 1 7.74,-4.08 9.76,9.76 0 0 1 7.41,2.8 c 3.12,2.95 4.28,6.66 4.35,10.81 z" />
	</g>
	<g id="text">
		<g id="stratebi">
			<path fill="#212121" d="m 2.39,34.45 a 16.54,16.54 0 0 1 7.48,-4.32 18,18 0 0 1 5.52,-0.51 18.57,18.57 0 0 1 8.16,2.56 2.36,2.36 0 0 1 1.27,2.64 c -0.08,0.54 -0.15,1.07 -0.24,1.74 -0.67,-0.17 -1.22,-0.29 -1.77,-0.45 -2.51,-0.72 -5,-1.56 -7.54,-2.16 a 8.52,8.52 0 0 0 -6.9,1.42 3.43,3.43 0 0 0 -0.62,5.27 10.16,10.16 0 0 0 3.72,2.55 c 2.43,1.12 4.88,2.19 7.32,3.29 a 13.82,13.82 0 0 1 4.7,3.13 8.5,8.5 0 0 1 2.26,5.55 9.72,9.72 0 0 1 -1.67,6.12 10.49,10.49 0 0 1 -4.57,3.56 16.9,16.9 0 0 1 -4.76,1.34 23.23,23.23 0 0 1 -5.3,0.13 C 7.22,66.07 5.03,65.65 2.83,65.21 A 4.5,4.5 0 0 1 1.65,64.91 1.58,1.58 0 0 1 1,64.18 C 0.63,63.33 0.32,62.45 0,61.58 l 0,-1.75 a 6.31,6.31 0 0 1 1.11,0.43 15.47,15.47 0 0 0 8.33,2.34 20.08,20.08 0 0 0 4.24,-0.35 9.32,9.32 0 0 0 3.46,-1.33 c 2.11,-1.45 2.93,-5.4 0.35,-7.43 A 12.48,12.48 0 0 0 14.38,51.74 C 12.2,50.86 9.97,50.11 7.82,49.18 A 14.09,14.09 0 0 1 0.49,42.49 c -0.13,-0.25 -1.47,-5.06 1.9,-8.04 z" />
			<path fill="#212121" d="m 46.75,34.63 c 0,10.36 0,20.62 0,30.92 l -8.06,0 c 0,-1.75 0,-3.46 0,-5.17 0,-1.71 0,-3.39 0,-5.08 l 0,-20.6 c -1.35,-0.1 -2.65,0 -3.95,0 -1.3,0 -2.62,0 -4,0 a 29.86,29.86 0 0 1 -0.05,-4.33 c 0.39,0 0.72,-0.1 1.05,-0.1 l 6.72,0 c 0,-0.47 0.07,-0.84 0.07,-1.21 q 0,-7.4 0,-14.81 l 0,-1 a 43.94,43.94 0 0 1 7.87,-0.1 c 0,0.34 0.08,0.7 0.08,1.06 q 0,7.4 0,14.81 l 0,1.17 7.81,0 0,4.36 c -2.54,0.11 -5.01,0 -7.54,0.08 z" />
			<path fill="#212121" d="m 83.59,30.55 0,3.5 c -0.31,0 -0.59,0.08 -0.87,0.08 -1.11,0 -2.22,0 -3.33,0 a 11.89,11.89 0 0 0 -7,2.32 10.3,10.3 0 0 0 -3.84,6.66 18.3,18.3 0 0 0 -0.23,3.44 c 0,2.1 -0.1,4.2 -0.09,6.3 0,3.82 0.07,7.64 0.11,11.46 0,0.34 0,0.68 -0.06,1.16 -2.59,0 -5.1,0 -7.66,0 A 6.81,6.81 0 0 1 60.5,64.68 c -0.07,-2.74 -0.16,-5.48 -0.19,-8.22 0,-2.54 0,-5.08 0,-7.62 0,-0.87 0.1,-1.75 0.19,-2.62 0.14,-1.36 0.23,-2.73 0.5,-4.07 a 12.43,12.43 0 0 1 4.09,-6.87 18.82,18.82 0 0 1 6.08,-3.54 22.59,22.59 0 0 1 6.21,-1.33 c 1.94,-0.15 3.91,0 5.86,0 a 1.56,1.56 0 0 1 0.35,0.14 z" />
			<path fill="#212121" d="m 122.01,65.68 a 34.35,34.35 0 0 1 -8.17,-0.07 c 0,-0.4 -0.1,-0.71 -0.1,-1 q 0,-1.8 0,-3.59 c 0,-0.44 -0.1,-0.75 -0.65,-0.74 -0.59,0.77 -1.14,1.58 -1.79,2.32 a 9.39,9.39 0 0 1 -4.61,2.87 13.93,13.93 0 0 1 -5.79,0.31 26.8,26.8 0 0 1 -4.93,-1 12.82,12.82 0 0 1 -8.6,-8.95 20,20 0 0 1 -0.81,-5 c 0,-0.79 -0.16,-1.57 -0.15,-2.35 a 30,30 0 0 1 0.74,-7.2 12.93,12.93 0 0 1 8.39,-9.57 21.57,21.57 0 0 1 6.84,-1.16 39.4,39.4 0 0 1 5.07,0.17 16.07,16.07 0 0 1 9.57,3.78 12.68,12.68 0 0 1 3.73,6.2 28.93,28.93 0 0 1 0.75,5.79 c 0,0.55 0.09,1.1 0.12,1.66 0.08,2 0.17,4 0.23,6 0.1,3.73 0.18,7.46 0.26,11.19 a 1.31,1.31 0 0 1 -0.1,0.34 z m -27.73,-17 a 25.06,25.06 0 0 0 0.47,5.87 c 0.54,2.82 1.89,5.06 4.66,6.21 a 8.68,8.68 0 0 0 3.34,0.79 13.6,13.6 0 0 0 3.54,-0.23 7.91,7.91 0 0 0 5.27,-4.24 22.57,22.57 0 0 0 1.41,-3.57 18.19,18.19 0 0 0 0.89,-5.4 25.09,25.09 0 0 0 -0.22,-3.74 22.32,22.32 0 0 0 -1.31,-5.14 6.74,6.74 0 0 0 -3,-3.39 9.78,9.78 0 0 0 -4.43,-1.11 17.75,17.75 0 0 0 -3.73,0.26 6.74,6.74 0 0 0 -5.08,3.47 11.53,11.53 0 0 0 -1.08,3.21 27.67,27.67 0 0 0 -0.73,7.01 z" />
			<path fill="#212121" d="m 140.64,65.69 -7.89,0 c -0.11,-1.77 0,-3.48 -0.05,-5.19 -0.05,-1.71 0,-3.45 0,-5.17 l 0,-20.85 -7.82,0 a 10.77,10.77 0 0 1 -0.15,-4 13.7,13.7 0 0 1 1.38,-0.2 c 1.83,-0.09 3.67,-0.16 5.51,-0.24 0.26,0 0.51,-0.06 0.89,-0.11 l 0,-16.72 a 45.17,45.17 0 0 1 7.93,-0.06 c 0.09,1.05 0,2.15 0,3.25 0,1.1 0,2.22 0,3.33 l 0,10.05 c 0.71,0.07 1.37,0.17 2,0.2 1.75,0.09 3.5,0.16 5.24,0.23 0.8,0 0.86,0.09 0.92,0.92 0,0.67 0.12,1.33 0.17,2 0,0.37 0,0.74 0,1.2 l -8.16,0.42 z" />
			<path fill="#212121" d="m 177.05,60.97 a 7,7 0 0 1 0.39,0.66 1.38,1.38 0 0 1 -0.57,2 14.28,14.28 0 0 1 -2.45,1.12 17.07,17.07 0 0 1 -3.53,0.94 19.85,19.85 0 0 1 -3.91,0.19 17.25,17.25 0 0 1 -9.78,-4.22 15.59,15.59 0 0 1 -5.68,-9.49 18.87,18.87 0 0 1 3.3,-14.85 15.19,15.19 0 0 1 6.38,-4.89 19.57,19.57 0 0 1 4.93,-1.41 18.78,18.78 0 0 1 3.49,-0.08 15.5,15.5 0 0 1 9.7,3.91 16.34,16.34 0 0 1 5.55,9.78 12.77,12.77 0 0 1 0.05,5.13 c 0,0.19 -0.13,0.38 -0.24,0.7 -4.13,0 -8.26,0 -12.4,0 l -12.53,0 a 6.68,6.68 0 0 0 -0.23,1.22 c 0,2.75 0.65,5.26 2.88,7.13 a 10.51,10.51 0 0 0 3.79,1.92 21.89,21.89 0 0 0 7,0.53 c 1.3,-0.05 2.56,-0.19 3.86,-0.29 z m -0.09,-15.29 a 6.09,6.09 0 0 0 0,-1 c -0.14,-0.77 -0.29,-1.54 -0.48,-2.3 a 11.4,11.4 0 0 0 -2.34,-4.83 7.41,7.41 0 0 0 -6.25,-2.46 7.71,7.71 0 0 0 -2.65,0.4 8.82,8.82 0 0 0 -5,5.33 9.42,9.42 0 0 0 -0.7,4.83 z" />
		</g>
		<g id="open-business-intelligence">
			<path fill="#212121" d="M 10.75,79.55 A 6.1,6.1 0 0 1 9.92,82.9 3.93,3.93 0 0 1 7.46,84.73 C 3.75,85.55 1.16,83.55 1.02,80.06 a 9.94,9.94 0 0 1 0.14,-2.17 c 0.51,-2.79 2.81,-4 5.37,-3.7 A 4.67,4.67 0 0 1 10.75,79 c 0,0.18 0,0.35 0,0.55 z m -7,2.11 a 2.13,2.13 0 0 0 2.1,1.27 2,2 0 0 0 2.1,-1.27 5.5,5.5 0 0 0 0,-4.26 2.09,2.09 0 0 0 -2.2,-1.28 2.13,2.13 0 0 0 -2,1.36 5.49,5.49 0 0 0 0,4.18 z" />
			<path fill="#212121" d="m 15.75,83.78 0,5.44 -2.1,0 c -0.24,-0.68 -0.26,-14 0,-14.87 l 1.69,0 0.41,1.2 a 3.92,3.92 0 0 1 2.43,-1.4 3.71,3.71 0 0 1 3.92,1.86 6.45,6.45 0 0 1 0.62,1.81 8.71,8.71 0 0 1 -0.17,4.07 3.91,3.91 0 0 1 -6.46,2 2.77,2.77 0 0 0 -0.34,-0.11 z m 4.82,-4.23 a 5.89,5.89 0 0 0 -0.58,-2.4 2,2 0 0 0 -2.15,-1 1.91,1.91 0 0 0 -1.79,1.4 7,7 0 0 0 0,3.89 1.84,1.84 0 0 0 1.93,1.46 1.82,1.82 0 0 0 2.07,-1.26 16.71,16.71 0 0 0 0.52,-2.09 z" />
			<path fill="#212121" d="m 34.19,80.13 -6.57,0 a 2.42,2.42 0 0 0 2.4,2.89 15.92,15.92 0 0 0 2.73,-0.39 5.75,5.75 0 0 0 0.87,-0.31 l 0,1.95 c -0.51,0.16 -1,0.36 -1.55,0.47 a 7.91,7.91 0 0 1 -3.39,0 4.29,4.29 0 0 1 -3.39,-3.29 7.2,7.2 0 0 1 0.21,-4.47 4.38,4.38 0 0 1 5,-2.8 4.12,4.12 0 0 1 3.68,4.21 c 0.03,0.54 0.01,1.06 0.01,1.74 z m -2.44,-1.85 a 2,2 0 0 0 -2,-2.3 2.08,2.08 0 0 0 -2.11,2.3 z" />
			<path fill="#212121" d="m 46.02,84.68 -2.27,0 c 0,-0.34 0,-0.65 0,-1 0,-1.63 0,-3.27 0,-4.9 a 7.45,7.45 0 0 0 -0.17,-1.47 1.47,1.47 0 0 0 -1.1,-1.13 2.28,2.28 0 0 0 -3,1.67 6.79,6.79 0 0 0 -0.18,1.47 c 0,1.46 0,2.92 0,4.38 l 0,0.94 -2.27,0 0,-10.26 1.72,0 0.34,1 c 0.07,0 0.14,0 0.17,0 a 4.3,4.3 0 0 1 4.19,-1.13 3,3 0 0 1 2.5,2.7 19.15,19.15 0 0 1 0.13,2 c 0,1.58 0,3.15 0,4.73 -0.01,0.32 -0.04,0.63 -0.06,1 z" />
			<path fill="#212121" d="m 56.9,83.65 -0.45,1 -1.56,0 C 54.65,84 54.59,71.25 54.83,70.17 l 2.14,0 0,5.24 a 4.65,4.65 0 0 1 2.32,-1.27 3.69,3.69 0 0 1 4,1.93 5.87,5.87 0 0 1 0.55,1.56 9,9 0 0 1 -0.1,4.16 3.91,3.91 0 0 1 -6.6,2 3,3 0 0 0 -0.24,-0.14 z m 4.85,-4.1 a 17.1,17.1 0 0 0 -0.41,-2.09 2.16,2.16 0 0 0 -4.05,0.09 6.68,6.68 0 0 0 0,4 1.85,1.85 0 0 0 1.9,1.39 1.81,1.81 0 0 0 2.07,-1.25 16.1,16.1 0 0 0 0.49,-2.14 z" />
			<path fill="#212121" d="m 66.85,74.36 2.21,0 c 0,0.35 0.05,0.66 0.05,1 0,1.63 0,3.27 0,4.9 a 6.81,6.81 0 0 0 0.08,1 c 0.19,1.17 0.62,1.64 1.63,1.72 a 2.14,2.14 0 0 0 2.39,-1.35 7.5,7.5 0 0 0 0.33,-2 c 0,-1.55 0,-3.09 0,-4.64 0,-0.2 0,-0.4 0.06,-0.67 l 2.21,0 0,10.35 -1.74,0 -0.32,-1.12 c -0.17,0.15 -0.31,0.26 -0.44,0.39 a 4.69,4.69 0 0 1 -4.94,0.49 2.9,2.9 0 0 1 -1.43,-2.19 11.56,11.56 0 0 1 -0.19,-1.69 c 0,-1.75 0,-3.5 0,-5.25 0,-0.27 0.08,-0.58 0.1,-0.94 z" />
			<path fill="#212121" d="m 78.75,84.32 0,-2 1,0.33 a 6.53,6.53 0 0 0 2.74,0.42 2.89,2.89 0 0 0 0.77,-0.14 1,1 0 0 0 0.29,-1.76 11.53,11.53 0 0 0 -1.62,-0.85 c -0.7,-0.35 -1.43,-0.66 -2.1,-1.06 a 2.37,2.37 0 0 1 -1.12,-2 2.58,2.58 0 0 1 1.9,-2.8 7.5,7.5 0 0 1 5.54,0.44 l -0.7,1.69 c -0.86,-0.21 -1.64,-0.46 -2.43,-0.57 a 3.4,3.4 0 0 0 -1.45,0.14 0.76,0.76 0 0 0 -0.32,1.39 3.73,3.73 0 0 0 1,0.6 c 0.79,0.37 1.6,0.7 2.39,1.07 a 2.92,2.92 0 0 1 -0.31,5.33 7.92,7.92 0 0 1 -5.58,-0.23 z" />
			<path fill="#212121" d="m 90.04,72.98 a 1.28,1.28 0 0 1 0,-2.55 1.16,1.16 0 0 1 1.28,1.3 1.14,1.14 0 0 1 -1.28,1.25 z" />
			<path fill="#212121" d="m 91.15,74.36 0,10.3 -2.1,0 a 72.89,72.89 0 0 1 0,-10.31 z" />
			<path fill="#212121" d="m 103.68,84.68 -2.22,0 c 0,-0.36 0,-0.67 0,-1 0,-1.58 0,-3.15 0,-4.73 a 9.17,9.17 0 0 0 -0.16,-1.56 1.46,1.46 0 0 0 -1.05,-1.18 2.29,2.29 0 0 0 -3,1.66 7.15,7.15 0 0 0 -0.17,1.47 c 0,1.46 0,2.92 0,4.38 l 0,0.93 -2.39,0 0,-10.28 1.73,0 0.38,1.18 a 4.1,4.1 0 0 1 2.51,-1.35 4.58,4.58 0 0 1 2.57,0.33 2.87,2.87 0 0 1 1.73,2.55 c 0.08,0.9 0.11,1.8 0.12,2.71 0,1.31 0,2.63 0,3.94 0.02,0.29 -0.03,0.61 -0.05,0.95 z" />
			<path fill="#212121" d="m 114.96,82.35 0,1.79 c 0,0 -0.07,0.11 -0.12,0.13 a 7.32,7.32 0 0 1 -5.37,0.32 4,4 0 0 1 -2.65,-2.61 7,7 0 0 1 0.11,-5.13 4.33,4.33 0 0 1 4.82,-2.67 4.05,4.05 0 0 1 3.75,4 c 0.06,0.61 0,1.22 0,2 -2.2,0.08 -4.38,0 -6.54,0.05 a 2.38,2.38 0 0 0 2.34,2.87 15.9,15.9 0 0 0 2.76,-0.37 6.18,6.18 0 0 0 0.9,-0.38 z m -1.83,-4.07 a 2,2 0 0 0 -1.85,-2.3 c -1.26,-0.11 -2.18,0.77 -2.36,2.3 z" />
			<path fill="#212121" d="m 125.15,74.9 -0.74,1.7 c -0.82,-0.2 -1.57,-0.44 -2.34,-0.56 a 4.81,4.81 0 0 0 -1.38,0.07 0.72,0.72 0 0 0 -0.69,0.68 1.29,1.29 0 0 0 0.45,0.86 6.84,6.84 0 0 0 1.32,0.67 c 0.66,0.31 1.35,0.56 2,0.9 a 2.67,2.67 0 0 1 1.51,2.73 2.7,2.7 0 0 1 -1.92,2.6 8.21,8.21 0 0 1 -5.6,-0.2 l 0,-2 0.87,0.31 a 6.37,6.37 0 0 0 2.83,0.45 2.8,2.8 0 0 0 0.93,-0.21 0.91,0.91 0 0 0 0.21,-1.62 10.22,10.22 0 0 0 -1.6,-0.87 c -0.65,-0.32 -1.33,-0.6 -2,-0.95 a 2.6,2.6 0 0 1 -1.25,-2.91 2.42,2.42 0 0 1 1.75,-2 7.62,7.62 0 0 1 5.65,0.35 z" />
			<path fill="#212121" d="m 127.41,84.37 0,-2.08 0.89,0.32 a 6.35,6.35 0 0 0 2.92,0.43 2.39,2.39 0 0 0 0.91,-0.26 0.88,0.88 0 0 0 0.2,-1.47 4.49,4.49 0 0 0 -1.1,-0.69 c -0.81,-0.4 -1.66,-0.73 -2.45,-1.15 a 2.61,2.61 0 0 1 -1.43,-2.76 2.17,2.17 0 0 1 1.2,-1.9 6.66,6.66 0 0 1 1.89,-0.61 7.45,7.45 0 0 1 4.32,0.73 l -0.72,1.68 c -0.84,-0.21 -1.62,-0.46 -2.41,-0.57 a 3.43,3.43 0 0 0 -1.46,0.14 0.75,0.75 0 0 0 -0.29,1.32 3.87,3.87 0 0 0 1,0.64 c 0.76,0.36 1.57,0.63 2.32,1 a 2.76,2.76 0 0 1 1.59,3.33 2.51,2.51 0 0 1 -1.59,2 8.15,8.15 0 0 1 -5.79,-0.1 z" />
			<path fill="#212121" d="m 144.1,70.43 a 1.16,1.16 0 0 1 1.25,1.26 1.14,1.14 0 0 1 -1.28,1.3 1.16,1.16 0 0 1 -1.32,-1.24 1.2,1.2 0 0 1 1.35,-1.32 z" />
			<path fill="#212121" d="m 143.04,74.36 2.17,0 0,10.31 -2.11,0 a 95.45,95.45 0 0 1 -0.06,-10.31 z" />
			<path fill="#212121" d="m 150.94,84.68 -2.19,0 0,-10.31 1.74,0 0.26,1.18 a 4.33,4.33 0 0 1 4.4,-1.26 3,3 0 0 1 2.38,2.4 2,2 0 0 1 0.06,0.43 q 0,3.67 0,7.34 c 0,0.05 -0.05,0.1 -0.11,0.21 l -2.12,0 c 0,-0.32 -0.05,-0.63 -0.05,-0.94 0,-1.69 0,-3.39 0,-5.08 a 5.49,5.49 0 0 0 0,-0.79 c -0.16,-1.09 -0.64,-1.62 -1.54,-1.73 a 2.16,2.16 0 0 0 -2.47,1.23 8.43,8.43 0 0 0 -0.39,2.31 c -0.06,1.31 0,2.63 0,3.94 z" />
			<path fill="#212121" d="m 161.22,76.2 -1.31,-0.12 0,-0.87 c 0.44,-0.65 1.33,-0.57 1.58,-1.3 0.25,-0.73 0.42,-1.2 0.64,-1.84 l 1.42,0 0,2.21 2.9,0 0,1.83 -2.77,0 a 6.61,6.61 0 0 0 -0.08,0.67 c 0,1.52 0,3 0,4.55 0,1.34 0.62,1.84 1.95,1.62 l 1,-0.14 0,1.74 a 4.73,4.73 0 0 1 -3.94,0 2.22,2.22 0 0 1 -1.16,-1.66 9.11,9.11 0 0 1 -0.16,-1.56 c -0.08,-1.72 -0.07,-3.38 -0.07,-5.13 z" />
			<path fill="#212121" d="m 177.37,80.12 -6.52,0 a 2.39,2.39 0 0 0 2.33,2.89 14.6,14.6 0 0 0 2.67,-0.35 7,7 0 0 0 1,-0.32 l 0,1.79 c 0,0 0,0.1 -0.09,0.12 a 7.19,7.19 0 0 1 -5.61,0.25 4.25,4.25 0 0 1 -2.7,-3.41 7.5,7.5 0 0 1 0.14,-3.63 4.61,4.61 0 0 1 6.81,-2.73 4,4 0 0 1 2,3.23 19.33,19.33 0 0 1 -0.03,2.16 z m -2.35,-1.83 c 0,-1.46 -0.74,-2.3 -2,-2.32 a 2.18,2.18 0 0 0 -2.2,2.32 z" />
			<path fill="#212121" d="m 180.25,70.2 2.19,0 0,14.45 -2.19,0 z" />
			<path fill="#212121" d="m 188.18,84.67 -2.12,0 C 185.88,84.06 185.81,71.49 186,70.2 l 2.18,0 z" />
			<path fill="#212121" d="m 194.08,71.68 a 1.15,1.15 0 0 1 -1.2,1.31 1.17,1.17 0 0 1 -1.36,-1.23 1.19,1.19 0 0 1 1.29,-1.32 1.16,1.16 0 0 1 1.27,1.24 z" />
			<path fill="#212121" d="m 194,84.68 -2.25,0 0,-10.31 2.24,0 c 0.04,3.43 0,6.85 0.01,10.31 z" />
			<path fill="#212121" d="m 197.96,83.87 c -1,-1.43 -0.91,-2 0.48,-3.28 a 2.68,2.68 0 0 1 -0.52,-0.3 3.48,3.48 0 0 1 -1,-3.77 3,3 0 0 1 2.73,-2.25 15.09,15.09 0 0 1 2.17,0 c 1,0 2,0 3.06,0.06 l 1.09,0 0,1.32 -1.52,0.35 c 0.1,0.37 0.22,0.72 0.3,1.07 a 3.14,3.14 0 0 1 -2.12,3.81 10.87,10.87 0 0 1 -2.32,0.32 c -0.33,0 -0.63,0 -0.86,0.32 -0.36,0.46 -0.25,0.92 0.3,1.09 a 2.77,2.77 0 0 0 0.78,0.1 c 0.79,0 1.58,0 2.36,0 a 2.8,2.8 0 0 1 2.93,2.15 3.16,3.16 0 0 1 -1.56,3.58 7,7 0 0 1 -2.05,0.7 9.08,9.08 0 0 1 -4,-0.09 2.64,2.64 0 0 1 -2.21,-2.67 2.35,2.35 0 0 1 1.3,-2.22 z m 3.07,0.78 a 13.74,13.74 0 0 0 -1.81,0.21 1.39,1.39 0 0 0 -1.09,1.41 1.28,1.28 0 0 0 1.09,1.2 5.46,5.46 0 0 0 3.59,-0.25 2.05,2.05 0 0 0 0.68,-0.54 1.09,1.09 0 0 0 -0.63,-1.86 c -0.58,-0.09 -1.16,-0.11 -1.83,-0.17 z m 1.57,-7 c 0,-1.43 -0.77,-2.13 -2.14,-1.93 a 1.54,1.54 0 0 0 -1.35,1.47 c -0.14,1.15 0.18,1.94 0.91,2.24 l 0.17,0.05 c 1.31,0.27 2.43,0.01 2.41,-1.79 z" />
			<path fill="#212121" d="m 216.24,82.33 0,1.88 c -0.29,0.12 -0.54,0.26 -0.82,0.34 a 7.89,7.89 0 0 1 -4.31,0.15 4.18,4.18 0 0 1 -3.1,-2.92 7.15,7.15 0 0 1 0.09,-4.72 c 1.3,-3.67 6,-3.54 7.54,-1.6 a 5,5 0 0 1 0.75,1.17 6.59,6.59 0 0 1 0.36,3.46 c -2.19,0.1 -4.36,0 -6.53,0.06 a 2.46,2.46 0 0 0 2.39,2.9 7.26,7.26 0 0 0 2.75,-0.41 z m -6,-4 4.19,0 a 2,2 0 0 0 -1.82,-2.31 c -1.33,-0.17 -2.27,0.71 -2.41,2.27 z" />
			<path fill="#212121" d="m 221.75,75.55 a 4.38,4.38 0 0 1 4.27,-1.28 2.87,2.87 0 0 1 2.55,2.8 c 0.09,2.5 0,5 0,7.59 l -2.24,0 c 0,-0.33 -0.05,-0.64 -0.06,-1 0,-1.63 0,-3.27 0,-4.9 0,-0.26 0,-0.53 0,-0.79 -0.07,-1.14 -0.53,-1.73 -1.46,-1.88 a 2.21,2.21 0 0 0 -2.53,1.25 6.71,6.71 0 0 0 -0.35,2 c -0.05,1.43 0,2.86 0,4.29 l 0,1 -2.26,0 0,-10.26 1.73,0 z" />
			<path fill="#212121" d="m 239.25,74.77 -0.66,1.85 c -0.52,-0.14 -1,-0.27 -1.46,-0.38 a 2.43,2.43 0 0 0 -3.31,2.41 10.18,10.18 0 0 0 0,2.1 2.2,2.2 0 0 0 2.54,2.17 c 0.83,-0.08 1.64,-0.31 2.52,-0.48 a 3.4,3.4 0 0 1 0,1.8 1.62,1.62 0 0 1 -0.3,0.21 6.08,6.08 0 0 1 -5,-0.06 3.79,3.79 0 0 1 -2,-2.54 7.93,7.93 0 0 1 -0.1,-4.15 4.24,4.24 0 0 1 3.78,-3.48 7.22,7.22 0 0 1 3.99,0.55 z" />
			<path fill="#212121" d="m 250.18,80.13 -6.54,0 a 2.52,2.52 0 0 0 2.45,2.91 7.18,7.18 0 0 0 2.75,-0.42 l 0.79,-0.27 a 4.14,4.14 0 0 1 0,1.93 9,9 0 0 1 -1.64,0.47 12.82,12.82 0 0 1 -3,0.07 4.55,4.55 0 0 1 -3.93,-4.48 7.75,7.75 0 0 1 0.33,-3.11 4.63,4.63 0 0 1 6.67,-2.52 3.59,3.59 0 0 1 1.59,1.7 6.7,6.7 0 0 1 0.53,3.72 z m -6.5,-1.84 4.19,0 a 2,2 0 0 0 -1.93,-2.31 2.15,2.15 0 0 0 -2.26,2.31 z" />
		</g>
	</g>
</svg>
