<?xml version="1.0" encoding="utf-8" standalone="no"?>
<!DOCTYPE svg PUBLIC "-//W3C//DTD SVG 1.1//EN" "http://www.w3.org/Graphics/SVG/1.1/DTD/svg11.dtd">
<svg xmlns="http://www.w3.org/2000/svg" xmlns:xlink="http://www.w3.org/1999/xlink" version="1.1"
	width="384" height="384" viewBox="-16 -16 544 544" preserveAspectRatio="xMidYMid meet">
	<circle fill="#FFFFFF" cx="256" cy="256" r="272" />
	<circle fill="#FFDA44" cx="256" cy="256" r="256" />
	<path fill="#D80027" d="m 14.588,341.33402 h 482.825 c 6.403,-18.115 10.825,-37.164 13.007,-56.89 H 1.582 c 2.18,19.727 6.602,38.776 13.006,56.89 z" />
	<path fill="#D80027" d="m 95.108,455.11102 h 321.784 c 20.049,-16.221 37.603,-35.403 51.987,-56.889 H 43.123 c 14.384,21.486 31.936,40.667 51.985,56.889 z" />
	<path fill="#D80027" d="M 14.590002,170.66802 H 497.415 c 6.403,18.115 10.825,37.164 13.007,56.89 H 1.584002 c 2.18,-19.727 6.602,-38.776 13.006,-56.89 z" />
	<path fill="#D80027" d="M 95.109004,56.889023 H 416.893 c 20.049,16.221 37.603,35.403 51.987,56.888997 H 43.124004 c 14.384,-21.485997 31.936,-40.666997 51.985,-56.888997 z" />
</svg>
