<?xml version="1.0" encoding="utf-8" standalone="no"?>
<!DOCTYPE svg PUBLIC "-//W3C//DTD SVG 1.1//EN" "http://www.w3.org/Graphics/SVG/1.1/DTD/svg11.dtd">
<svg xmlns="http://www.w3.org/2000/svg" xmlns:xlink="http://www.w3.org/1999/xlink" version="1.1"
	width="384" height="384" viewBox="-32 -32 576 576" preserveAspectRatio="xMidYMid meet">
	<circle fill="#FFFFFF" cx="256" cy="256" r="288" />
	<path fill="#000000" d="M 256,0 C 145.929,0 52.094,69.472 15.923,166.957 c 480.154,-0.001 0,0 480.154,-0.001 C 459.906,69.472 366.071,0 256,0 Z" />
	<path fill="#D80027" d="M15.923,166.957C5.633,194.69,0,224.686,0,256s5.633,61.31,15.923,89.043h480.155 C506.368,317.31,512,287.314,512,256s-5.632-61.31-15.923-89.043H15.923z" />
	<path fill="#FFDA44" d="M 15.923,345.043 C 52.094,442.527 145.929,512 256,512 c 110.071,0 203.906,-69.473 240.077,-166.957 -480.154,0 0,0 -480.154,0 z" />
</svg>
