<?xml version="1.0" encoding="utf-8" standalone="no"?>
<!DOCTYPE svg PUBLIC "-//W3C//DTD SVG 1.1//EN" "http://www.w3.org/Graphics/SVG/1.1/DTD/svg11.dtd">
<svg xmlns="http://www.w3.org/2000/svg" xmlns:xlink="http://www.w3.org/1999/xlink" version="1.1"
	width="384" height="384" viewBox="-16 -16 544 544" preserveAspectRatio="xMidYMid meet">
	<path fill="#6DA544" d="m 0.0025856,256 c 0,110.06889 69.4712984,203.90294 166.9533144,240.07358 L 189.21767,255.999 166.9559,15.925425 C 69.473884,52.097059 0.0025856,145.93011 0.0025856,256 Z" />
	<path fill="#D80027" d="M 511.99741,256 C 511.99741,114.61743 397.38257,0.0025856 256,0.0025856 c -31.31368,0 -61.31038,5.6329431 -89.0441,15.9228394 V 496.07458 c 27.73372,10.29089 57.73042,15.92283 89.0441,15.92283 141.38257,0 255.99741,-114.61484 255.99741,-255.99741 z" />
	<circle fill="#FFDA44" cx="166.96" cy="256" r="89.04" />
	<path fill="#D80027" d="m 116.87141,211.47845 v 55.65144 c 0,27.66172 22.42377,50.08649 50.08649,50.08649 27.66272,0 50.08649,-22.42377 50.08649,-50.08649 v -55.65144 z" />
	<path fill="#F0F0F0" d="m 166.9579,283.82572 c -9.20591,0 -16.69583,-7.48993 -16.69583,-16.69583 v -22.25978 h 33.39066 v 22.26078 c 0,9.2049 -7.48992,16.69483 -16.69483,16.69483 z" />
</svg>
