<?xml version="1.0" encoding="utf-8"?>
<!-- Generator: Adobe Illustrator 16.0.0, SVG Export Plug-In . SVG Version: 6.00 Build 0)  -->
<!DOCTYPE svg PUBLIC "-//W3C//DTD SVG 1.1//EN" "http://www.w3.org/Graphics/SVG/1.1/DTD/svg11.dtd">
<svg version="1.1" id="Capa_1" xmlns="http://www.w3.org/2000/svg" xmlns:xlink="http://www.w3.org/1999/xlink" x="0px" y="0px"
	 width="138.379px" height="47.466px" viewBox="5.829 1.479 138.379 47.466" enable-background="new 5.829 1.479 138.379 47.466"
	 xml:space="preserve">
<rect x="109.441" y="5.985" fill="#FFFFFF" width="29.182" height="29.13"/>
<path d="M7.083,20.184c1.108-1.093,2.406-1.868,3.927-2.271c0.957-0.253,1.916-0.313,2.901-0.266
	c1.554,0.074,2.95,0.603,4.289,1.342c0.552,0.305,0.754,0.773,0.666,1.385c-0.041,0.282-0.079,0.563-0.127,0.914
	c-0.351-0.089-0.643-0.153-0.929-0.236c-1.318-0.38-2.623-0.822-3.958-1.135c-1.294-0.305-2.528,0.002-3.624,0.747
	c-1.003,0.683-1.058,1.883-0.315,2.768c0.527,0.626,1.229,1.008,1.955,1.341c1.277,0.586,2.565,1.149,3.845,1.728
	c0.912,0.414,1.781,0.894,2.467,1.646c0.751,0.826,1.138,1.801,1.183,2.912c0.049,1.166-0.205,2.25-0.876,3.217
	c-0.604,0.871-1.442,1.445-2.397,1.867c-0.801,0.354-1.645,0.6-2.506,0.703c-0.92,0.112-1.846,0.172-2.787,0.071
	c-1.172-0.125-2.323-0.349-3.474-0.579c-0.209-0.043-0.435-0.061-0.618-0.154c-0.145-0.074-0.277-0.232-0.344-0.387
	c-0.196-0.445-0.357-0.906-0.532-1.363c0-0.306,0-0.611,0-0.918c0.195,0.073,0.408,0.116,0.583,0.227
	c1.34,0.837,2.803,1.227,4.376,1.229c0.747,0.002,1.494-0.029,2.225-0.185c0.64-0.136,1.263-0.312,1.82-0.695
	c1.11-0.764,1.538-2.838,0.182-3.905c-0.502-0.396-1.051-0.685-1.631-0.918c-1.145-0.459-2.315-0.857-3.448-1.347
	c-1.678-0.726-3.016-1.851-3.849-3.516C6.017,24.271,5.311,21.748,7.083,20.184z"/>
<path fill="#7E9F3E" d="M143.188,2.5c0,0,0.011,17.702-0.008,26.275c-0.007,2.511-0.921,4.688-2.591,6.563
	c-1.458,1.641-3.284,2.637-5.407,3.104c-0.49,0.106-1.002,0.147-1.505,0.148c-5.688,0.01-11.381,0.023-17.071-0.002
	c-2.281-0.01-4.271-0.885-6-2.342c-1.555-1.311-2.592-2.971-3.151-4.92c-0.229-0.797-0.378-1.607-0.377-2.444
	c0.005-5.567-0.019-11.135,0.013-16.702c0.014-2.339,0.866-4.402,2.354-6.194c1.474-1.774,3.375-2.861,5.615-3.355
	c0.475-0.105,0.971-0.149,1.459-0.15L143.188,2.5z M110.477,7.219c0,0.265,0,0.462,0,0.66c0,5.247,0,10.493,0,15.74
	c-0.002,0.169,0.021,0.342-0.01,0.506c-0.177,0.989,0.021,1.965,0.184,2.922c0.191,1.151,0.646,2.227,1.303,3.214
	c0.822,1.236,1.844,2.269,3.107,3.021c1.854,1.104,3.875,1.559,6.037,1.313c1.993-0.228,3.77-0.977,5.271-2.296
	c1.699-1.493,2.771-3.356,3.119-5.626c0.216-1.405,0.117-2.768-0.283-4.129c-0.528-1.79-1.501-3.292-2.92-4.476
	c-2.303-1.919-4.946-2.697-7.93-2.157c-1.188,0.214-2.312,0.606-3.338,1.251c-0.229,0.145-0.459,0.293-0.764,0.49
	c0-0.923,0-1.776,0-2.627c0-0.874,0-1.749,0-2.624c0-0.859,0.008-1.718-0.001-2.577c-0.011-0.865,0.044-1.734-0.035-2.606
	C112.959,7.219,111.754,7.219,110.477,7.219z M133.268,15.519c-0.142,0.385-0.166,18.252-0.016,18.792
	c1.4,0.004,2.827,0.043,4.281-0.022c0.013-0.215,0.029-0.366,0.029-0.517c0-5.916,0-11.833-0.002-17.75
	c0-0.161-0.035-0.321-0.057-0.502C136.057,15.519,134.654,15.519,133.268,15.519z M132.488,9.772
	c-0.045,1.537,1.285,2.944,2.857,2.939c1.602-0.005,2.934-1.322,2.934-2.922c0-1.625-1.344-2.986-2.942-2.969
	C133.645,6.839,132.417,8.367,132.488,9.772z"/>
<path fill="none" stroke="#7E9F3E" stroke-width="2" stroke-miterlimit="10" d="M143.188,2.5c0,0.224,0.011,17.702-0.008,26.275
	c-0.007,2.511-0.921,4.688-2.591,6.563c-1.458,1.641-3.284,2.637-5.407,3.104c-0.49,0.106-1.002,0.147-1.505,0.148
	c-5.688,0.01-11.381,0.023-17.071-0.002c-2.281-0.01-4.271-0.885-6-2.342c-1.555-1.311-2.592-2.971-3.151-4.92
	c-0.229-0.797-0.378-1.607-0.377-2.444c0.005-5.567-0.019-11.135,0.013-16.702c0.014-2.339,0.866-4.402,2.354-6.194
	c1.474-1.774,3.375-2.861,5.615-3.355c0.475-0.105,0.971-0.149,1.459-0.15C125.229,2.472,142.951,2.487,143.188,2.5z"/>
<path d="M69.908,36.585c-1.417,0.229-2.835,0.079-4.291-0.034c-0.021-0.212-0.051-0.376-0.053-0.537
	c-0.005-0.63-0.005-1.259-0.001-1.887c0.002-0.229-0.055-0.396-0.344-0.393c-0.309,0.401-0.602,0.832-0.943,1.218
	c-0.655,0.735-1.468,1.25-2.42,1.51c-0.998,0.272-2.008,0.317-3.042,0.164c-0.876-0.13-1.752-0.241-2.591-0.533
	c-2.299-0.802-3.833-2.343-4.516-4.698c-0.249-0.855-0.399-1.729-0.426-2.621c-0.013-0.412-0.084-0.822-0.081-1.234
	c0.01-1.271,0.075-2.547,0.39-3.781c0.615-2.408,2.014-4.146,4.408-5.024c1.17-0.43,2.377-0.57,3.599-0.608
	c0.886-0.028,1.779,0.001,2.662,0.088c1.857,0.183,3.598,0.701,5.027,1.988c0.986,0.888,1.612,1.993,1.962,3.262
	c0.276,0.996,0.325,2.021,0.394,3.043c0.02,0.289,0.049,0.58,0.061,0.87c0.043,1.057,0.091,2.109,0.119,3.167
	c0.052,1.961,0.092,3.92,0.135,5.879C69.958,36.466,69.933,36.508,69.908,36.585z M55.346,27.652
	c-0.052,0.904,0.061,1.998,0.267,3.082c0.283,1.479,0.991,2.656,2.449,3.261c0.551,0.228,1.111,0.389,1.719,0.396
	c0.625,0.006,1.235,0.039,1.859-0.119c1.278-0.322,2.179-1.094,2.769-2.229c0.308-0.593,0.54-1.232,0.742-1.873
	c0.292-0.918,0.461-1.871,0.468-2.837c0.003-0.653-0.023-1.306-0.117-1.962c-0.134-0.932-0.344-1.831-0.689-2.697
	c-0.311-0.779-0.865-1.369-1.592-1.782c-0.718-0.409-1.525-0.547-2.328-0.586c-0.65-0.031-1.316,0.031-1.959,0.138
	c-1.156,0.192-2.09,0.761-2.671,1.82c-0.289,0.528-0.444,1.099-0.568,1.687C55.449,25.106,55.293,26.268,55.346,27.652z"/>
<path d="M98.816,34.113c0.082,0.138,0.156,0.234,0.203,0.346c0.191,0.434,0.107,0.797-0.302,1.029
	c-0.409,0.23-0.844,0.438-1.29,0.588c-0.604,0.203-1.224,0.427-1.854,0.494c-0.674,0.074-1.35,0.16-2.053,0.101
	c-1.972-0.169-3.654-0.973-5.137-2.218c-1.557-1.307-2.636-2.938-2.979-4.98c-0.48-2.83,0.025-5.457,1.734-7.798
	c0.859-1.178,2.021-1.986,3.353-2.568c0.831-0.364,1.7-0.605,2.589-0.74c0.602-0.091,1.225-0.065,1.836-0.042
	c1.939,0.073,3.639,0.806,5.094,2.053c1.574,1.352,2.551,3.087,2.915,5.134c0.157,0.889,0.234,1.797,0.028,2.697
	c-0.023,0.102-0.066,0.197-0.125,0.366c-2.168,0.007-4.34,0.002-6.512,0.003c-2.176,0.001-4.354,0-6.57,0
	c-0.046,0.232-0.122,0.439-0.121,0.643c0.005,1.447,0.342,2.764,1.51,3.744c0.586,0.49,1.266,0.789,1.987,1.01
	c1.213,0.369,2.454,0.308,3.692,0.277C97.473,34.236,98.126,34.162,98.816,34.113z M98.768,26.082c0-0.205,0.021-0.359-0.004-0.506
	c-0.072-0.404-0.15-0.809-0.25-1.206c-0.234-0.929-0.587-1.807-1.226-2.539c-0.866-0.997-1.999-1.343-3.282-1.293
	c-0.471,0.019-0.938,0.027-1.392,0.21c-1.314,0.526-2.118,1.524-2.616,2.798c-0.314,0.801-0.495,1.632-0.369,2.536
	C92.667,26.082,95.691,26.082,98.768,26.082z"/>
<path d="M30.383,20.275c0,5.441,0,10.829,0,16.252c-1.45,0-2.805,0-4.233,0c-0.023-0.92-0.008-1.818-0.011-2.717
	c-0.002-0.891,0-1.778,0-2.67c0-0.904,0-1.81,0-2.714c0-0.889,0-1.78,0-2.668c0-0.905,0-1.811,0-2.716c0-0.888,0-1.776,0-2.73
	c-0.708-0.054-1.392-0.02-2.073-0.026c-0.688-0.006-1.375-0.001-2.111-0.001c-0.089-0.771-0.048-1.496-0.027-2.273
	c0.202-0.02,0.378-0.051,0.553-0.051c0.997-0.005,1.994-0.003,2.991-0.003c0.165,0,0.33,0,0.54,0
	c0.016-0.247,0.038-0.44,0.039-0.633c0.002-2.592,0.001-5.185,0.001-7.776c0-0.18,0-0.359,0-0.517
	c0.38-0.133,3.504-0.166,4.135-0.055c0.014,0.176,0.043,0.367,0.043,0.558c0.003,2.592,0.002,5.184,0.002,7.776
	c0,0.18,0,0.36,0,0.615c1.397,0,2.734,0,4.104,0c0,0.798,0,1.521,0,2.308C33.007,20.29,31.711,20.221,30.383,20.275z"/>
<path d="M79.693,36.591c-1.432,0-2.773,0-4.164,0c-0.059-0.931-0.021-1.83-0.028-2.729c-0.007-0.904-0.001-1.809-0.001-2.713
	c0-0.92,0-1.842,0-2.762c0-0.904,0-1.811,0-2.714c0-0.906,0-1.81,0-2.715c0-0.899,0-1.799,0-2.763c-1.423,0-2.781,0-4.11,0
	c-0.147-0.363-0.181-1.422-0.076-2.125c0.227-0.035,0.476-0.095,0.728-0.107c0.963-0.05,1.928-0.082,2.892-0.126
	c0.133-0.005,0.267-0.032,0.469-0.058c0-2.943,0-5.861,0-8.754c0.414-0.127,3.619-0.146,4.164-0.031
	c0.047,0.553,0.015,1.129,0.021,1.705c0.004,0.583,0,1.165,0,1.748s0,1.167,0,1.748c0,0.583,0,1.166,0,1.75c0,0.581,0,1.161,0,1.787
	c0.375,0.039,0.72,0.088,1.063,0.105c0.918,0.048,1.836,0.083,2.754,0.123c0.423,0.018,0.449,0.049,0.482,0.485
	c0.024,0.351,0.064,0.701,0.088,1.053c0.012,0.194,0.002,0.39,0.002,0.632c-1.438,0.073-2.836,0.145-4.283,0.217
	C79.693,25.789,79.693,31.164,79.693,36.591z"/>
<path d="M49.731,18.129c0,0.605,0,1.197,0,1.839c-0.164,0.015-0.31,0.041-0.455,0.042c-0.583,0.005-1.167-0.015-1.748,0.004
	c-1.345,0.043-2.601,0.393-3.684,1.216c-1.155,0.877-1.757,2.09-2.015,3.496c-0.112,0.604-0.125,1.211-0.12,1.827
	c0.009,1.102-0.052,2.203-0.049,3.307c0.006,2.008,0.038,4.014,0.056,6.021c0.001,0.179-0.018,0.359-0.03,0.609
	c-1.357,0.007-2.68,0.002-4.023,0.002c-0.029-0.181-0.062-0.298-0.064-0.415c-0.037-1.44-0.082-2.879-0.1-4.318
	c-0.017-1.334-0.012-2.667,0-4c0.005-0.459,0.052-0.917,0.1-1.375c0.075-0.713,0.122-1.435,0.264-2.136
	c0.293-1.445,1.056-2.629,2.149-3.608c0.937-0.84,2.023-1.422,3.194-1.861c1.052-0.394,2.151-0.615,3.259-0.7
	c1.021-0.079,2.052-0.018,3.08-0.015C49.587,18.063,49.628,18.092,49.731,18.129z"/>
<path d="M109.799,46.139c-0.512-0.75-0.477-1.047,0.251-1.724c-0.094-0.054-0.198-0.088-0.271-0.156
	c-0.598-0.548-0.711-1.231-0.502-1.979c0.201-0.713,0.728-1.082,1.436-1.182c0.373-0.049,0.76-0.021,1.139-0.019
	c0.537,0.005,1.073,0.021,1.609,0.03c0.18,0.004,0.359,0.002,0.572,0.002c0,0.263,0,0.467,0,0.693
	c-0.273,0.063-0.524,0.12-0.799,0.187c0.053,0.192,0.113,0.377,0.156,0.563c0.2,0.887-0.242,1.729-1.113,2.004
	c-0.385,0.121-0.81,0.131-1.219,0.166c-0.172,0.015-0.33,0.015-0.449,0.166c-0.189,0.241-0.133,0.483,0.156,0.575
	c0.129,0.04,0.272,0.048,0.408,0.05c0.413,0.01,0.828-0.009,1.241,0.012c0.851,0.043,1.371,0.432,1.538,1.13
	c0.18,0.743-0.126,1.502-0.818,1.879c-0.328,0.182-0.707,0.3-1.076,0.368c-0.697,0.131-1.404,0.136-2.098-0.045
	c-0.761-0.199-1.159-0.697-1.162-1.401c-0.002-0.522,0.225-0.909,0.684-1.164C109.574,46.245,109.672,46.201,109.799,46.139z
	 M111.411,46.55c-0.291,0.03-0.632,0.032-0.953,0.109c-0.37,0.088-0.582,0.405-0.571,0.737c0.012,0.297,0.202,0.537,0.575,0.629
	c0.638,0.16,1.274,0.135,1.884-0.131c0.135-0.061,0.258-0.17,0.354-0.281c0.263-0.301,0.249-0.889-0.332-0.979
	C112.068,46.588,111.762,46.58,111.411,46.55z M112.234,42.895c0-0.75-0.406-1.119-1.121-1.013c-0.405,0.06-0.654,0.33-0.709,0.772
	c-0.075,0.604,0.094,1.021,0.478,1.176c0.028,0.013,0.058,0.023,0.086,0.027C111.661,43.975,112.244,43.838,112.234,42.895z"/>
<path d="M14.119,46.092c0,0.959,0,1.889,0,2.854c-0.387,0-0.746,0-1.103,0c-0.125-0.359-0.135-7.375-0.006-7.809
	c0.278,0,0.564,0,0.889,0c0.059,0.207,0.116,0.409,0.184,0.647c0.345-0.396,0.756-0.658,1.277-0.735
	c0.637-0.096,1.598,0.076,2.06,0.977c0.152,0.298,0.271,0.625,0.327,0.949c0.125,0.715,0.126,1.438-0.087,2.142
	c-0.48,1.579-2.099,2.084-3.393,1.061C14.233,46.15,14.192,46.134,14.119,46.092z M16.632,43.869
	c-0.039-0.449-0.093-0.87-0.307-1.258c-0.246-0.447-0.647-0.59-1.127-0.537c-0.467,0.052-0.809,0.283-0.94,0.754
	c-0.19,0.68-0.175,1.367,0.021,2.042c0.152,0.524,0.468,0.747,1.012,0.769c0.558,0.022,0.9-0.158,1.085-0.662
	C16.504,44.623,16.549,44.239,16.632,43.869z"/>
<path d="M35.714,46.021c-0.087,0.199-0.159,0.367-0.237,0.547c-0.284,0-0.556,0-0.82,0c-0.126-0.34-0.156-7.039-0.032-7.604
	c0.36,0,0.729,0,1.126,0c0,0.914,0,1.799,0,2.754c0.386-0.342,0.753-0.586,1.218-0.664c0.886-0.15,1.705,0.215,2.121,1.016
	c0.132,0.255,0.231,0.535,0.286,0.816c0.144,0.729,0.146,1.465-0.052,2.186c-0.453,1.648-2.172,2.16-3.465,1.044
	C35.826,46.088,35.785,46.066,35.714,46.021z M38.271,43.879c-0.072-0.386-0.104-0.756-0.215-1.1
	c-0.166-0.51-0.55-0.731-1.105-0.713c-0.529,0.018-0.873,0.257-1.024,0.763c-0.207,0.692-0.2,1.394,0.014,2.082
	c0.15,0.483,0.478,0.705,0.997,0.728c0.562,0.024,0.91-0.154,1.088-0.654C38.152,44.631,38.193,44.244,38.271,43.879z"/>
<path d="M66.205,45.337c0,0.343,0,0.642,0,0.94c-0.021,0.023-0.037,0.057-0.062,0.068c-0.918,0.43-1.871,0.457-2.823,0.168
	c-0.684-0.207-1.15-0.699-1.39-1.373c-0.321-0.901-0.299-1.813,0.06-2.695c0.48-1.182,1.563-1.522,2.534-1.396
	c1.163,0.149,1.862,0.898,1.97,2.076c0.029,0.318,0.004,0.641,0.004,1.029c-1.158,0.044-2.3-0.004-3.433,0.027
	c-0.131,0.805,0.41,1.493,1.227,1.506c0.481,0.006,0.966-0.117,1.446-0.196C65.885,45.469,66.024,45.398,66.205,45.337z
	 M65.244,43.198c0.049-0.693-0.328-1.151-0.971-1.206c-0.661-0.057-1.143,0.404-1.239,1.206
	C63.774,43.198,64.51,43.198,65.244,43.198z"/>
<path d="M23.787,44.172c-0.642,0-1.207,0-1.771,0c-0.563,0-1.126,0-1.683,0c-0.088,0.863,0.437,1.51,1.261,1.516
	c0.481,0.006,0.964-0.121,1.445-0.201c0.145-0.025,0.28-0.098,0.459-0.162c0,0.361,0,0.662,0,1.023
	c-0.268,0.084-0.536,0.189-0.814,0.248c-0.59,0.123-1.188,0.141-1.778,0.008c-0.942-0.211-1.532-0.808-1.779-1.729
	c-0.211-0.79-0.178-1.579,0.11-2.349c0.462-1.239,1.604-1.623,2.618-1.469c1.176,0.178,1.889,1.008,1.931,2.211
	C23.794,43.541,23.787,43.814,23.787,44.172z M22.526,43.199c0.053-0.725-0.392-1.219-1.063-1.209
	c-0.675,0.007-1.158,0.531-1.107,1.209C21.08,43.199,21.805,43.199,22.526,43.199z"/>
<path d="M98.984,44.168c-1.18,0-2.307,0-3.424,0c-0.129,0.821,0.402,1.498,1.226,1.52c0.466,0.013,0.937-0.105,1.401-0.182
	c0.16-0.027,0.313-0.102,0.518-0.17c0,0.336,0,0.635,0,0.941c-0.012,0.016-0.025,0.051-0.049,0.063
	c-0.965,0.439-1.959,0.487-2.945,0.131c-0.818-0.297-1.247-0.963-1.418-1.789c-0.134-0.638-0.105-1.281,0.073-1.906
	c0.543-1.896,2.493-2.049,3.577-1.434c0.654,0.373,0.949,0.984,1.035,1.699C99.02,43.385,98.984,43.74,98.984,44.168z
	 M97.753,43.205c0.009-0.766-0.392-1.207-1.053-1.215c-0.654-0.01-1.123,0.476-1.152,1.215
	C96.273,43.205,96.998,43.205,97.753,43.205z"/>
<path d="M137.227,44.172c-0.609,0-1.176,0-1.74,0c-0.566,0-1.133,0-1.693,0c-0.057,0.887,0.459,1.482,1.288,1.531
	c0.499,0.027,0.978-0.061,1.446-0.221c0.127-0.045,0.255-0.088,0.414-0.145c0.11,0.336,0.074,0.645,0.024,1.012
	c-0.282,0.086-0.565,0.219-0.86,0.248c-0.516,0.051-1.045,0.105-1.555,0.034c-1.193-0.163-1.96-1.065-2.066-2.353
	c-0.045-0.553-0.002-1.104,0.176-1.635c0.583-1.748,2.434-1.896,3.505-1.326c0.376,0.199,0.658,0.506,0.837,0.892
	C137.277,42.813,137.313,43.445,137.227,44.172z M133.811,43.204c0.754,0,1.479,0,2.201,0c0.037-0.712-0.363-1.183-1.015-1.214
	C134.326,41.958,133.852,42.422,133.811,43.204z"/>
<path d="M119.4,45.33c0,0.361,0,0.66,0,0.986c-0.15,0.064-0.287,0.136-0.43,0.18c-0.746,0.236-1.507,0.268-2.265,0.081
	c-0.823-0.203-1.366-0.736-1.631-1.534c-0.272-0.829-0.243-1.664,0.047-2.482c0.68-1.926,3.131-1.859,3.961-0.838
	c0.153,0.188,0.299,0.393,0.394,0.612c0.236,0.562,0.271,1.154,0.189,1.815c-1.148,0.052-2.291-0.002-3.43,0.031
	c-0.105,0.832,0.431,1.473,1.258,1.521c0.496,0.028,0.977-0.058,1.443-0.214C119.08,45.439,119.221,45.395,119.4,45.33z
	 M116.229,43.205c0.754,0,1.479,0,2.203,0c0.057-0.678-0.322-1.148-0.957-1.212C116.798,41.925,116.305,42.385,116.229,43.205z"/>
<path d="M11.452,43.857c0.003,0.621-0.097,1.218-0.434,1.759c-0.307,0.491-0.732,0.825-1.293,0.964
	c-1.907,0.464-3.289-0.598-3.364-2.446c-0.015-0.379,0.006-0.768,0.074-1.141c0.268-1.466,1.474-2.104,2.821-1.943
	c1.315,0.159,2.14,1.138,2.195,2.53C11.456,43.673,11.452,43.766,11.452,43.857z M7.798,44.975c0.218,0.463,0.587,0.666,1.1,0.672
	c0.518,0.006,0.916-0.195,1.103-0.666c0.295-0.737,0.306-1.5-0.001-2.238c-0.206-0.498-0.629-0.688-1.15-0.674
	c-0.503,0.014-0.853,0.238-1.07,0.713C7.403,43.602,7.611,44.576,7.798,44.975z"/>
<path d="M85.104,46.563c-0.422,0-0.78,0-1.177,0c0-1.813,0-3.596,0-5.414c0.312,0,0.595,0,0.912,0
	c0.062,0.194,0.122,0.396,0.19,0.615c0.644-0.685,1.426-0.859,2.31-0.662c0.685,0.152,1.091,0.588,1.247,1.262
	c0.018,0.074,0.03,0.15,0.03,0.228c0.009,1.285,0.016,2.572,0.021,3.856c0,0.027-0.025,0.054-0.057,0.111c-0.344,0-0.703,0-1.113,0
	c-0.011-0.172-0.027-0.334-0.027-0.494c-0.002-0.891,0-1.778-0.002-2.668c0-0.138,0.002-0.277-0.018-0.412
	c-0.085-0.572-0.334-0.851-0.811-0.912c-0.586-0.075-1.129,0.158-1.295,0.648c-0.131,0.383-0.186,0.805-0.203,1.213
	c-0.032,0.688-0.01,1.379-0.01,2.068C85.104,46.169,85.104,46.335,85.104,46.563z"/>
<path d="M40.938,41.141c0.401,0,0.76,0,1.163,0c0.011,0.188,0.027,0.351,0.027,0.514c0.003,0.857,0,1.717,0.003,2.576
	c0.001,0.183,0.012,0.367,0.042,0.547c0.099,0.613,0.324,0.861,0.856,0.904c0.529,0.041,1.084-0.146,1.258-0.709
	c0.103-0.332,0.161-0.688,0.171-1.035c0.024-0.813,0.007-1.625,0.009-2.438c0-0.104,0.017-0.21,0.03-0.352c0.385,0,0.756,0,1.163,0
	c0,1.808,0,3.591,0,5.406c-0.321,0-0.619,0-0.931,0c-0.057-0.188-0.109-0.361-0.175-0.578c-0.091,0.08-0.165,0.139-0.232,0.205
	c-0.695,0.676-2.021,0.588-2.595,0.256c-0.443-0.254-0.676-0.66-0.752-1.149c-0.043-0.287-0.063-0.579-0.065-0.869
	c-0.008-0.92-0.005-1.84-0.001-2.76C40.907,41.495,40.926,41.33,40.938,41.141z"/>
<path d="M29.998,46.563c-0.401,0-0.761,0-1.167,0c-0.009-0.181-0.025-0.345-0.026-0.506c-0.002-0.859,0.005-1.719-0.005-2.576
	c-0.003-0.258-0.035-0.521-0.089-0.774c-0.067-0.306-0.268-0.502-0.577-0.597c-0.71-0.211-1.395,0.158-1.566,0.877
	c-0.061,0.25-0.091,0.514-0.095,0.771c-0.012,0.769-0.004,1.533-0.004,2.302c0,0.149,0,0.301,0,0.491c-0.409,0-0.781,0-1.192,0
	c0-1.792,0-3.577,0-5.397c0.297,0,0.58,0,0.905,0c0.057,0.168,0.119,0.352,0.18,0.529c0.037,0.004,0.075,0.021,0.087,0.008
	c0.621-0.621,1.367-0.769,2.203-0.592c0.737,0.151,1.222,0.659,1.309,1.406c0.041,0.35,0.062,0.702,0.065,1.055
	c0.01,0.827,0.005,1.654,0.002,2.483C30.026,46.206,30.009,46.37,29.998,46.563z"/>
<path d="M60.28,46.563c-0.408,0-0.768,0-1.167,0c-0.009-0.191-0.024-0.354-0.025-0.52c-0.002-0.829,0.006-1.656-0.004-2.482
	c-0.004-0.274-0.035-0.554-0.084-0.82c-0.058-0.307-0.244-0.518-0.552-0.619c-0.719-0.237-1.434,0.14-1.601,0.874
	c-0.058,0.251-0.087,0.515-0.092,0.772c-0.011,0.768-0.004,1.533-0.004,2.301c0,0.148,0,0.3,0,0.484c-0.416,0-0.787,0-1.194,0
	c0-1.803,0-3.586,0-5.404c0.307,0,0.591,0,0.91,0c0.059,0.177,0.12,0.36,0.202,0.609c0.373-0.41,0.81-0.627,1.319-0.707
	c0.468-0.072,0.924-0.013,1.351,0.174c0.572,0.25,0.85,0.733,0.906,1.338c0.044,0.473,0.057,0.947,0.065,1.422
	c0.009,0.69,0.004,1.381,0.001,2.07C60.311,46.218,60.291,46.383,60.28,46.563z"/>
<path d="M122.279,41.762c0.664-0.664,1.4-0.845,2.242-0.671c0.787,0.161,1.312,0.655,1.342,1.47
	c0.048,1.313,0.013,2.629,0.013,3.987c-0.388,0-0.758,0-1.174,0c-0.011-0.172-0.028-0.335-0.029-0.5
	c-0.004-0.856-0.001-1.716-0.002-2.573c0-0.138,0.003-0.274-0.005-0.412c-0.036-0.603-0.277-0.91-0.768-0.986
	c-0.59-0.094-1.158,0.162-1.332,0.656c-0.113,0.326-0.172,0.684-0.186,1.028c-0.025,0.75-0.008,1.501-0.009,2.253
	c0,0.166,0,0.33,0,0.536c-0.418,0-0.786,0-1.187,0c0-1.807,0-3.588,0-5.403c0.313,0,0.598,0,0.908,0
	C122.15,41.333,122.208,41.52,122.279,41.762z"/>
<path d="M47.177,46.372c0-0.367,0-0.683,0-1.06c0.2,0.069,0.355,0.121,0.509,0.177c0.467,0.165,0.943,0.264,1.44,0.222
	c0.135-0.012,0.277-0.025,0.402-0.072c0.462-0.172,0.548-0.635,0.152-0.922c-0.256-0.188-0.564-0.302-0.85-0.445
	c-0.368-0.188-0.749-0.351-1.102-0.56c-0.382-0.228-0.555-0.603-0.589-1.038c-0.055-0.697,0.294-1.232,0.998-1.471
	c0.978-0.328,1.926-0.189,2.908,0.23c-0.128,0.311-0.249,0.599-0.37,0.89c-0.453-0.11-0.86-0.241-1.277-0.302
	c-0.248-0.035-0.523,0-0.763,0.074c-0.323,0.102-0.386,0.463-0.136,0.696c0.143,0.133,0.326,0.229,0.502,0.313
	c0.416,0.195,0.842,0.365,1.257,0.562c0.625,0.292,0.911,0.793,0.867,1.479c-0.044,0.664-0.383,1.137-1.011,1.342
	C49.126,46.813,48.141,46.766,47.177,46.372z"/>
<path d="M72.743,46.398c0-0.396,0-0.713,0-1.088c0.187,0.066,0.327,0.114,0.466,0.168c0.495,0.189,1.004,0.279,1.533,0.227
	c0.163-0.016,0.337-0.055,0.479-0.135c0.31-0.174,0.363-0.527,0.104-0.771c-0.163-0.151-0.374-0.264-0.578-0.364
	c-0.424-0.211-0.869-0.383-1.288-0.604c-0.576-0.305-0.809-0.798-0.753-1.449c0.039-0.451,0.236-0.804,0.632-0.998
	c0.312-0.15,0.655-0.271,0.996-0.322c0.772-0.115,1.512,0.035,2.268,0.381c-0.137,0.32-0.254,0.596-0.377,0.882
	c-0.442-0.11-0.852-0.241-1.268-0.302c-0.248-0.037-0.524-0.002-0.764,0.072c-0.331,0.102-0.404,0.453-0.152,0.692
	c0.152,0.144,0.351,0.245,0.544,0.334c0.401,0.188,0.824,0.333,1.217,0.537c0.742,0.387,0.991,0.94,0.837,1.75
	c-0.096,0.491-0.385,0.851-0.834,1.028C74.789,46.835,73.771,46.753,72.743,46.398z"/>
<path d="M71.558,41.43c-0.149,0.34-0.268,0.614-0.388,0.894c-0.432-0.107-0.825-0.23-1.228-0.296
	c-0.234-0.036-0.484,0.007-0.723,0.039c-0.199,0.026-0.369,0.168-0.361,0.357c0.008,0.158,0.111,0.355,0.238,0.454
	c0.202,0.154,0.455,0.244,0.691,0.353c0.347,0.162,0.706,0.297,1.044,0.475c0.571,0.303,0.841,0.792,0.794,1.436
	c-0.046,0.659-0.375,1.141-1.006,1.35c-0.979,0.324-1.953,0.263-2.939-0.104c0-0.354,0-0.682,0-1.076
	c0.183,0.064,0.321,0.111,0.458,0.162c0.478,0.185,0.972,0.281,1.483,0.238c0.166-0.016,0.34-0.041,0.487-0.107
	c0.377-0.176,0.442-0.604,0.111-0.854c-0.253-0.189-0.556-0.314-0.843-0.459c-0.341-0.171-0.699-0.313-1.032-0.496
	c-0.585-0.32-0.756-0.854-0.686-1.482c0.063-0.571,0.426-0.91,0.931-1.09C69.579,40.868,70.542,41.014,71.558,41.43z"/>
<path d="M131.484,41.359c-0.121,0.342-0.229,0.638-0.346,0.973c-0.275-0.073-0.521-0.145-0.767-0.2
	c-0.999-0.233-1.66,0.239-1.737,1.263c-0.025,0.364-0.033,0.738,0.016,1.103c0.084,0.608,0.42,1.226,1.336,1.137
	c0.436-0.041,0.859-0.161,1.324-0.253c0.117,0.294,0.073,0.619,0.02,0.946c-0.057,0.041-0.102,0.089-0.154,0.11
	c-0.882,0.353-1.765,0.373-2.629-0.03c-0.563-0.263-0.879-0.751-1.048-1.332c-0.21-0.72-0.228-1.451-0.051-2.181
	c0.254-1.047,0.899-1.67,1.987-1.83C130.139,40.963,130.796,41.076,131.484,41.359z"/>
<path d="M90.502,42.109c-0.258-0.022-0.451-0.041-0.688-0.064c-0.008-0.175-0.015-0.338-0.021-0.456
	c0.229-0.34,0.698-0.301,0.832-0.681c0.112-0.315,0.22-0.635,0.335-0.967c0.248,0,0.471,0,0.746,0c0,0.375,0,0.736,0,1.162
	c0.529,0,1.008,0,1.521,0c0,0.35,0,0.631,0,0.961c-0.496,0-0.963,0-1.457,0c-0.018,0.148-0.039,0.25-0.041,0.352
	c-0.002,0.797-0.006,1.593,0,2.391c0.006,0.704,0.326,0.967,1.023,0.853c0.162-0.025,0.324-0.046,0.516-0.074
	c0,0.312,0,0.581,0,0.896c-0.688,0.264-1.383,0.324-2.066-0.016c-0.35-0.172-0.542-0.496-0.612-0.874
	c-0.051-0.271-0.083-0.547-0.086-0.819C90.495,43.898,90.502,43.025,90.502,42.109z"/>
<path d="M104.663,46.561c-0.392,0-0.752,0-1.112,0c-0.097-0.32-0.132-6.924-0.033-7.599c0.364,0,0.736,0,1.146,0
	C104.663,41.499,104.663,44.014,104.663,46.561z"/>
<path d="M100.497,38.956c0.405,0,0.765,0,1.147,0c0,2.54,0,5.045,0,7.592c-0.375,0-0.744,0-1.147,0
	C100.497,44.025,100.497,41.521,100.497,38.956z"/>
<path d="M80.954,41.143c0.387,0,0.745,0,1.139,0c0,1.815,0,3.6,0,5.416c-0.39,0-0.751,0-1.106,0
	C80.889,46.223,80.857,41.788,80.954,41.143z"/>
<path d="M107.716,46.563c-0.465,0-0.812,0-1.19,0c0-1.813,0-3.598,0-5.416c0.387,0,0.746,0,1.177,0
	C107.736,42.951,107.714,44.746,107.716,46.563z"/>
<path d="M53.703,41.141c0,1.832,0,3.605,0,5.414c-0.384,0-0.743,0-1.101,0c-0.126-0.342-0.144-4.945-0.015-5.414
	C52.938,41.141,53.297,41.141,53.703,41.141z"/>
<path d="M81.512,39.079c0.41,0.001,0.652,0.243,0.657,0.66c0.007,0.448-0.228,0.685-0.674,0.681
	c-0.417-0.003-0.663-0.243-0.668-0.65C80.822,39.341,81.084,39.078,81.512,39.079z"/>
<path d="M53.12,40.42c-0.434-0.008-0.663-0.253-0.65-0.697c0.011-0.408,0.255-0.645,0.663-0.644c0.436,0.002,0.675,0.244,0.674,0.68
	C53.804,40.195,53.562,40.427,53.12,40.42z"/>
<path d="M107.759,39.734c0.009,0.424-0.219,0.67-0.628,0.686c-0.447,0.016-0.709-0.222-0.714-0.648
	c-0.005-0.434,0.247-0.69,0.679-0.691C107.504,39.078,107.752,39.32,107.759,39.734z"/>
<path fill="#FFFFFF" d="M125.965,25.439c-0.031-2.18-0.643-4.127-2.273-5.674c-1.098-1.04-2.426-1.545-3.894-1.468
	c-1.641,0.086-3.026,0.819-4.063,2.144c-0.926,1.18-1.428,2.516-1.582,4.002c-0.242,2.315,0.231,4.42,1.785,6.211
	c1.388,1.596,3.154,2.193,5.205,1.769c2.113-0.438,3.438-1.853,4.229-3.795C125.785,27.611,126.001,26.548,125.965,25.439z"/>
<path fill="#7E9F3E" d="M125.965,25.439c0.036,1.109-0.18,2.172-0.594,3.188c-0.792,1.943-2.115,3.355-4.229,3.795
	c-2.051,0.426-3.817-0.173-5.205-1.77c-1.554-1.789-2.027-3.896-1.785-6.21c0.154-1.486,0.656-2.822,1.582-4.002
	c1.037-1.324,2.424-2.057,4.063-2.144c1.468-0.077,2.796,0.428,3.894,1.468C125.322,21.312,125.934,23.259,125.965,25.439z"/>
</svg>
