<?xml version="1.0" encoding="utf-8" standalone="no"?>
<!DOCTYPE svg PUBLIC "-//W3C//DTD SVG 1.1//EN" "http://www.w3.org/Graphics/SVG/1.1/DTD/svg11.dtd">
<svg xmlns="http://www.w3.org/2000/svg" xmlns:xlink="http://www.w3.org/1999/xlink" version="1.1"
	width="512" height="467" viewBox="0 0 253 231" preserveAspectRatio="xMidYMid meet">
	<style type="text/css">
		.st0{fill:#393939;}
		.st1{fill:#FF016A;}
		.st2{fill:#858585;}
	</style>
	<g>
		<path class="st0" d="M98.5,225.9c-16.9,0-33.8,0.2-50.7-0.1c-8.5-0.1-16.8-1.4-23.7-7.3c-5.3-4.4-9-10-9.5-16.7 c-1.7-19.7,0-39.1,9.4-57c5.5-10.4,14-16.9,25.8-19c4.9-0.9,8.8,0.6,12.6,3.4c8.7,6.4,18.3,10.8,29.2,12.4 c13.5,1.9,25.8-1.1,37.2-7.9c7.5-4.5,14.1-10.6,24.2-7c11.3,4,18.8,11.7,23.2,22.3c6.9,16.4,9.2,33.6,7.5,51.3 c-1.2,12.8-11.3,23.3-24.2,24.4c-13.8,1.1-27.7,0.9-41.6,1.2C111.3,226,104.9,225.9,98.5,225.9z" />
		<path class="st0" d="M98.5,132.7c-26.1-0.5-46.5-21.6-45.9-47.8c0.5-23,19-44.7,46.6-44.8c25.9-0.1,46.3,21.6,45.8,47.9 C144.5,112.6,123.2,133.2,98.5,132.7z" />
		<path class="st1" d="M170.8,77.4c-14.7-0.3-26.2-12.2-25.9-27c0.3-13,10.8-25.3,26.3-25.3c14.6-0.1,26.1,12.2,25.9,27 C196.8,66,184.8,77.6,170.8,77.4z" />
		<path class="st1" d="M209.7,93.6c-0.7-6.5-3.2-13.4-8.2-15.6c-5.6-2.4-8.1,0.4-12.4,2.9c-6.4,3.9-9.5,4.7-19,4.7 c-3.1,0-9.3-0.6-12-1.7c1,7.1,0,17.8-8.7,31.2c5.2,0.4,13.7,1.7,18.3,5.3c0,0,5.4,3.3,9.6,7.9c7.1-0.1,9,0.6,16.5,0 c7.3-0.6,13.4-3.2,15-9.5C211.3,109.2,210.5,100.7,209.7,93.6z" />
		<path class="st2" d="M212.6,42.9c-10.6-0.2-19-8.8-18.7-19.6c0.2-9.4,7.8-18.3,19.1-18.3c10.6,0,18.9,8.8,18.7,19.6 C231.4,34.6,222.7,43.1,212.6,42.9z" />
		<path class="st2" d="M240.7,54.6c-0.5-4.7-2.3-9.7-5.9-11.3c-4-1.7-5.9,0.3-9,2.1c-4.7,2.8-6.9,3.4-13.7,3.4 c-2.3,0-6.7-0.4-8.7-1.3c0.7,5.1,0,12.9-6.3,22.6c3.8,0.3,9.9,1.2,13.3,3.8c0,0,3.9,2.4,7,5.7c5.1-0.1,6.5,0.4,11.9,0 c5.3-0.4,9.7-2.3,10.9-6.9C241.9,65.9,241.3,59.7,240.7,54.6z" />
	</g>
</svg>
