<?xml version="1.0" encoding="utf-8" standalone="no"?>
<!DOCTYPE svg PUBLIC "-//W3C//DTD SVG 1.1//EN" "http://www.w3.org/Graphics/SVG/1.1/DTD/svg11.dtd">
<svg xmlns="http://www.w3.org/2000/svg" xmlns:xlink="http://www.w3.org/1999/xlink" version="1.1"
	width="512" height="467" viewBox="0 0 253 231" preserveAspectRatio="xMidYMid meet">
	<style type="text/css">
		.st0{fill:#6ABDA0;}
		.st1{clip-path:url(#SVGID_2_);fill:#393939;}
		.st2{fill:#848484;}
		.st3{clip-path:url(#SVGID_4_);fill:#BFBFBF;}
		.st4{clip-path:url(#SVGID_6_);}
		.st5{fill:#FFFFFF;}
	</style>
	<g>
		<rect x="37.8" y="44.2" class="st0" width="16.8" height="170.9" />
		<rect x="196.2" y="44.2" class="st0" width="17.8" height="170.9" />
		<defs><rect id="SVGID_1_" x="63.4" y="8" width="128.9" height="36.8" /></defs>
		<clipPath id="SVGID_2_"><use xlink:href="#SVGID_1_" style="overflow:visible;" /></clipPath>
		<path class="st1" d="M178.1,27c0-3.6-1.2-6.6-3.7-9.1c-2.5-2.5-5.5-3.7-9.1-3.7H88.5c-3.6,0-6.6,1.2-9.1,3.7 c-2.5,2.5-3.7,5.5-3.7,9.1v18.6H54.4v170.7h145.1V45.6h-21.3V27z M102,28.6h50.1c5,0,9,4,9,9v8.1H92.8v-7.8 C92.8,32.7,96.9,28.6,102,28.6z M178.1,143.8" />
		<path class="st2" d="M16.7,53.2c-5.9,5.9-8.8,12.9-8.8,21.1v111c0,8.2,2.9,15.2,8.8,21.1c5.9,5.9,12.9,8.8,21.1,8.8h4.3V44.4 h-4.3C29.6,44.4,22.6,47.3,16.7,53.2L16.7,53.2z M16.7,53.2" />
		<path class="st2" d="M238.2,53.2c-5.9-5.9-12.9-8.8-21.1-8.8h-4.3v170.7h4.3c8.2,0,15.2-2.9,21.1-8.8c5.9-5.9,8.8-12.9,8.8-21.1 v-111C247,66.1,244,59.1,238.2,53.2L238.2,53.2z M238.2,53.2" />
		<defs><rect id="SVGID_3_" x="2" y="44.4" width="281.7" height="177.2" /></defs>
		<clipPath id="SVGID_4_"><use xlink:href="#SVGID_3_" style="overflow:visible;" /></clipPath>
		<path class="st3" d="M178.7,25.8c0-3.6-1.2-6.6-3.7-9.1c-2.5-2.5-5.5-3.7-9.1-3.7H89c-3.6,0-6.6,1.2-9.1,3.7 c-2.5,2.5-3.7,5.5-3.7,9.1v18.6H54.9v170.7H200V44.4h-21.3V25.8z M102.5,27.3h50.1c5,0,9,4,9,9v8.1H93.3v-7.8 C93.3,31.5,97.4,27.3,102.5,27.3z M178.7,142.6" />
		<defs><rect id="SVGID_5_" x="64.6" y="68.7" width="125.6" height="204.5" /></defs>
		<clipPath id="SVGID_6_"><use xlink:href="#SVGID_5_" style="overflow:visible;" /></clipPath>
		<path class="st4" d="M129.3,178.2" />
		<path class="st5" d="M124.7,79.3c28.2-1.2,51.9,20.6,53.1,48.5c1.2,28.1-20.6,51.9-48.5,53.1c-28.2,1.2-51.9-20.6-53.1-48.7 C74.9,104.2,96.7,80.3,124.7,79.3z" />
		<path class="st0" d="M127,93.8c-6.9,0-12.5,5.6-12.5,12.5v11.3h-11.3c-6.9,0-12.5,5.6-12.5,12.5c0,6.9,5.6,12.5,12.5,12.5h11.3 v11.4c0,6.9,5.6,12.5,12.5,12.5c6.9,0,12.5-5.6,12.5-12.5v-11.4h11.3c6.9,0,12.5-5.6,12.5-12.5c0-6.9-5.6-12.5-12.5-12.5h-11.3 v-11.3C139.5,99.4,133.9,93.8,127,93.8L127,93.8z M127,93.8" />
	</g>
</svg>
