<?xml version="1.0" encoding="utf-8" standalone="no"?>
<!DOCTYPE svg PUBLIC "-//W3C//DTD SVG 1.1//EN" "http://www.w3.org/Graphics/SVG/1.1/DTD/svg11.dtd">
<svg xmlns="http://www.w3.org/2000/svg" xmlns:xlink="http://www.w3.org/1999/xlink" version="1.1"
	width="512" height="467" viewBox="0 0 253 231" preserveAspectRatio="xMidYMid meet">
	<style type="text/css">
		.st0{clip-path:url(#SVGID_2_);fill:#393939;}
		.st1{fill:#98BC00;}
		.st2{clip-path:url(#SVGID_4_);fill:#848484;}
	</style>
	<g>
		<defs><rect id="SVGID_1_" x="18.7" y="10.4" width="220.8" height="215.1" /></defs>
		<clipPath id="SVGID_2_"><use xlink:href="#SVGID_1_" style="overflow:visible;" /></clipPath>
		<path class="st0" d="M234.1,202.1L215,124.2c-1.4-5.3-6.7-8.6-11.9-7.6c0,0-38.2,7.6-39.2,7.6c-7.2,13.4-14.8,26.3-22,38.2 c-3.4,5.3-9.1,8.6-15.3,8.6c-6.2,0-11.9-3.3-15.3-8.6c-11-18.2-22.9-39.2-32-58.8l-34.9,13.9c-2.9,1.4-5.3,3.8-6.2,7.2 l-19.1,76.9c-1,3.3,0,7.2,2.9,10c2.4,2.4,6.2,3.3,10,2.4l54-14.3c1.9-0.5,3.8-0.5,5.7,0l69.3,22.5c1.4,0.5,2.9,0.5,4.8,0.5 l59.7-7.7c2.9-0.5,5.7-1.9,7.2-4.3C234.1,208.3,235.1,204.9,234.1,202.1L234.1,202.1z M234.1,202.1" />
		<path class="st1" d="M126.6,157.1L126.6,157.1c1.4,0,2.4-1,3.4-1.9c11-17.7,44.4-75,44.4-97c0-26.3-21.5-47.8-47.8-47.8 c-26.3,0-47.8,21.5-47.8,47.8c0,22,33.5,79.3,44.5,97C124.2,156.2,125.6,157.1,126.6,157.1L126.6,157.1z M103.2,57.7 c0-12.4,10-23,22.9-23c12.4,0,22.9,10.1,22.9,23c0,12.4-10,22.9-22.9,22.9C113.2,80.7,103.2,70.6,103.2,57.7L103.2,57.7z M103.2,57.7" />
		<defs><rect id="SVGID_3_" x="18.7" y="10.4" width="220.8" height="215.1" /></defs>
		<clipPath id="SVGID_4_"><use xlink:href="#SVGID_3_" style="overflow:visible;" /></clipPath>
		<path class="st2" d="M234.1,202.1L215,124.2c-1.4-5.3-6.7-8.6-11.9-7.6c0,0-13.7,2.7-25,4.9c7.2,32.3,13.9,64.6,21.4,96.8l26-3.3 c2.9-0.5,5.7-1.9,7.2-4.3C234.1,208.3,235.1,204.9,234.1,202.1z" />
		<path class="st2" d="M234.1,202.1" />
	</g>
</svg>
