<?xml version="1.0" encoding="utf-8"?>
<!-- Generator: Adobe Illustrator 21.0.2, SVG Export Plug-In . SVG Version: 6.00 Build 0)  -->
<svg version="1.1" id="Capa_1" xmlns="http://www.w3.org/2000/svg" xmlns:xlink="http://www.w3.org/1999/xlink" x="0px" y="0px"
	 viewBox="0 0 253 231" style="enable-background:new 0 0 253 231;" xml:space="preserve">
<style type="text/css">
	.st0{fill:#ECF0F1;}
	.st1{fill:#0DA6C9;}
	.st2{fill:#393939;}
	.st3{fill:#848484;}
</style>
<g>
	<rect x="23.3" y="125.2" class="st0" width="49.5" height="3.5"/>
	<rect x="27.3" y="132.8" class="st0" width="41.5" height="2.7"/>
	<g>
		<path class="st1" d="M41.6,22.5L41.6,22.5c-2.3,0-4.5,0.9-6.1,2.5c-1.6,1.6-2.6,3.8-2.6,6.2v130.3c0,4.8,3.9,8.7,8.7,8.7
			c20.2,0,54.1,4.3,77.5,28.7V62.5c0-1.6-0.4-3.1-1.2-4.4C98.8,27.2,61.9,22.5,41.6,22.5L41.6,22.5z M41.6,22.5"/>
		<path class="st2" d="M218.9,161.5V31.2c0-2.3-0.9-4.5-2.6-6.2c-1.6-1.6-3.8-2.5-6.1-2.5h0c-20.3,0-57.1,4.7-76.3,35.6
			c-0.8,1.3-1.2,2.8-1.2,4.4v136.4c23.4-24.5,57.3-28.7,77.5-28.7C215,170.2,218.9,166.3,218.9,161.5L218.9,161.5z M218.9,161.5"/>
		<path class="st3" d="M238.7,52.6h-6.3v109c0,12.2-9.9,22.1-22.2,22.2c-17.2,0-45.4,3.4-65.5,22.4c34.7-8.5,71.2-3,92,1.8
			c2.6,0.6,5.3,0,7.4-1.7c2.1-1.7,3.3-4.1,3.3-6.8V61.2C247.4,56.4,243.5,52.6,238.7,52.6L238.7,52.6z M238.7,52.6"/>
		<path class="st3" d="M19.5,161.5v-109h-6.3c-4.8,0-8.7,3.9-8.7,8.7v138.1c0,2.7,1.2,5.1,3.3,6.8c2.1,1.7,4.8,2.3,7.4,1.7
			c20.8-4.7,57.4-10.3,92-1.8c-20-19-48.3-22.3-65.5-22.4C29.4,183.6,19.5,173.7,19.5,161.5L19.5,161.5z M19.5,161.5"/>
	</g>
</g>
</svg>
