<?xml version="1.0" encoding="utf-8"?>
<!-- Generator: Adobe Illustrator 21.0.2, SVG Export Plug-In . SVG Version: 6.00 Build 0)  -->
<svg version="1.1" id="Capa_1" xmlns="http://www.w3.org/2000/svg" xmlns:xlink="http://www.w3.org/1999/xlink" x="0px" y="0px"
	 viewBox="0 0 253 231" style="enable-background:new 0 0 253 231;" xml:space="preserve">
<style type="text/css">
	.st0{fill:#393939;}
	.st1{fill:#848484;}
	.st2{fill:#AA6455;}
	.st3{fill:#BFBFBF;}
</style>
<g>
	<g>
		<path class="st0" d="M181.9,124.5l-54.7-2.3l0.5-49.8l-67.3,7.9v88.4c0,0,68.4,17.4,98.1,6.3l23.4-40.7"/>
		<polygon class="st1" points="189.8,122.2 189.8,83.5 171.2,69.3 127.2,63.6 127.2,122.2 		"/>
		<path class="st2" d="M21.4,22.4H229c5.7,0,10.3,4.8,10.3,10.6v2.2c0,5.9-4.6,10.6-10.3,10.6H21.4c-5.7,0-10.3-4.8-10.3-10.6v-2.2
			C11.2,27.2,15.8,22.4,21.4,22.4z"/>
		<path class="st2" d="M149.8,207.7l3.3,9.8c1.5,4.6,5.8,7.7,10.6,7.7h0c7.6,0,13.1-7.5,10.6-14.7l-3.3-9.8
			c-1.5-4.6-5.8-7.7-10.6-7.7h0C152.8,192.9,147.4,200.4,149.8,207.7z M144.9,192.9"/>
		<path class="st2" d="M91.7,225.1L91.7,225.1c4.8,0,9.1-3.1,10.6-7.7l3.3-9.8c2.4-7.3-3-14.7-10.6-14.7h0c-4.8,0-9.1,3.1-10.6,7.7
			l-3.3,9.8C78.6,217.6,84.1,225.1,91.7,225.1z M76.2,225.1"/>
		<path class="st3" d="M44.2,186.4h167c8.5,0,15.5-6.9,15.5-15.5V72c0-8.5-6.9-15.5-15.5-15.5h-167c-8.5,0-15.5,6.9-15.5,15.5v99
			C28.7,179.5,35.7,186.4,44.2,186.4z M135.6,74.5c21.6,0,39,17.6,39,39.2h-39V74.5z M80.9,129.5c0-21.6,17.4-39.2,39-39.2v39h39
			c0,21.6-17.4,39-39,39C98.3,168.4,80.9,151,80.9,129.5L80.9,129.5z M80.9,129.5"/>
	</g>
	<path class="st2" d="M127.9,34.2h-2.9c-4,0-7.2-3.3-7.2-7.2V12.2c0-4,3.3-7.2,7.2-7.2h2.9c4,0,7.2,3.3,7.2,7.2v14.7
		C135.1,30.9,131.8,34.2,127.9,34.2z"/>
</g>
</svg>
