<?xml version="1.0" encoding="utf-8"?>
<!-- Generator: Adobe Illustrator 21.0.2, SVG Export Plug-In . SVG Version: 6.00 Build 0)  -->
<svg version="1.1" id="Capa_1" xmlns="http://www.w3.org/2000/svg" xmlns:xlink="http://www.w3.org/1999/xlink" x="0px" y="0px"
	 viewBox="0 0 253 231" style="enable-background:new 0 0 253 231;" xml:space="preserve">
<style type="text/css">
	.st0{fill:#393939;}
	.st1{fill:#848484;}
	.st2{fill:#BFBFBF;}
	.st3{fill:#FF7058;}
</style>
<g>
	<path class="st0" d="M226.6,36.2c-13.4,0-24.4,10.9-24.4,24.4c0,1.2,0.1,2.5,0.3,3.6l-56.9,33.2c-4.4-4.6-10.7-7.5-17.6-7.5
		c-8.6,0-16.2,4.5-20.5,11.2L50.7,78.9c0.1-0.7,0.1-1.5,0.1-2.2c0-13.4-10.9-24.4-24.4-24.4C13,52.3,2.1,63.3,2.1,76.7
		c0,13.4,10.9,24.4,24.4,24.4c6.7,0,12.9-2.8,17.3-7.2l60.1,23.5c1.5,12,11.8,21.2,24.2,21.2c13.4,0,24.4-10.9,24.4-24.4
		c0-0.6,0-1.2-0.1-1.7l58-33.9c4.3,3.9,10,6.2,16.3,6.2c13.4,0,24.4-10.9,24.4-24.4C251,47.1,240.1,36.2,226.6,36.2L226.6,36.2z
		 M26.5,84.6c-4.4,0-7.9-3.6-7.9-7.9c0-4.4,3.6-7.9,7.9-7.9s7.9,3.6,7.9,7.9C34.4,81.1,30.9,84.6,26.5,84.6L26.5,84.6z M128,122.2
		c-4.4,0-7.9-3.6-7.9-7.9c0-4.4,3.5-7.9,7.9-7.9c4.4,0,7.9,3.6,7.9,7.9C136,118.6,132.4,122.2,128,122.2L128,122.2z M226.6,68.5
		c-4.4,0-7.9-3.6-7.9-7.9c0-4.4,3.6-7.9,7.9-7.9c4.4,0,7.9,3.6,7.9,7.9C234.5,64.9,231,68.5,226.6,68.5L226.6,68.5z M226.6,68.5"/>
	<path class="st1" d="M209.9,94.1l-48.5,28.3c-1.7,15.7-14.2,28.2-29.9,29.8v42.9h90.3c11.9,0,21.6-9.7,21.6-21.6V94.2
		c-4.9,2.8-10.6,4.5-16.7,4.5C220.7,98.6,214.9,97.1,209.9,94.1L209.9,94.1z M209.9,94.1"/>
	<path class="st2" d="M96,128.7l-50.6-19.8c-5.5,3.8-12.1,5.9-18.9,5.9c-6.1,0-11.8-1.6-16.7-4.5v61.8c0,12.7,10.3,23,23,23h88.9
		v-43.3C109.6,149.4,99.7,140.5,96,128.7L96,128.7z M96,128.7"/>
	<circle class="st3" cx="227.2" cy="61" r="12.2"/>
	<circle class="st3" cx="128.3" cy="113.9" r="12.2"/>
	<circle class="st3" cx="26.6" cy="76.9" r="12.2"/>
</g>
</svg>
