<?xml version="1.0" encoding="utf-8"?>
<!-- Generator: Adobe Illustrator 21.0.2, SVG Export Plug-In . SVG Version: 6.00 Build 0)  -->
<svg version="1.1" id="Capa_1" xmlns="http://www.w3.org/2000/svg" xmlns:xlink="http://www.w3.org/1999/xlink" x="0px" y="0px"
	 viewBox="0 0 253 231" style="enable-background:new 0 0 253 231;" xml:space="preserve">
<style type="text/css">
	.st0{clip-path:url(#SVGID_2_);fill:#393939;}
	.st1{clip-path:url(#SVGID_2_);fill:#FFFFFF;}
	.st2{clip-path:url(#SVGID_2_);fill:#848484;}
	.st3{fill:#393939;}
	.st4{fill:#657C48;}
</style>
<g>
	<g>
		<defs>
			<polygon id="SVGID_1_" points="17.3,3.4 236.8,3.4 237.3,224.3 17.8,224.3 			"/>
		</defs>
		<clipPath id="SVGID_2_">
			<use xlink:href="#SVGID_1_"  style="overflow:visible;"/>
		</clipPath>
		<path class="st0" d="M112.5,143.4l-33.2-40c-2.2-2.6-5.2-4.2-8.6-4.4c-3.4-0.2-5.4,0.4-7.1,1.7c-4.8,3.6-1.3,8.9,1.4,14.3
			l18.8,25.9c0,0,2.3,3.1,2,5.4c0,0-0.1,1.2-2,2c-4.2,1.1-5.7,0.5-8,0c-2.3-0.5-9.3-4.6-9.3-4.6s-11.1-6.2-16-21.8
			c-3.6-11.3-6.6-53.1-6.6-53.1c-0.6-6-3.4-10.8-8.8-11.5c-3.7-0.5-6.3-0.1-9.1,2.3c-2.8,2.4-4.5,5.8-4.7,9.5l-3.9,57.2
			c-0.5,6.7,1.5,13.3,5.5,18.6l25.8,34.3c4.1,7.4,8.4,18.6,8.8,31.9c0.3,7,0.3,8.6,0.3,8.6c-0.1,1.1,0.3,2.1,1,2.9
			c0.7,0.8,1.8,1.3,2.8,1.3h0l54.8-0.1c2.1,0,3.8-1.7,3.9-3.8l0.5-53.1C121,158.3,118,150,112.5,143.4z"/>
		<path class="st0" d="M70.7,99c-3.4-0.2-5.2,0.7-7.1,1.7c-2.9,2.5-0.8,9.5,1.8,15.2"/>
		<path class="st1" d="M85.9,146.2c0,0-0.2,1-2,2c-3.7,1.4-5.6,0.1-6.8-0.1"/>
		<path class="st2" d="M142.1,143.8l33.2-40c2.2-2.6,5.2-4.2,8.6-4.4c3.4-0.2,5.4,0.4,7.1,1.7c4.8,3.6,1.3,8.9-1.4,14.3l-18.8,25.9
			c0,0-2.3,3.1-2,5.4c0,0,0.1,1.2,2,2c4.2,1.1,5.7,0.5,8,0c2.3-0.5,9.3-4.6,9.3-4.6s11.1-6.2,16-21.8c3.6-11.3,6.6-53.1,6.6-53.1
			c0.6-6,3.4-10.8,8.8-11.5c3.7-0.5,6.3-0.1,9.1,2.3c2.8,2.4,4.5,5.8,4.7,9.5l3.9,57.2c0.5,6.7-1.5,13.3-5.5,18.6l-25.8,34.3
			c-4.1,7.4-8.4,18.6-8.8,31.9c-0.3,7-0.3,8.6-0.3,8.6c0.1,1.1-0.3,2.1-1,2.9c-0.7,0.8-1.8,1.3-2.8,1.3h0l-54.8-0.1
			c-2.1,0-3.8-1.7-3.9-3.8l-0.5-53.1C133.6,158.7,136.6,150.4,142.1,143.8z"/>
	</g>
	<path class="st3" d="M127,129.7"/>
	<path class="st4" d="M195,46.9c0-9.5-3.7-18.5-10.5-25.3c-6.8-6.8-15.7-10.5-25.3-10.5c-9.5,0-18.5,3.7-25.3,10.5l-4.2,4.2
		c-0.7,0.7-1.7,1.1-2.7,1.1c-1,0-2-0.4-2.7-1.1l-4.2-4.2c-6.8-6.8-15.7-10.5-25.3-10.5c-9.5,0-18.5,3.7-25.3,10.5
		c-13.9,13.9-13.9,36.6,0,50.6l40.4,40.4c1.9,2,5.2,5.4,8.6,8c3.2,2.4,3.7,3.7,9.6,3.7c0,0,3,0.2,6.9-3.1
		c3.5-3.8,10.9-10.3,19.8-19.3c1-1,1.8-1.9,2.5-2.8l27.2-26.9C191.3,65.4,195,56.5,195,46.9z"/>
</g>
</svg>
