<?xml version="1.0" encoding="utf-8"?>
<!-- Generator: Adobe Illustrator 21.0.2, SVG Export Plug-In . SVG Version: 6.00 Build 0)  -->
<svg version="1.1" id="Capa_1" xmlns="http://www.w3.org/2000/svg" xmlns:xlink="http://www.w3.org/1999/xlink" x="0px" y="0px"
	 viewBox="0 0 253 231" style="enable-background:new 0 0 253 231;" xml:space="preserve">
<style type="text/css">
	.st0{clip-path:url(#SVGID_2_);fill:#7878D1;}
	.st1{clip-path:url(#SVGID_2_);fill:#BFBFBF;}
	.st2{clip-path:url(#SVGID_2_);fill:#393939;}
	.st3{fill:#393939;}
	.st4{fill:#7878D1;}
	.st5{fill:#BFBFBF;}
</style>
<g>
	<g>
		<defs>
			<rect id="SVGID_1_" x="36" y="9" width="179.3" height="215.3"/>
		</defs>
		<clipPath id="SVGID_2_">
			<use xlink:href="#SVGID_1_"  style="overflow:visible;"/>
		</clipPath>
		<path class="st0" d="M147.3,31.2c27.3,0,46.3,26.2,43.1,52.2c-2.7,21.4-21.7,38.3-43.3,38.3h-25.6v24.9h25.6
			c30.1,0,56.9-20.4,65.4-49.2c2.6-8.9,3.5-18.4,2.3-27.7c-0.8-6.2-2.4-12.2-4.8-18c-7.8-18.9-23.8-34.3-44-39.9
			c-15.1-4.2-31.6-3.5-46.3,2.3c-7.6,3-14.8,7.3-20.9,12.8c-3.8,3.3-6.7,7.2-9.3,11.4h34.5C130.6,33.9,138.8,31.2,147.3,31.2
			L147.3,31.2z M147.3,31.2"/>
		<path class="st1" d="M93.4,113.3v37.7c5.6,1.4,12.7,3.3,20.4,5.9v-43.6c30.3-4.5,54-29.1,57.4-59.7c0.5-4-2.7-7.5-6.7-7.5H42.8
			c-4.1,0-7.2,3.5-6.7,7.5C39.4,84.2,63.1,108.7,93.4,113.3L93.4,113.3z M93.4,113.3"/>
		<path class="st2" d="M103.9,113.9c-4-0.1-10.4-0.6-10.5-0.6c0.1,0-0.1,0,0,0v37.7c5.6,1.4,12.7,3.3,20.4,5.9v-43.6
			C110.4,113.5,107.3,113.9,103.9,113.9z"/>
	</g>
	<path class="st3" d="M93.3,202.9c1.4,1.8,6.7,1.6,8.8,1.6c3.2,0,8.8,0.1,12-1.6c-0.1-0.1-0.3-0.1-0.4-0.2V198
		c-7.2-3-14.3-4.6-20.4-6.3v11c-0.1,0-0.1,0.1-0.2,0.1C93.2,202.8,93.3,202.9,93.3,202.9z"/>
	<path class="st3" d="M123.6,224.1"/>
	<path class="st4" d="M85.5,146.7v-25c-16.3,0.7-26,14.1-26,30.6c0,10.5,5.6,20.6,14.6,26.1c4.3,2.7,9.3,3.7,14.1,5h0
		c22.1,5.5,44.6,14.9,62.1,29.8c2.4,2,5.2,3,8.1,3c3.5,0,7-1.5,9.5-4.3c0.3-0.3,0.5-0.7,0.8-1c0.4-0.6,0.7-1.2,1-1.8
		c0.1-0.2,0.2-0.4,0.3-0.6c0.2-0.5,0.4-1,0.5-1.5c1.1-4.4-0.2-9.3-4-12.5c-15.4-13.2-33.7-22.6-52.7-29.2c-5.9-2.1-11.9-3.9-18-5.5
		c-2.2-0.6-4.5-1.1-6.7-1.6C79,155.8,79,148.1,85.5,146.7L85.5,146.7z M85.5,146.7"/>
	<path class="st5" d="M127,220.2c-1-5.9-4.2-11.1-8.7-14.7c-0.7-0.6-1.5-1.1-2.3-1.6c-0.5-0.3-1.7-1-2.3-1.2c-7.3,0.2-13,0-20.4,0
		c-0.4,0.2-1.9,0.9-2.2,1.1c-0.8,0.5-1.6,1.1-2.3,1.7c-4.5,3.6-7.7,8.8-8.7,14.7c-0.3,2.1,1.2,4,3.3,4h40.2
		C125.7,224.1,127.3,222.2,127,220.2z"/>
	<path class="st3" d="M123.6,224.1"/>
</g>
</svg>
