<?xml version="1.0" encoding="utf-8"?>
<!-- Generator: Adobe Illustrator 21.0.2, SVG Export Plug-In . SVG Version: 6.00 Build 0)  -->
<svg version="1.1" id="Capa_1" xmlns="http://www.w3.org/2000/svg" xmlns:xlink="http://www.w3.org/1999/xlink" x="0px" y="0px"
	 viewBox="0 0 253 231" style="enable-background:new 0 0 253 231;" xml:space="preserve">

	 <?xml-stylesheet type="text/css" href="re.css" ?>
<style type="text/css">
.st0{fill:#962A2A;}
	.st1{fill:#848484;}
	.st2{fill:#393939;}

	.st0;hover{fill:#dfdfdf;}
	.st1:hover{fill:#dfdfdf;}
	.st2:hover{fill:#dfdfdf;}


</style>
<g>
	<g>
		<path class="st0" d="M230.5,57.4V17c0-4.6-3.6-7.3-8-5.9l-65.8,22.4c-3.5,1.1-6.4,5-6.4,8.7v14.3
			C177.1,55.9,203.8,56.3,230.5,57.4z"/>
		<g>
			<path class="st1" d="M244,53.3H92.6c-4.9,0-7.7,3.8-6.3,8.5l23.9,70.1c1.2,3.8,5.4,6.8,9.3,6.8h99.3c4,0,8.1-3.1,9.3-6.8
				l20.9-71.8C250.3,56.3,248,53.3,244,53.3L244,53.3z M244,53.3"/>
			<path class="st0" d="M132.8,205.4c0,11.7-9.5,21.2-21.2,21.2c-11.7,0-21.2-9.5-21.2-21.2s9.5-21.2,21.2-21.2
				C123.3,184.2,132.8,193.7,132.8,205.4L132.8,205.4z M132.8,205.4"/>
			<path class="st0" d="M222.6,205.7c0,11.7-9.5,21.2-21.2,21.2c-11.7,0-21.2-9.5-21.2-21.2c0-11.7,9.5-21.2,21.2-21.2
				C213.1,184.5,222.6,194,222.6,205.7L222.6,205.7z M222.6,205.7"/>
			<path class="st2" d="M226.9,151.3H102.7L53,8.3H14.3c-6.6,0-12,5.4-12,12c0,6.6,5.4,12,12,12h21.6l49.7,143h141.3
				c6.6,0,12-5.4,12-12C238.9,156.7,233.5,151.3,226.9,151.3L226.9,151.3z M226.9,151.3"/>
		</g>
	</g>
</g>
</svg>
