<?xml version="1.0" encoding="utf-8"?>
<!-- Generator: Adobe Illustrator 21.0.2, SVG Export Plug-In . SVG Version: 6.00 Build 0)  -->
<svg version="1.1" id="Capa_1" xmlns="http://www.w3.org/2000/svg" xmlns:xlink="http://www.w3.org/1999/xlink" x="0px" y="0px"
	 viewBox="0 0 253 231" style="enable-background:new 0 0 253 231;" xml:space="preserve">
<style type="text/css">
	.st0{fill:#0C4384;}
	.st1{fill:#BFBFBF;}
	.st2{fill:#848484;}
	.st3{fill:#393939;}
</style>
<g>
	<circle class="st0" cx="129.8" cy="118.7" r="62"/>
	<g>
		<path class="st1" d="M127.2,45.7c-38.6,0-70.1,31.6-70.1,70.1c0,38.6,31.6,70.1,70.1,70.1c38.6,0,70.1-31.6,70.1-70.1
			C197.3,77.3,165.8,45.7,127.2,45.7L127.2,45.7z M175.6,87.8h-20.3c-2.1-9.1-5.6-16.9-9.8-25.2C158.1,67.4,169.3,75.8,175.6,87.8
			L175.6,87.8z M127.2,59.7c5.6,8.4,10.5,17.5,13.3,28h-26.7C116.7,77.9,121.6,68.1,127.2,59.7L127.2,59.7z M73.2,129.9
			c-1.4-4.2-2.1-9.1-2.1-14c0-4.9,0.7-9.8,2.1-14H97c-0.7,4.9-0.7,9.1-0.7,14c0,4.9,0.7,9.1,0.7,14H73.2z M78.8,143.9h20.3
			c2.1,9.1,5.6,16.9,9.8,25.2C96.3,164.2,85.1,155.8,78.8,143.9L78.8,143.9z M99.2,87.8H78.8c7-11.9,17.5-20.3,30.2-25.2
			C104.8,70.9,101.2,78.7,99.2,87.8L99.2,87.8z M127.2,171.9c-5.6-8.4-10.5-17.5-13.3-28h26.7C137.7,153.7,132.8,163.5,127.2,171.9
			L127.2,171.9z M143.3,129.9h-32.3c-0.7-4.9-1.4-9.1-1.4-14c0-4.9,0.7-9.1,1.4-14h33c0.7,4.9,1.4,9.1,1.4,14
			C145.4,120.7,144,124.9,143.3,129.9L143.3,129.9z M145.4,169.1c4.2-7.7,7.7-16.1,9.8-25.2h20.3
			C169.3,155.8,158.1,164.2,145.4,169.1L145.4,169.1z M158.1,129.9c0.7-4.9,0.7-9.1,0.7-14c0-4.9-0.7-9.1-0.7-14h23.8
			c1.4,4.2,2.1,9.1,2.1,14c0,4.9-0.7,9.8-2.1,14H158.1z M158.1,129.9"/>
	</g>
	<g>
		<path class="st2" d="M200,182.1c0-0.2-0.1-0.4-0.1-0.7c0,0,0-0.1,0-0.1c0-0.2-0.1-0.3-0.1-0.5l-0.1-0.2c-0.1-0.2-0.1-0.3-0.2-0.5
			c0,0,0-0.1-0.1-0.2c-0.1-0.2-0.2-0.3-0.3-0.5l-0.1-0.1c-0.1-0.2-0.3-0.4-0.4-0.6c-0.1-0.1-0.1-0.1-0.2-0.2
			c-0.1-0.1-0.2-0.2-0.2-0.3l0,0c0,0-0.1-0.1-0.1-0.1c0,0-0.1-0.1-0.1-0.1c-0.1-0.1-0.2-0.2-0.4-0.3l-0.2-0.1
			c-0.2-0.1-0.3-0.2-0.5-0.3l-0.2-0.1c-0.4-0.2-0.8-0.4-1.3-0.5c-0.1,0-0.1,0-0.2,0l0,0c-0.2,0-0.3-0.1-0.6-0.1c-0.1,0-0.1,0-0.2,0
			c-0.2,0-0.4,0-0.5,0l-0.2,0c-0.2,0-0.5,0-0.7,0v0c-0.5,0.1-3,0.3-16,1.8c-1.6,0.2-3.1,1-4.1,2.3c-1,1.3-1.5,2.9-1.3,4.5
			c0.2,1.6,1,3.1,2.3,4.1c0.4,0.3,0.7,0.5,1.1,0.7c-35.1,23-81.9,18.6-112.1-11.6c-16.9-16.9-26.2-39.3-26.2-63.2
			c0-3.4-2.8-6.2-6.2-6.2c-3.4,0-6.2,2.8-6.2,6.2c0,27.2,10.6,52.7,29.8,71.9s44.8,29.8,71.9,29.8c20.7,0,40.3-6,57.1-17.5
			c0.5,2.1,2,4,4.3,4.6c0.6,0.2,1.1,0.2,1.7,0.2c2.7,0,5.1-1.8,5.9-4.4l4.5-15.3l0-0.1c0.1-0.2,0.1-0.4,0.2-0.7l0-0.2
			c0-0.2,0-0.3,0.1-0.5l0-0.1c0-0.1,0-0.1,0-0.2c0-0.2,0-0.4,0-0.5L200,182.1z M197.1,183.1L197.1,183.1L197.1,183.1L197.1,183.1z
			 M197.1,182.9L197.1,182.9L197.1,182.9L197.1,182.9z"/>
		<path class="st3" d="M198.2,43.2C179,24,153.5,13.4,126.3,13.4c-20.7,0-40.3,6-57.1,17.5c-0.5-2.1-2-4-4.3-4.6
			c-3.3-1-6.7,0.9-7.6,4.2l-4.5,15.4l0,0.1c-0.1,0.2-0.1,0.4-0.1,0.6c0,0.1,0,0.1,0,0.2c0,0.2,0,0.3,0,0.5c0,0.1,0,0.1,0,0.2
			c0,0.2,0,0.3,0,0.5l0,0.2c0,0.2,0.1,0.5,0.1,0.7c0,0,0,0.1,0,0.1c0,0.2,0.1,0.3,0.2,0.5l0.1,0.1c0.1,0.2,0.1,0.3,0.2,0.5l0.1,0.2
			c0.1,0.2,0.2,0.3,0.3,0.5l0.1,0.2c0.1,0.2,0.3,0.4,0.4,0.5c0.1,0.1,0.1,0.2,0.2,0.2c0.1,0.1,0.1,0.1,0.2,0.2l0.1,0.1
			c0,0,0.1,0.1,0.1,0.1c0.1,0.1,0.2,0.2,0.3,0.3c0.1,0,0.1,0.1,0.2,0.1l0,0c0.1,0.1,0.2,0.2,0.4,0.2c0.1,0,0.1,0.1,0.2,0.1
			c0.1,0.1,0.2,0.1,0.4,0.2c0.1,0,0.1,0.1,0.2,0.1c0.1,0.1,0.3,0.1,0.4,0.2c0.1,0,0.1,0,0.2,0.1c0.1,0,0.3,0.1,0.4,0.1
			c0.1,0,0.1,0,0.2,0.1c0.1,0,0.3,0.1,0.4,0.1l0,0c0.1,0,0.1,0,0.2,0c0.2,0,0.4,0,0.6,0c0.2,0,0.4,0,0.7,0v0c0.4,0,2.7-0.3,16-1.8
			c3.4-0.4,5.8-3.4,5.4-6.8c-0.2-2.2-1.6-3.9-3.4-4.8c35.1-23,81.9-18.6,112.1,11.6c16.9,16.9,26.2,39.3,26.2,63.2
			c0,3.4,2.8,6.2,6.2,6.2c3.4,0,6.2-2.8,6.2-6.2C228,87.9,217.4,62.4,198.2,43.2z M57.6,50.6L57.6,50.6L57.6,50.6L57.6,50.6z"/>
	</g>
</g>
</svg>
