<?xml version="1.0" encoding="utf-8"?>
<!-- Generator: Adobe Illustrator 21.0.2, SVG Export Plug-In . SVG Version: 6.00 Build 0)  -->
<svg version="1.1" id="Capa_1" xmlns="http://www.w3.org/2000/svg" xmlns:xlink="http://www.w3.org/1999/xlink" x="0px" y="0px"
	 viewBox="0 0 253 231" style="enable-background:new 0 0 253 231;" xml:space="preserve">
<style type="text/css">
	.st0{fill:#848484;}
	.st1{fill:#393939;}
	.st2{fill:#805A8E;}
	.st3{fill:#BFBFBF;}
</style>
<g>
	<path class="st0" d="M105.2,204.5c-2-13.9-3.9-28.4-9.4-41.4l-0.2,0.1l-0.1-0.8c-0.5-1.1-1-2.3-1.6-3.4c-0.8-1.6-0.6-3.1,0.2-4.3
		l-9.6-52.7c0-1.6-3.8-2.9-1-2.9L49,99.4c-2.9,0.2-2.9,1.9-2.9,2.7v118.3c0,1.6,1.3,2.8,2.8,2.8h59.4
		C107,217,106.1,210.8,105.2,204.5z"/>
	<path class="st0" d="M188.4,188.2"/>
	<path class="st1" d="M370.2-14.9"/>
	<path class="st2" d="M203,132.3c-2.5-1.3-5.4-1.2-7.8,0.4l-40.8,27.2V139c0-2.8-1.6-5.4-4-6.7c-2.5-1.3-5.5-1.2-7.8,0.4l-46.5,28.7
		c-4.1,20.5-2.5,39.6-5.1,60.3c-0.1,0.6-0.2,1.1-0.5,1.5h113.7c1.6,0,2.8-1.3,2.8-2.8V139C207,136.2,205.5,133.6,203,132.3z
		 M136.7,188.2c0,1.1-0.9,2-2,2h-13.8c-1.1,0-2-0.9-2-2v-13.8c0-1.1,0.9-2,2-2h13.8c1.1,0,2,0.9,2,2V188.2z M188.4,188.2
		c0,1.1-0.9,2-2,2h-13.8c-1.1,0-2-0.9-2-2v-13.8c0-1.1,0.9-2,2-2h13.8c1.1,0,2,0.9,2,2V188.2z"/>
	<path class="st2" d="M403.5,290.7"/>
	<path class="st2" d="M48.2,92h36c1.2,0,2.1-0.8,2.1-2l-2.6-16.8c-0.1-2.4-1.2-3.2-2.8-3.2l-32.5,0c-1.7,0-2.3,1.3-2.3,3.1V90
		C46.1,91.2,47.1,92,48.2,92L48.2,92z M48.2,92"/>
	<path class="st1" d="M97.3,161.6l-10.2-59.5c0-1.6-1.2-2.9-2.7-2.9l-20.1,0.1l11.1,124h32.2L97.3,161.6z"/>
	<path class="st1" d="M97.3,161.6c0-0.6-10.2-59.5-10.2-59.5"/>
	<path class="st0" d="M65.4,21.2c-2.2-1.1-4.6-1.7-7.1-1.7c-8.5,0-15.4,6.9-15.4,15.4s6.9,15.4,15.4,15.4h25.7
		c11.3,0,20.6-9.2,20.6-20.6S95.4,9.2,84.1,9.2C75.9,9.2,68.7,14.1,65.4,21.2z"/>
	<path class="st3" d="M149.1,71.2c-2.2-1.1-4.6-1.7-7.1-1.7c-8.5,0-15.4,6.9-15.4,15.4s6.9,15.4,15.4,15.4h25.7
		c11.3,0,20.6-9.2,20.6-20.6s-9.2-20.6-20.6-20.6C159.6,59.2,152.4,64.1,149.1,71.2z"/>
</g>
</svg>
