<?xml version="1.0" encoding="utf-8" standalone="no"?>
<!DOCTYPE svg PUBLIC "-//W3C//DTD SVG 1.1//EN" "http://www.w3.org/Graphics/SVG/1.1/DTD/svg11.dtd">
<svg xmlns="http://www.w3.org/2000/svg" xmlns:xlink="http://www.w3.org/1999/xlink" version="1.1"
	width="512" height="512" viewBox="-256 -256 1024 1024" preserveAspectRatio="xMidYMid meet">
	<g id="image">
		<path fill="#6c757d" d="M 93.5,0 C 72.796875,0 56,16.796875 56,37.5 v 275 c 0,20.70312 16.796875,37.5 37.5,37.5 h 325 c 20.70312,0 37.5,-16.79688 37.5,-37.5 V 37.5 C 456,16.796875 439.20312,0 418.5,0 Z m 0,25 h 82.8125 C 178.89062,25 181,27.109375 181,29.6875 v 15.625 C 181,47.890625 178.89062,50 176.3125,50 H 85.6875 C 83.109375,50 81,47.890625 81,45.3125 V 37.5 C 81,30.625 86.625,25 93.5,25 Z m 332.8125,75 H 85.6875 C 83.109375,100 81,97.890625 81,95.3125 V 67.1875 C 81,64.609375 83.109375,62.5 85.6875,62.5 H 193.5 L 217.09375,27.109375 C 217.95312,25.78125 219.4375,25 221,25 h 197.5 c 6.875,0 12.5,5.625 12.5,12.5 V 95.3125 C 431,97.890625 428.89062,100 426.3125,100 Z M 256,306.25 c -51.71875,0 -93.75,-42.03125 -93.75,-93.75 0,-51.71875 42.03125,-93.75 93.75,-93.75 51.71875,0 93.75,42.03125 93.75,93.75 0,51.71875 -42.03125,93.75 -93.75,93.75 z m 0,-162.5 c -37.89063,0 -68.75,30.85937 -68.75,68.75 0,37.89062 30.85937,68.75 68.75,68.75 37.89062,0 68.75,-30.85938 68.75,-68.75 0,-37.89063 -30.85938,-68.75 -68.75,-68.75 z M 218.5,225 c -6.875,0 -12.5,-5.625 -12.5,-12.5 0,-27.57813 22.42187,-50 50,-50 6.875,0 12.5,5.625 12.5,12.5 0,6.875 -5.625,12.5 -12.5,12.5 -13.75,0 -25,11.25 -25,25 0,6.875 -5.625,12.5 -12.5,12.5 z" />
	</g>
	<g id="text">
		<path fill="#6c757d" d="M -4.9591064e-7,480.85437 H 10.204818 v -82.69879 h 2.518072 l 35.650598,82.69879 H 67.060233 V 389.14354 H 56.987945 v 82.69878 H 54.204813 L 19.084335,389.14354 H -4.9591064e-7 Z" />
		<path fill="#6c757d" d="m 112.50771,413.26402 c -20.939758,0 -28.361444,10.86746 -28.361444,33.66264 0,24.12048 6.096385,35.25301 28.361444,35.25301 22.39759,0 28.36144,-11.13253 28.36144,-35.25301 0,-22.79518 -7.28915,-33.66264 -28.36144,-33.66264 z m 0,60.30119 c -15.638553,0 -18.156626,-7.81927 -18.156626,-26.63855 0,-18.42168 4.108434,-25.04819 18.156626,-25.04819 14.18072,0 18.15662,6.62651 18.15662,25.04819 0,18.81928 -2.38554,26.63855 -18.15662,26.63855 z" />
		<path fill="#6c757d" d="m 186.20066,480.85437 h 9.93976 v -66.26505 h -9.93976 z m 0,-81.24095 h 9.93976 V 388.0833 h -9.93976 z" />
		<path fill="#6c757d" d="m 225.13139,480.85437 v -53.80722 c 0,0 8.34939,-4.90362 17.75903,-4.90362 12.06024,0 13.91566,6.22892 13.91566,24.51807 v 34.19277 h 9.93976 v -34.45783 c 0,-7.9518 -0.53012,-16.3012 -1.72289,-19.34939 0,0 8.87952,-4.90362 18.68674,-4.90362 11.92771,0 13.91566,6.49398 13.91566,23.98795 v 34.72289 h 9.93976 v -34.98795 c 0,-23.98795 -4.37349,-32.6024 -22.39759,-32.6024 -11.79518,0 -23.59035,6.75903 -23.59035,6.75903 -3.44579,-4.77108 -8.3494,-6.75903 -17.22892,-6.75903 -9.40964,0 -19.34939,5.96385 -19.34939,5.96385 v -4.63855 h -9.80723 v 66.26505 z" />
		<path fill="#6c757d" d="m 372.76165,434.60136 c 0,-14.44578 -6.36144,-21.33734 -21.33735,-21.33734 -11.39758,0 -25.9759,2.91566 -25.9759,2.91566 l 0.39759,7.55421 c 0,0 15.77109,-1.72289 25.04819,-1.72289 7.95181,0 11.92771,3.31326 11.92771,12.59036 v 5.6988 l -20.80722,1.98795 c -13.6506,1.3253 -20.27711,6.89156 -20.27711,19.61446 0,13.38554 6.62651,20.2771 18.68675,20.2771 11.92771,0 23.85541,-5.3012 23.85541,-5.3012 3.97591,3.9759 8.74699,5.3012 15.77109,5.3012 l 0.39759,-7.81928 c -4.24097,-0.53012 -7.42169,-1.98795 -7.68675,-5.83132 z m -9.93976,13.25301 v 21.86747 c 0,0 -11,4.10843 -20.80722,4.10843 -6.75904,0 -10.07229,-4.50602 -10.07229,-12.19277 0,-7.28915 3.18072,-11.13252 11.26506,-11.9277 z" />
		<path fill="#6c757d" d="m 418.08073,511.99894 c 18.68674,0 29.42168,-6.09638 29.42168,-21.07228 0,-15.77108 -6.75903,-19.48193 -25.57831,-19.48193 -14.9759,0 -16.03614,-0.79518 -16.03614,-6.09638 0,-1.72289 2.38554,-7.55422 2.38554,-7.55422 1.45783,0.26506 5.16868,0.53012 6.49398,0.53012 16.96385,0 25.57831,-5.16867 25.57831,-22.39759 0,-7.02409 -1.85542,-10.73493 -4.3735,-13.25301 l 12.59036,0.26506 v -8.48192 l -19.61445,0.53012 c 0,0 -7.15663,-1.72289 -13.78313,-1.72289 -14.71084,0 -24.78313,6.36144 -24.78313,22.66264 0,12.19277 4.90361,17.49398 10.46988,20.01205 0,0 -4.50603,7.95181 -4.50603,10.46988 0,4.10843 1.3253,7.55421 3.71085,9.14458 -6.89157,5.16867 -10.46988,8.74698 -10.46988,16.43373 0,15.37349 7.55421,20.01204 28.49397,20.01204 z m 3.04819,-31.80722 c 12.06024,0 16.30121,1.06024 16.30121,11.13253 0,8.74699 -5.96386,12.3253 -19.21687,12.3253 -14.9759,0 -18.81928,-3.31325 -18.81928,-12.45783 0,-5.16868 1.85543,-7.55422 7.42169,-11.66265 0,0 9.6747,0.66265 14.31325,0.66265 z m -5.96385,-29.81927 c -10.33735,0 -14.84337,-3.97591 -14.84337,-14.44579 0,-10.46987 4.50602,-14.57831 14.84337,-14.57831 11.13253,0 15.24096,4.10844 15.24096,14.57831 0,10.46988 -4.10843,14.44579 -15.24096,14.44579 z" />
		<path fill="#6c757d" d="m 485.09748,473.43268 c -12.98795,0 -17.36144,-7.42168 -17.36144,-21.6024 h 43.73494 l 0.53012,-7.55422 c 0,-21.73494 -9.01205,-31.01204 -26.63855,-31.01204 -16.83133,0 -27.6988,9.67469 -27.6988,34.85541 0,22.53012 6.49398,34.06024 26.24096,34.06024 10.73494,0 25.84337,-2.12048 25.84337,-2.12048 l -0.26506,-7.81928 c 0,0 -14.44578,1.19277 -24.38554,1.19277 z m -17.49397,-29.55421 c 0.13253,-16.03614 6.49398,-22.26506 17.75904,-22.26506 11.66264,0 16.69879,5.83133 16.69879,22.26506 z" />
	</g>
</svg>
