<?xml version="1.0" encoding="utf-8" standalone="no"?>
<!DOCTYPE svg PUBLIC "-//W3C//DTD SVG 1.1//EN" "http://www.w3.org/Graphics/SVG/1.1/DTD/svg11.dtd">
<svg xmlns="http://www.w3.org/2000/svg" xmlns:xlink="http://www.w3.org/1999/xlink" version="1.1"
	width="512" height="467" viewBox="0 0 253 231" preserveAspectRatio="xMidYMid meet">
	<style type="text/css">
		.st0{fill:#BFBFBF;}
		.st1{fill:#D19D09;}
		.st2{clip-path:url(#SVGID_2_);fill:#D19D09;}
		.st3{clip-path:url(#SVGID_2_);fill:#393939;}
		.st4{fill:#ACABB1;}
	</style>
	<g>
		<path class="st0" d="M195.3,189.9H58.7c-6,0-10.9,4.9-10.9,10.9c0,6,4.9,10.9,10.9,10.9h136.7c6.1,0,10.9-4.9,10.9-10.9 C206.3,194.8,201.4,189.9,195.3,189.9L195.3,189.9z M195.3,189.9" />
		<path class="st1" d="M45,107.9v27.3c0,4.5,3.7,8.2,8.2,8.2s8.2-3.7,8.2-8.2v-27.3c0-4.5-3.7-8.2-8.2-8.2 C48.7,99.7,45,103.4,45,107.9L45,107.9z M45,107.9" />
		<path class="st1" d="M72.3,97v38.3c0,4.5,3.7,8.2,8.2,8.2c4.5,0,8.2-3.7,8.2-8.2V97c0-4.5-3.7-8.2-8.2-8.2 C76,88.8,72.3,92.5,72.3,97L72.3,97z M72.3,97" />
		<defs><rect id="SVGID_1_" x="6.7" y="21.4" width="242.6" height="190.9" /></defs>
		<clipPath id="SVGID_2_"><use xlink:href="#SVGID_1_" style="overflow:visible;" /></clipPath>
		<path class="st2" d="M99.7,86.1v49.2c0,4.5,3.7,8.2,8.2,8.2s8.2-3.7,8.2-8.2V86.1c0-4.5-3.7-8.2-8.2-8.2S99.7,81.5,99.7,86.1 L99.7,86.1z M99.7,86.1" />
		<path class="st3" d="M236.3,20.5H16c-5.1,0-9.3,4.2-9.3,9.3v138.3c0,6,4.9,10.9,10.9,10.9h208.6c-0.3-0.3-0.7-0.5-1-0.8L210.2,163 c-8.7,4.9-18.6,7.6-28.7,7.6c-13.8,0-26.9-4.8-37.4-13.5H35.7c-3.9,0-7.1-3.2-7.1-7.1v-90V48.8c0-3.6,2.9-6.5,6.5-6.5h4.6h179.9 c3.2,0,5.8,2.6,5.8,5.8v25.1c9.5,10.7,14.8,24.3,14.8,38.8c0,10.1-2.6,20-7.5,28.7l14.6,14.7V31.4 C247.3,25.4,242.4,20.5,236.3,20.5L236.3,20.5z M236.3,20.5" />
		<path class="st4" d="M223.6,147.1c-1.1-1.1-2.6-1.5-4-1.4l-2.3-2.3c7.7-8.7,11.9-19.8,11.9-31.5c0-12.7-4.9-24.7-14-33.7 c-9-9-21-14-33.8-14c-12.7,0-24.7,5-33.7,14c-9,9-14,21-14,33.7c0,12.7,5,24.7,14,33.8c9,9,21,14,33.7,14 c11.7,0,22.8-4.2,31.5-11.9l2.3,2.3c-0.2,1.4,0.3,2.9,1.4,4l16.4,16.4c0.9,1,2.2,1.4,3.4,1.4c1.2,0,2.5-0.5,3.5-1.4 c1.9-1.9,1.9-5,0-6.9L223.6,147.1z M208.3,138.8c-7.2,7.2-16.7,11.1-26.8,11.1c-10.1,0-19.6-3.9-26.8-11.1 c-7.2-7.2-11.1-16.7-11.1-26.8c0-10.1,3.9-19.7,11.1-26.8C161.8,78,171.3,74,181.5,74c10.1,0,19.7,4,26.8,11.1 c7.2,7.1,11.1,16.7,11.1,26.8C219.4,122.1,215.5,131.6,208.3,138.8L208.3,138.8z M208.3,138.8" />
	</g>
</svg>
