<?xml version="1.0" encoding="utf-8" standalone="no"?>
<!DOCTYPE svg PUBLIC "-//W3C//DTD SVG 1.1//EN" "http://www.w3.org/Graphics/SVG/1.1/DTD/svg11.dtd">
<svg xmlns="http://www.w3.org/2000/svg" xmlns:xlink="http://www.w3.org/1999/xlink" version="1.1"
	width="384" height="384" viewBox="0 0 1200 1200" preserveAspectRatio="xMidYMid meet">
	<title>STAdmin logo</title>
	<g id="logo">
		<path fill="#FFFFFF" d="m 136.91547,104.70623 c 72.72432,-45.540001 164.73666,-58.680001 247.46891,-35.400001 84.79449,22.8 157.15489,84.660001 194.27523,163.140001 28.14352,57.36 36.27117,123.6 25.05016,186.24 -17.28643,96.42 -84.06665,183.18 -174.56263,223.56 -67.26545,30.96 -148.542,37.86 -217.44511,7.92 -67.08348,-28.08 -121.672208,-80.04 -161.825252,-139.32 -28.325485,-43.44 -51.9199479,-93.36 -49.73639867,-146.16 1.45569947,-37.14 3.57859427,-75.36 19.22736467,-109.74 11.70625,-25.26 26.687823,-49.32 45.672571,-69.84 59.623015,58.02 116.577255,118.62 175.897015,176.88 19.59129,-4.38 39.12192,-9.18 58.5919,-14.04 5.70149,-19.2 11.34233,-38.4 17.34709,-57.48 -41.0022,-40.14 -77.516,-84.96 -121.49025,-121.86 -19.40933,-21.36 -39.12193,-42.48 -58.4706,-63.9 m 205.86017,62.16 c 29.11399,33.78 62.35246,63.84 92.80084,96.36 -15.77008,58.5 -35.11875,115.98 -52.10191,174.12 -59.38041,13.68 -118.70016,27.42 -178.01992,41.34 -31.72211,-34.62 -65.74909,-67.2 -98.25971,-101.1 1.88028,40.2 17.65036,79.5 43.67098,110.34 51.91995,62.94 145.87322,86.28 222.23679,57.18 64.47535,-23.7 114.69699,-82.2 126.52454,-149.46 11.16037,-55.02 -4.67036,-114.24 -40.15304,-157.8 -28.81072,-36.42 -71.20796,-61.2 -116.69857,-70.98 z M 915.29011,90.966229 c 31.05492,-35.04 77.87992,-55.38 125.06889,-53.4 83.5814,1.14 159.7024,75.360001 159.4597,158.520001 2.1229,42.06 -14.4963,84.6 -44.6414,114.3 -84.3699,86.28 -168.25465,173.16 -253.95895,258.06 -24.92886,-26.1 -52.22322,-49.68 -77.75862,-75.18 -29.84184,29.1 -59.3804,58.44 -88.85832,87.9 85.34038,88.14 174.92655,172.26 260.02429,260.7 27.0518,27.6 59.6837,52.74 72.785,90.36 23.4732,57.36 7.6425,128.75997 -41.4267,168.17997 -56.04451,49.56 -148.42077,44.94 -202.58492,-5.22 C 722.77385,994.74623 622.02732,894.36623 522.12994,793.14623 c -29.47791,27.9 -57.50013,57.18 -86.91739,85.14 7.03588,7.5 14.19307,14.88 21.41092,22.2 -4.3671,40.68 -5.58019,81.66 -10.73579,122.33997 -75.3931,45.24 -149.45181,92.58 -225.02687,137.52 l 5.9441,2.22 -3.51794,0 c -49.97901,-45.84 -97.77448,-93.96 -146.783022,-140.76 45.490602,-75.05997 90.859902,-150.23997 137.684902,-224.51997 41.24482,-3.18 82.0044,-10.38 123.24922,-13.2 6.24738,5.52 12.49476,10.98 18.80279,16.38 56.40835,-55.74 112.45278,-111.84 168.92179,-167.46 116.63792,112.98 232.36603,226.98 348.15479,340.8 14.73896,13.44 26.99109,30.71997 45.67257,39.05997 10.06859,1.5 23.29119,2.58 29.59922,-7.26 12.19149,-11.69997 7.82439,-31.73997 -4.06382,-41.99997 -125.49343,-124.32 -251.22947,-248.34 -376.66224,-372.72 58.28863,-58.5 117.91165,-115.68 175.6544,-174.66 -24.56493,-24.72 -51.25275,-47.28 -75.02918,-72.78 81.2159,-85.14 164.79731,-168.06 246.80172,-252.480001 m 87.64519,68.700001 c -60.04756,59.64 -117.7903,121.38 -177.95921,180.9 24.14035,24.84 49.67574,48.24 74.54394,72.36 54.34611,-54.78 108.51027,-109.8 162.37117,-165.06 13.0407,-12.36 28.1435,-26.52 27.719,-45.9 2.3048,-41.28 -55.074,-72.9 -86.6749,-42.3 m -723.36128,741.42 c -20.56176,34.56 -41.79071,68.7 -62.71639,103.01997 6.12607,6.06 12.25214,12.12 18.37821,18.24 35.66464,-21.18 70.66208,-43.43997 106.14475,-64.97997 0.12131,-3.72 0.42458,-11.22 0.54589,-14.94 -13.28326,-13.08 -26.26325,-26.46 -39.72847,-39.36 -5.58018,-8.04 -15.04222,-3.18 -22.62399,-1.98 z" />
	</g>
</svg>